%TF.GenerationSoftware,KiCad,Pcbnew,7.0.9*%
%TF.CreationDate,2026-03-29T17:48:37-07:00*%
%TF.ProjectId,ergo_unibody,6572676f-5f75-46e6-9962-6f64792e6b69,v1.0.0*%
%TF.SameCoordinates,Original*%
%TF.FileFunction,Paste,Bot*%
%TF.FilePolarity,Positive*%
%FSLAX46Y46*%
G04 Gerber Fmt 4.6, Leading zero omitted, Abs format (unit mm)*
G04 Created by KiCad (PCBNEW 7.0.9) date 2026-03-29 17:48:37*
%MOMM*%
%LPD*%
G01*
G04 APERTURE LIST*
G04 Aperture macros list*
%AMRoundRect*
0 Rectangle with rounded corners*
0 $1 Rounding radius*
0 $2 $3 $4 $5 $6 $7 $8 $9 X,Y pos of 4 corners*
0 Add a 4 corners polygon primitive as box body*
4,1,4,$2,$3,$4,$5,$6,$7,$8,$9,$2,$3,0*
0 Add four circle primitives for the rounded corners*
1,1,$1+$1,$2,$3*
1,1,$1+$1,$4,$5*
1,1,$1+$1,$6,$7*
1,1,$1+$1,$8,$9*
0 Add four rect primitives between the rounded corners*
20,1,$1+$1,$2,$3,$4,$5,0*
20,1,$1+$1,$4,$5,$6,$7,0*
20,1,$1+$1,$6,$7,$8,$9,0*
20,1,$1+$1,$8,$9,$2,$3,0*%
%AMRotRect*
0 Rectangle, with rotation*
0 The origin of the aperture is its center*
0 $1 length*
0 $2 width*
0 $3 Rotation angle, in degrees counterclockwise*
0 Add horizontal line*
21,1,$1,$2,0,0,$3*%
G04 Aperture macros list end*
%ADD10RotRect,2.600000X2.600000X30.000000*%
%ADD11RotRect,0.900000X1.200000X208.000000*%
%ADD12RotRect,0.900000X1.200000X150.000000*%
%ADD13RotRect,2.600000X2.600000X28.000000*%
%ADD14RotRect,2.600000X2.600000X343.000000*%
%ADD15RotRect,2.600000X2.600000X338.000000*%
%ADD16RotRect,0.900000X1.200000X165.000000*%
%ADD17RotRect,0.900000X1.200000X205.000000*%
%ADD18RotRect,2.600000X2.600000X330.000000*%
%ADD19RotRect,0.900000X1.200000X210.000000*%
%ADD20RotRect,0.900000X1.200000X203.000000*%
%ADD21RotRect,2.600000X2.600000X25.000000*%
%ADD22RotRect,0.900000X1.200000X153.000000*%
%ADD23RotRect,0.900000X1.200000X160.000000*%
%ADD24RotRect,2.600000X2.600000X21.000000*%
%ADD25RotRect,0.900000X1.200000X155.000000*%
%ADD26RotRect,2.600000X2.600000X333.000000*%
%ADD27RotRect,0.900000X1.200000X158.000000*%
%ADD28RotRect,2.600000X2.600000X16.000000*%
%ADD29RotRect,2.600000X2.600000X337.000000*%
%ADD30RotRect,0.900000X1.200000X200.000000*%
%ADD31RotRect,0.900000X1.200000X159.000000*%
%ADD32RotRect,2.600000X2.600000X20.000000*%
%ADD33RotRect,2.600000X2.600000X340.000000*%
%ADD34RotRect,2.600000X2.600000X23.000000*%
%ADD35RotRect,0.900000X1.200000X163.000000*%
%ADD36RotRect,2.600000X2.600000X339.000000*%
%ADD37RotRect,2.600000X2.600000X335.000000*%
%ADD38RotRect,2.600000X2.600000X22.000000*%
%ADD39RotRect,2.600000X2.600000X15.000000*%
%ADD40RotRect,0.900000X1.200000X195.000000*%
%ADD41RotRect,0.900000X1.200000X201.000000*%
%ADD42RotRect,0.900000X1.200000X164.000000*%
%ADD43RotRect,2.600000X2.600000X17.000000*%
%ADD44RotRect,0.900000X1.200000X197.000000*%
%ADD45RotRect,2.600000X2.600000X344.000000*%
%ADD46RotRect,0.900000X1.200000X196.000000*%
%ADD47RotRect,0.900000X1.200000X202.000000*%
%ADD48RotRect,0.900000X1.200000X157.000000*%
%ADD49RotRect,2.600000X2.600000X345.000000*%
%ADD50RoundRect,0.150000X0.150000X-0.825000X0.150000X0.825000X-0.150000X0.825000X-0.150000X-0.825000X0*%
G04 APERTURE END LIST*
D10*
%TO.C,SW50*%
X245466767Y-106060449D03*
X256569360Y-102190705D03*
%TD*%
D11*
%TO.C,D43*%
X277733764Y-110178272D03*
X274820036Y-111727528D03*
%TD*%
D12*
%TO.C,D20*%
X148980042Y-144262400D03*
X146122158Y-142612400D03*
%TD*%
%TO.C,D18*%
X140327442Y-193249100D03*
X137469558Y-191599100D03*
%TD*%
D13*
%TO.C,SW41*%
X282594291Y-167109781D03*
X293825173Y-163629869D03*
%TD*%
D14*
%TO.C,SW1*%
X72619714Y-109117569D03*
X83021816Y-114598333D03*
%TD*%
D15*
%TO.C,SW5*%
X101990782Y-94595319D03*
X111875621Y-100961830D03*
%TD*%
D16*
%TO.C,D3*%
X83941978Y-88519751D03*
X80754422Y-87665649D03*
%TD*%
D17*
%TO.C,D39*%
X285298208Y-77711580D03*
X282307392Y-79106220D03*
%TD*%
D18*
%TO.C,SW20*%
X141739867Y-146952749D03*
X150642460Y-154633005D03*
%TD*%
D19*
%TO.C,D50*%
X270168442Y-174995100D03*
X267310558Y-176645100D03*
%TD*%
D20*
%TO.C,D31*%
X325734633Y-121037394D03*
X322696967Y-122326806D03*
%TD*%
D10*
%TO.C,SW52*%
X251878267Y-153165649D03*
X262980860Y-149295905D03*
%TD*%
D18*
%TO.C,SW27*%
X177828267Y-120445749D03*
X186730860Y-128126005D03*
%TD*%
D19*
%TO.C,D53*%
X244668442Y-130827800D03*
X241810558Y-132477800D03*
%TD*%
D21*
%TO.C,SW38*%
X290533663Y-100592743D03*
X301931278Y-97705380D03*
%TD*%
%TO.C,SW36*%
X294883863Y-150147143D03*
X306281478Y-147259780D03*
%TD*%
D19*
%TO.C,D54*%
X252758042Y-183859100D03*
X249900158Y-185509100D03*
%TD*%
D18*
%TO.C,SW26*%
X169328267Y-135168149D03*
X178230860Y-142848405D03*
%TD*%
D12*
%TO.C,D25*%
X168068442Y-147200300D03*
X165210558Y-145550300D03*
%TD*%
%TO.C,D26*%
X176568442Y-132477800D03*
X173710558Y-130827800D03*
%TD*%
D17*
%TO.C,D36*%
X306851708Y-123933280D03*
X303860892Y-125327920D03*
%TD*%
D18*
%TO.C,SW25*%
X160828267Y-149890649D03*
X169730860Y-157570905D03*
%TD*%
D13*
%TO.C,SW42*%
X283936391Y-132871481D03*
X295167273Y-129391569D03*
%TD*%
D22*
%TO.C,D14*%
X127872861Y-141860384D03*
X124932539Y-140362216D03*
%TD*%
D23*
%TO.C,D7*%
X115065093Y-75062733D03*
X111964107Y-73934067D03*
%TD*%
D17*
%TO.C,D35*%
X304017408Y-158080480D03*
X301026592Y-159475120D03*
%TD*%
D24*
%TO.C,SW34*%
X304022635Y-81195651D03*
X315593898Y-79110379D03*
%TD*%
D10*
%TO.C,SW55*%
X242791867Y-176614649D03*
X253894460Y-172744905D03*
%TD*%
D25*
%TO.C,D8*%
X117352508Y-159475120D03*
X114361692Y-158080480D03*
%TD*%
D18*
%TO.C,SW24*%
X152328267Y-164613049D03*
X161230860Y-172293305D03*
%TD*%
D26*
%TO.C,SW13*%
X129882997Y-164037492D03*
X139175343Y-171241297D03*
%TD*%
D27*
%TO.C,D5*%
X102417753Y-106685701D03*
X99358047Y-105449499D03*
%TD*%
D18*
%TO.C,SW21*%
X150239867Y-132230349D03*
X159142460Y-139910605D03*
%TD*%
D21*
%TO.C,SW40*%
X276164663Y-69778243D03*
X287562278Y-66890880D03*
%TD*%
D28*
%TO.C,SW30*%
X334608526Y-94691105D03*
X346317500Y-93622270D03*
%TD*%
D29*
%TO.C,SW4*%
X95466097Y-110230852D03*
X105238319Y-116768907D03*
%TD*%
D12*
%TO.C,D21*%
X157480042Y-129540000D03*
X154622158Y-127890000D03*
%TD*%
D19*
%TO.C,D46*%
X280756942Y-157334900D03*
X277899058Y-158984900D03*
%TD*%
D30*
%TO.C,D34*%
X306414893Y-73934067D03*
X303313907Y-75062733D03*
%TD*%
D31*
%TO.C,D6*%
X108879408Y-90929407D03*
X105798592Y-89746793D03*
%TD*%
D18*
%TO.C,SW28*%
X170635667Y-173339649D03*
X179538260Y-181019905D03*
%TD*%
D19*
%TO.C,D47*%
X272256942Y-142612400D03*
X269399058Y-144262400D03*
%TD*%
D32*
%TO.C,SW35*%
X298007587Y-65234845D03*
X309613481Y-63351836D03*
%TD*%
D33*
%TO.C,SW7*%
X114216427Y-62994613D03*
X124317432Y-69012269D03*
%TD*%
D19*
%TO.C,D51*%
X261668442Y-160272700D03*
X258810558Y-161922700D03*
%TD*%
D10*
%TO.C,SW47*%
X270966767Y-150227749D03*
X282069360Y-146358005D03*
%TD*%
D34*
%TO.C,SW32*%
X316883596Y-112790141D03*
X328375036Y-110302307D03*
%TD*%
D11*
%TO.C,D40*%
X292091064Y-174574972D03*
X289177336Y-176124228D03*
%TD*%
D10*
%TO.C,SW46*%
X271119267Y-184492049D03*
X282221860Y-180622305D03*
%TD*%
D26*
%TO.C,SW18*%
X152089997Y-84561692D03*
X161382343Y-91765497D03*
%TD*%
D17*
%TO.C,D38*%
X292482708Y-93118780D03*
X289491892Y-94513420D03*
%TD*%
D35*
%TO.C,D1*%
X74098803Y-121124613D03*
X70942997Y-120159787D03*
%TD*%
D36*
%TO.C,SW6*%
X108241513Y-78848341D03*
X118235958Y-85041368D03*
%TD*%
D37*
%TO.C,SW11*%
X129093521Y-82417394D03*
X138631615Y-89292512D03*
%TD*%
D12*
%TO.C,D22*%
X165980042Y-114817600D03*
X163122158Y-113167600D03*
%TD*%
D22*
%TO.C,D16*%
X143572361Y-111701984D03*
X140632039Y-110203816D03*
%TD*%
D38*
%TO.C,SW33*%
X310315264Y-97048993D03*
X321848372Y-94762091D03*
%TD*%
D39*
%TO.C,SW31*%
X330007520Y-78266874D03*
X341733365Y-77402551D03*
%TD*%
D40*
%TO.C,D30*%
X337624578Y-87665649D03*
X334437022Y-88519751D03*
%TD*%
D41*
%TO.C,D33*%
X312580408Y-89746793D03*
X309499592Y-90929407D03*
%TD*%
D21*
%TO.C,SW39*%
X283349163Y-85185543D03*
X294746778Y-82298180D03*
%TD*%
D42*
%TO.C,D2*%
X79162682Y-104865102D03*
X75990518Y-103955498D03*
%TD*%
D22*
%TO.C,D15*%
X135722561Y-126781184D03*
X132782239Y-125283016D03*
%TD*%
D12*
%TO.C,D23*%
X151068442Y-176645100D03*
X148210558Y-174995100D03*
%TD*%
D17*
%TO.C,D37*%
X299667208Y-108526080D03*
X296676392Y-109920720D03*
%TD*%
D21*
%TO.C,SW37*%
X297718163Y-115999943D03*
X309115778Y-113112580D03*
%TD*%
D19*
%TO.C,D52*%
X253168442Y-145550300D03*
X250310558Y-147200300D03*
%TD*%
D10*
%TO.C,SW48*%
X262466767Y-135505349D03*
X273569360Y-131635605D03*
%TD*%
D13*
%TO.C,SW45*%
X260387191Y-87633981D03*
X271618073Y-84154069D03*
%TD*%
D25*
%TO.C,D10*%
X121702608Y-109920720D03*
X118711792Y-108526080D03*
%TD*%
D26*
%TO.C,SW14*%
X128540797Y-129799192D03*
X137833143Y-137002997D03*
%TD*%
D19*
%TO.C,D49*%
X255256942Y-113167600D03*
X252399058Y-114817600D03*
%TD*%
D37*
%TO.C,SW9*%
X114724521Y-113231794D03*
X124262615Y-120106912D03*
%TD*%
D43*
%TO.C,SW29*%
X339495490Y-111032604D03*
X351184028Y-109759581D03*
%TD*%
D44*
%TO.C,D28*%
X347436003Y-120159787D03*
X344280197Y-121124613D03*
%TD*%
D18*
%TO.C,SW19*%
X141587267Y-181217049D03*
X150489860Y-188897305D03*
%TD*%
%TO.C,SW23*%
X167239867Y-102785449D03*
X176142460Y-110465705D03*
%TD*%
D12*
%TO.C,D27*%
X169064542Y-185584300D03*
X166206658Y-183934300D03*
%TD*%
%TO.C,D19*%
X140480042Y-158984900D03*
X137622158Y-157334900D03*
%TD*%
D45*
%TO.C,SW2*%
X77474210Y-92885681D03*
X87970381Y-98184068D03*
%TD*%
D22*
%TO.C,D17*%
X151422061Y-96622784D03*
X148481739Y-95124616D03*
%TD*%
D10*
%TO.C,SW54*%
X234878267Y-123720749D03*
X245980860Y-119851005D03*
%TD*%
D46*
%TO.C,D29*%
X342388582Y-103955498D03*
X339216418Y-104865102D03*
%TD*%
D47*
%TO.C,D32*%
X319021053Y-105449499D03*
X315961347Y-106685701D03*
%TD*%
D25*
%TO.C,D12*%
X136071708Y-79106220D03*
X133080892Y-77711580D03*
%TD*%
D37*
%TO.C,SW8*%
X117558821Y-147378994D03*
X127096915Y-154254112D03*
%TD*%
D18*
%TO.C,SW22*%
X158739867Y-117507949D03*
X167642460Y-125188205D03*
%TD*%
D37*
%TO.C,SW12*%
X136278021Y-67010094D03*
X145816115Y-73885212D03*
%TD*%
D19*
%TO.C,D48*%
X263756942Y-127890000D03*
X260899058Y-129540000D03*
%TD*%
D13*
%TO.C,SW43*%
X276086691Y-117792281D03*
X287317573Y-114312369D03*
%TD*%
D11*
%TO.C,D44*%
X269884064Y-95099072D03*
X266970336Y-96648328D03*
%TD*%
D48*
%TO.C,D4*%
X95682033Y-122326806D03*
X92644367Y-121037394D03*
%TD*%
D19*
%TO.C,D45*%
X280909442Y-191599100D03*
X278051558Y-193249100D03*
%TD*%
D11*
%TO.C,D41*%
X293433164Y-140336672D03*
X290519436Y-141885928D03*
%TD*%
D10*
%TO.C,SW49*%
X253966767Y-120782949D03*
X265069360Y-116913205D03*
%TD*%
D26*
%TO.C,SW16*%
X144240297Y-99640792D03*
X153532643Y-106844597D03*
%TD*%
D49*
%TO.C,SW3*%
X82044766Y-76571609D03*
X92631808Y-81686006D03*
%TD*%
D26*
%TO.C,SW15*%
X136390497Y-114719992D03*
X145682843Y-121923797D03*
%TD*%
D25*
%TO.C,D11*%
X128887208Y-94513420D03*
X125896392Y-93118780D03*
%TD*%
D37*
%TO.C,SW10*%
X121909021Y-97824594D03*
X131447115Y-104699712D03*
%TD*%
D10*
%TO.C,SW53*%
X243378267Y-138443149D03*
X254480860Y-134573405D03*
%TD*%
D13*
%TO.C,SW44*%
X268236991Y-102713081D03*
X279467873Y-99233169D03*
%TD*%
D11*
%TO.C,D42*%
X285583464Y-125257472D03*
X282669736Y-126806728D03*
%TD*%
D10*
%TO.C,SW51*%
X260378267Y-167888049D03*
X271480860Y-164018305D03*
%TD*%
D25*
%TO.C,D9*%
X114518108Y-125327920D03*
X111527292Y-123933280D03*
%TD*%
D22*
%TO.C,D13*%
X129215061Y-176098684D03*
X126274739Y-174600516D03*
%TD*%
D12*
%TO.C,D24*%
X159568442Y-161922700D03*
X156710558Y-160272700D03*
%TD*%
D50*
%TO.C,U4*%
X240665000Y-93915000D03*
X239395000Y-93915000D03*
X238125000Y-93915000D03*
X236855000Y-93915000D03*
X235585000Y-93915000D03*
X234315000Y-93915000D03*
X233045000Y-93915000D03*
X231775000Y-93915000D03*
X231775000Y-88965000D03*
X233045000Y-88965000D03*
X234315000Y-88965000D03*
X235585000Y-88965000D03*
X236855000Y-88965000D03*
X238125000Y-88965000D03*
X239395000Y-88965000D03*
X240665000Y-88965000D03*
%TD*%
%TO.C,U1*%
X189865000Y-93915000D03*
X188595000Y-93915000D03*
X187325000Y-93915000D03*
X186055000Y-93915000D03*
X184785000Y-93915000D03*
X183515000Y-93915000D03*
X182245000Y-93915000D03*
X180975000Y-93915000D03*
X180975000Y-88965000D03*
X182245000Y-88965000D03*
X183515000Y-88965000D03*
X184785000Y-88965000D03*
X186055000Y-88965000D03*
X187325000Y-88965000D03*
X188595000Y-88965000D03*
X189865000Y-88965000D03*
%TD*%
%TO.C,U2*%
X215265000Y-93915000D03*
X213995000Y-93915000D03*
X212725000Y-93915000D03*
X211455000Y-93915000D03*
X210185000Y-93915000D03*
X208915000Y-93915000D03*
X207645000Y-93915000D03*
X206375000Y-93915000D03*
X206375000Y-88965000D03*
X207645000Y-88965000D03*
X208915000Y-88965000D03*
X210185000Y-88965000D03*
X211455000Y-88965000D03*
X212725000Y-88965000D03*
X213995000Y-88965000D03*
X215265000Y-88965000D03*
%TD*%
M02*
