%TF.GenerationSoftware,KiCad,Pcbnew,7.0.9*%
%TF.CreationDate,2026-03-29T17:48:37-07:00*%
%TF.ProjectId,ergo_unibody,6572676f-5f75-46e6-9962-6f64792e6b69,v1.0.0*%
%TF.SameCoordinates,Original*%
%TF.FileFunction,Copper,L1,Top*%
%TF.FilePolarity,Positive*%
%FSLAX46Y46*%
G04 Gerber Fmt 4.6, Leading zero omitted, Abs format (unit mm)*
G04 Created by KiCad (PCBNEW 7.0.9) date 2026-03-29 17:48:37*
%MOMM*%
%LPD*%
G01*
G04 APERTURE LIST*
G04 Aperture macros list*
%AMRoundRect*
0 Rectangle with rounded corners*
0 $1 Rounding radius*
0 $2 $3 $4 $5 $6 $7 $8 $9 X,Y pos of 4 corners*
0 Add a 4 corners polygon primitive as box body*
4,1,4,$2,$3,$4,$5,$6,$7,$8,$9,$2,$3,0*
0 Add four circle primitives for the rounded corners*
1,1,$1+$1,$2,$3*
1,1,$1+$1,$4,$5*
1,1,$1+$1,$6,$7*
1,1,$1+$1,$8,$9*
0 Add four rect primitives between the rounded corners*
20,1,$1+$1,$2,$3,$4,$5,0*
20,1,$1+$1,$4,$5,$6,$7,0*
20,1,$1+$1,$6,$7,$8,$9,0*
20,1,$1+$1,$8,$9,$2,$3,0*%
%AMRotRect*
0 Rectangle, with rotation*
0 The origin of the aperture is its center*
0 $1 length*
0 $2 width*
0 $3 Rotation angle, in degrees counterclockwise*
0 Add horizontal line*
21,1,$1,$2,0,0,$3*%
G04 Aperture macros list end*
%ADD10C,0.150000*%
%TA.AperFunction,NonConductor*%
%ADD11C,0.150000*%
%TD*%
%TA.AperFunction,SMDPad,CuDef*%
%ADD12R,1.100000X1.800000*%
%TD*%
%TA.AperFunction,ComponentPad*%
%ADD13RotRect,1.778000X1.778000X208.000000*%
%TD*%
%TA.AperFunction,SMDPad,CuDef*%
%ADD14RotRect,0.900000X1.200000X208.000000*%
%TD*%
%TA.AperFunction,ComponentPad*%
%ADD15C,1.905000*%
%TD*%
%TA.AperFunction,ComponentPad*%
%ADD16RotRect,1.778000X1.778000X150.000000*%
%TD*%
%TA.AperFunction,SMDPad,CuDef*%
%ADD17RotRect,0.900000X1.200000X150.000000*%
%TD*%
%TA.AperFunction,SMDPad,CuDef*%
%ADD18RoundRect,0.250000X0.450000X-0.262500X0.450000X0.262500X-0.450000X0.262500X-0.450000X-0.262500X0*%
%TD*%
%TA.AperFunction,ComponentPad*%
%ADD19RotRect,1.778000X1.778000X165.000000*%
%TD*%
%TA.AperFunction,SMDPad,CuDef*%
%ADD20RotRect,0.900000X1.200000X165.000000*%
%TD*%
%TA.AperFunction,ComponentPad*%
%ADD21RotRect,1.778000X1.778000X205.000000*%
%TD*%
%TA.AperFunction,SMDPad,CuDef*%
%ADD22RotRect,0.900000X1.200000X205.000000*%
%TD*%
%TA.AperFunction,ComponentPad*%
%ADD23RotRect,1.778000X1.778000X210.000000*%
%TD*%
%TA.AperFunction,SMDPad,CuDef*%
%ADD24RotRect,0.900000X1.200000X210.000000*%
%TD*%
%TA.AperFunction,ComponentPad*%
%ADD25C,0.700000*%
%TD*%
%TA.AperFunction,ComponentPad*%
%ADD26C,4.400000*%
%TD*%
%TA.AperFunction,ComponentPad*%
%ADD27RotRect,1.778000X1.778000X203.000000*%
%TD*%
%TA.AperFunction,SMDPad,CuDef*%
%ADD28RotRect,0.900000X1.200000X203.000000*%
%TD*%
%TA.AperFunction,ComponentPad*%
%ADD29RotRect,1.778000X1.778000X153.000000*%
%TD*%
%TA.AperFunction,SMDPad,CuDef*%
%ADD30RotRect,0.900000X1.200000X153.000000*%
%TD*%
%TA.AperFunction,ComponentPad*%
%ADD31RotRect,1.778000X1.778000X160.000000*%
%TD*%
%TA.AperFunction,SMDPad,CuDef*%
%ADD32RotRect,0.900000X1.200000X160.000000*%
%TD*%
%TA.AperFunction,ComponentPad*%
%ADD33RotRect,1.778000X1.778000X155.000000*%
%TD*%
%TA.AperFunction,SMDPad,CuDef*%
%ADD34RotRect,0.900000X1.200000X155.000000*%
%TD*%
%TA.AperFunction,ComponentPad*%
%ADD35RotRect,1.778000X1.778000X158.000000*%
%TD*%
%TA.AperFunction,SMDPad,CuDef*%
%ADD36RotRect,0.900000X1.200000X158.000000*%
%TD*%
%TA.AperFunction,ComponentPad*%
%ADD37RotRect,1.778000X1.778000X200.000000*%
%TD*%
%TA.AperFunction,SMDPad,CuDef*%
%ADD38RotRect,0.900000X1.200000X200.000000*%
%TD*%
%TA.AperFunction,ComponentPad*%
%ADD39RotRect,1.778000X1.778000X159.000000*%
%TD*%
%TA.AperFunction,SMDPad,CuDef*%
%ADD40RotRect,0.900000X1.200000X159.000000*%
%TD*%
%TA.AperFunction,ComponentPad*%
%ADD41O,2.750000X1.800000*%
%TD*%
%TA.AperFunction,ComponentPad*%
%ADD42C,1.397000*%
%TD*%
%TA.AperFunction,SMDPad,CuDef*%
%ADD43RoundRect,0.150000X-0.825000X-0.150000X0.825000X-0.150000X0.825000X0.150000X-0.825000X0.150000X0*%
%TD*%
%TA.AperFunction,ComponentPad*%
%ADD44C,1.778000*%
%TD*%
%TA.AperFunction,ComponentPad*%
%ADD45C,2.286000*%
%TD*%
%TA.AperFunction,ComponentPad*%
%ADD46RotRect,1.778000X1.778000X163.000000*%
%TD*%
%TA.AperFunction,SMDPad,CuDef*%
%ADD47RotRect,0.900000X1.200000X163.000000*%
%TD*%
%TA.AperFunction,ComponentPad*%
%ADD48RotRect,1.778000X1.778000X195.000000*%
%TD*%
%TA.AperFunction,SMDPad,CuDef*%
%ADD49RotRect,0.900000X1.200000X195.000000*%
%TD*%
%TA.AperFunction,ComponentPad*%
%ADD50RotRect,1.778000X1.778000X201.000000*%
%TD*%
%TA.AperFunction,SMDPad,CuDef*%
%ADD51RotRect,0.900000X1.200000X201.000000*%
%TD*%
%TA.AperFunction,ComponentPad*%
%ADD52RotRect,1.778000X1.778000X164.000000*%
%TD*%
%TA.AperFunction,SMDPad,CuDef*%
%ADD53RotRect,0.900000X1.200000X164.000000*%
%TD*%
%TA.AperFunction,ComponentPad*%
%ADD54RotRect,1.778000X1.778000X197.000000*%
%TD*%
%TA.AperFunction,SMDPad,CuDef*%
%ADD55RotRect,0.900000X1.200000X197.000000*%
%TD*%
%TA.AperFunction,ComponentPad*%
%ADD56RotRect,1.778000X1.778000X196.000000*%
%TD*%
%TA.AperFunction,SMDPad,CuDef*%
%ADD57RotRect,0.900000X1.200000X196.000000*%
%TD*%
%TA.AperFunction,ComponentPad*%
%ADD58RotRect,1.778000X1.778000X202.000000*%
%TD*%
%TA.AperFunction,SMDPad,CuDef*%
%ADD59RotRect,0.900000X1.200000X202.000000*%
%TD*%
%TA.AperFunction,ComponentPad*%
%ADD60RotRect,1.778000X1.778000X157.000000*%
%TD*%
%TA.AperFunction,SMDPad,CuDef*%
%ADD61RotRect,0.900000X1.200000X157.000000*%
%TD*%
%TA.AperFunction,ViaPad*%
%ADD62C,0.800000*%
%TD*%
%TA.AperFunction,Conductor*%
%ADD63C,0.250000*%
%TD*%
G04 APERTURE END LIST*
D10*
D11*
X241574819Y-92201904D02*
X242384342Y-92201904D01*
X242384342Y-92201904D02*
X242479580Y-92154285D01*
X242479580Y-92154285D02*
X242527200Y-92106666D01*
X242527200Y-92106666D02*
X242574819Y-92011428D01*
X242574819Y-92011428D02*
X242574819Y-91820952D01*
X242574819Y-91820952D02*
X242527200Y-91725714D01*
X242527200Y-91725714D02*
X242479580Y-91678095D01*
X242479580Y-91678095D02*
X242384342Y-91630476D01*
X242384342Y-91630476D02*
X241574819Y-91630476D01*
X241908152Y-90725714D02*
X242574819Y-90725714D01*
X241527200Y-90963809D02*
X242241485Y-91201904D01*
X242241485Y-91201904D02*
X242241485Y-90582857D01*
D10*
D11*
X228639819Y-94701904D02*
X228639819Y-94035238D01*
X228639819Y-94035238D02*
X229639819Y-94463809D01*
X228973152Y-93225714D02*
X229639819Y-93225714D01*
X228592200Y-93463809D02*
X229306485Y-93701904D01*
X229306485Y-93701904D02*
X229306485Y-93082857D01*
X229639819Y-92701904D02*
X228639819Y-92701904D01*
X229116009Y-92701904D02*
X229116009Y-92130476D01*
X229639819Y-92130476D02*
X228639819Y-92130476D01*
X229544580Y-91082857D02*
X229592200Y-91130476D01*
X229592200Y-91130476D02*
X229639819Y-91273333D01*
X229639819Y-91273333D02*
X229639819Y-91368571D01*
X229639819Y-91368571D02*
X229592200Y-91511428D01*
X229592200Y-91511428D02*
X229496961Y-91606666D01*
X229496961Y-91606666D02*
X229401723Y-91654285D01*
X229401723Y-91654285D02*
X229211247Y-91701904D01*
X229211247Y-91701904D02*
X229068390Y-91701904D01*
X229068390Y-91701904D02*
X228877914Y-91654285D01*
X228877914Y-91654285D02*
X228782676Y-91606666D01*
X228782676Y-91606666D02*
X228687438Y-91511428D01*
X228687438Y-91511428D02*
X228639819Y-91368571D01*
X228639819Y-91368571D02*
X228639819Y-91273333D01*
X228639819Y-91273333D02*
X228687438Y-91130476D01*
X228687438Y-91130476D02*
X228735057Y-91082857D01*
X228639819Y-90178095D02*
X228639819Y-90654285D01*
X228639819Y-90654285D02*
X229116009Y-90701904D01*
X229116009Y-90701904D02*
X229068390Y-90654285D01*
X229068390Y-90654285D02*
X229020771Y-90559047D01*
X229020771Y-90559047D02*
X229020771Y-90320952D01*
X229020771Y-90320952D02*
X229068390Y-90225714D01*
X229068390Y-90225714D02*
X229116009Y-90178095D01*
X229116009Y-90178095D02*
X229211247Y-90130476D01*
X229211247Y-90130476D02*
X229449342Y-90130476D01*
X229449342Y-90130476D02*
X229544580Y-90178095D01*
X229544580Y-90178095D02*
X229592200Y-90225714D01*
X229592200Y-90225714D02*
X229639819Y-90320952D01*
X229639819Y-90320952D02*
X229639819Y-90559047D01*
X229639819Y-90559047D02*
X229592200Y-90654285D01*
X229592200Y-90654285D02*
X229544580Y-90701904D01*
X229639819Y-89654285D02*
X229639819Y-89463809D01*
X229639819Y-89463809D02*
X229592200Y-89368571D01*
X229592200Y-89368571D02*
X229544580Y-89320952D01*
X229544580Y-89320952D02*
X229401723Y-89225714D01*
X229401723Y-89225714D02*
X229211247Y-89178095D01*
X229211247Y-89178095D02*
X228830295Y-89178095D01*
X228830295Y-89178095D02*
X228735057Y-89225714D01*
X228735057Y-89225714D02*
X228687438Y-89273333D01*
X228687438Y-89273333D02*
X228639819Y-89368571D01*
X228639819Y-89368571D02*
X228639819Y-89559047D01*
X228639819Y-89559047D02*
X228687438Y-89654285D01*
X228687438Y-89654285D02*
X228735057Y-89701904D01*
X228735057Y-89701904D02*
X228830295Y-89749523D01*
X228830295Y-89749523D02*
X229068390Y-89749523D01*
X229068390Y-89749523D02*
X229163628Y-89701904D01*
X229163628Y-89701904D02*
X229211247Y-89654285D01*
X229211247Y-89654285D02*
X229258866Y-89559047D01*
X229258866Y-89559047D02*
X229258866Y-89368571D01*
X229258866Y-89368571D02*
X229211247Y-89273333D01*
X229211247Y-89273333D02*
X229163628Y-89225714D01*
X229163628Y-89225714D02*
X229068390Y-89178095D01*
X228639819Y-88273333D02*
X228639819Y-88749523D01*
X228639819Y-88749523D02*
X229116009Y-88797142D01*
X229116009Y-88797142D02*
X229068390Y-88749523D01*
X229068390Y-88749523D02*
X229020771Y-88654285D01*
X229020771Y-88654285D02*
X229020771Y-88416190D01*
X229020771Y-88416190D02*
X229068390Y-88320952D01*
X229068390Y-88320952D02*
X229116009Y-88273333D01*
X229116009Y-88273333D02*
X229211247Y-88225714D01*
X229211247Y-88225714D02*
X229449342Y-88225714D01*
X229449342Y-88225714D02*
X229544580Y-88273333D01*
X229544580Y-88273333D02*
X229592200Y-88320952D01*
X229592200Y-88320952D02*
X229639819Y-88416190D01*
X229639819Y-88416190D02*
X229639819Y-88654285D01*
X229639819Y-88654285D02*
X229592200Y-88749523D01*
X229592200Y-88749523D02*
X229544580Y-88797142D01*
D10*
D11*
X235685566Y-92186666D02*
X236478900Y-92186666D01*
X236478900Y-92186666D02*
X236572233Y-92140000D01*
X236572233Y-92140000D02*
X236618900Y-92093333D01*
X236618900Y-92093333D02*
X236665566Y-92000000D01*
X236665566Y-92000000D02*
X236665566Y-91813333D01*
X236665566Y-91813333D02*
X236618900Y-91720000D01*
X236618900Y-91720000D02*
X236572233Y-91673333D01*
X236572233Y-91673333D02*
X236478900Y-91626666D01*
X236478900Y-91626666D02*
X235685566Y-91626666D01*
X236012233Y-90739999D02*
X236665566Y-90739999D01*
X235638900Y-90973333D02*
X236338900Y-91206666D01*
X236338900Y-91206666D02*
X236338900Y-90599999D01*
D10*
D11*
X190774819Y-92201904D02*
X191584342Y-92201904D01*
X191584342Y-92201904D02*
X191679580Y-92154285D01*
X191679580Y-92154285D02*
X191727200Y-92106666D01*
X191727200Y-92106666D02*
X191774819Y-92011428D01*
X191774819Y-92011428D02*
X191774819Y-91820952D01*
X191774819Y-91820952D02*
X191727200Y-91725714D01*
X191727200Y-91725714D02*
X191679580Y-91678095D01*
X191679580Y-91678095D02*
X191584342Y-91630476D01*
X191584342Y-91630476D02*
X190774819Y-91630476D01*
X191774819Y-90630476D02*
X191774819Y-91201904D01*
X191774819Y-90916190D02*
X190774819Y-90916190D01*
X190774819Y-90916190D02*
X190917676Y-91011428D01*
X190917676Y-91011428D02*
X191012914Y-91106666D01*
X191012914Y-91106666D02*
X191060533Y-91201904D01*
D10*
D11*
X177839819Y-94701904D02*
X177839819Y-94035238D01*
X177839819Y-94035238D02*
X178839819Y-94463809D01*
X178173152Y-93225714D02*
X178839819Y-93225714D01*
X177792200Y-93463809D02*
X178506485Y-93701904D01*
X178506485Y-93701904D02*
X178506485Y-93082857D01*
X178839819Y-92701904D02*
X177839819Y-92701904D01*
X178316009Y-92701904D02*
X178316009Y-92130476D01*
X178839819Y-92130476D02*
X177839819Y-92130476D01*
X178744580Y-91082857D02*
X178792200Y-91130476D01*
X178792200Y-91130476D02*
X178839819Y-91273333D01*
X178839819Y-91273333D02*
X178839819Y-91368571D01*
X178839819Y-91368571D02*
X178792200Y-91511428D01*
X178792200Y-91511428D02*
X178696961Y-91606666D01*
X178696961Y-91606666D02*
X178601723Y-91654285D01*
X178601723Y-91654285D02*
X178411247Y-91701904D01*
X178411247Y-91701904D02*
X178268390Y-91701904D01*
X178268390Y-91701904D02*
X178077914Y-91654285D01*
X178077914Y-91654285D02*
X177982676Y-91606666D01*
X177982676Y-91606666D02*
X177887438Y-91511428D01*
X177887438Y-91511428D02*
X177839819Y-91368571D01*
X177839819Y-91368571D02*
X177839819Y-91273333D01*
X177839819Y-91273333D02*
X177887438Y-91130476D01*
X177887438Y-91130476D02*
X177935057Y-91082857D01*
X177839819Y-90178095D02*
X177839819Y-90654285D01*
X177839819Y-90654285D02*
X178316009Y-90701904D01*
X178316009Y-90701904D02*
X178268390Y-90654285D01*
X178268390Y-90654285D02*
X178220771Y-90559047D01*
X178220771Y-90559047D02*
X178220771Y-90320952D01*
X178220771Y-90320952D02*
X178268390Y-90225714D01*
X178268390Y-90225714D02*
X178316009Y-90178095D01*
X178316009Y-90178095D02*
X178411247Y-90130476D01*
X178411247Y-90130476D02*
X178649342Y-90130476D01*
X178649342Y-90130476D02*
X178744580Y-90178095D01*
X178744580Y-90178095D02*
X178792200Y-90225714D01*
X178792200Y-90225714D02*
X178839819Y-90320952D01*
X178839819Y-90320952D02*
X178839819Y-90559047D01*
X178839819Y-90559047D02*
X178792200Y-90654285D01*
X178792200Y-90654285D02*
X178744580Y-90701904D01*
X178839819Y-89654285D02*
X178839819Y-89463809D01*
X178839819Y-89463809D02*
X178792200Y-89368571D01*
X178792200Y-89368571D02*
X178744580Y-89320952D01*
X178744580Y-89320952D02*
X178601723Y-89225714D01*
X178601723Y-89225714D02*
X178411247Y-89178095D01*
X178411247Y-89178095D02*
X178030295Y-89178095D01*
X178030295Y-89178095D02*
X177935057Y-89225714D01*
X177935057Y-89225714D02*
X177887438Y-89273333D01*
X177887438Y-89273333D02*
X177839819Y-89368571D01*
X177839819Y-89368571D02*
X177839819Y-89559047D01*
X177839819Y-89559047D02*
X177887438Y-89654285D01*
X177887438Y-89654285D02*
X177935057Y-89701904D01*
X177935057Y-89701904D02*
X178030295Y-89749523D01*
X178030295Y-89749523D02*
X178268390Y-89749523D01*
X178268390Y-89749523D02*
X178363628Y-89701904D01*
X178363628Y-89701904D02*
X178411247Y-89654285D01*
X178411247Y-89654285D02*
X178458866Y-89559047D01*
X178458866Y-89559047D02*
X178458866Y-89368571D01*
X178458866Y-89368571D02*
X178411247Y-89273333D01*
X178411247Y-89273333D02*
X178363628Y-89225714D01*
X178363628Y-89225714D02*
X178268390Y-89178095D01*
X177839819Y-88273333D02*
X177839819Y-88749523D01*
X177839819Y-88749523D02*
X178316009Y-88797142D01*
X178316009Y-88797142D02*
X178268390Y-88749523D01*
X178268390Y-88749523D02*
X178220771Y-88654285D01*
X178220771Y-88654285D02*
X178220771Y-88416190D01*
X178220771Y-88416190D02*
X178268390Y-88320952D01*
X178268390Y-88320952D02*
X178316009Y-88273333D01*
X178316009Y-88273333D02*
X178411247Y-88225714D01*
X178411247Y-88225714D02*
X178649342Y-88225714D01*
X178649342Y-88225714D02*
X178744580Y-88273333D01*
X178744580Y-88273333D02*
X178792200Y-88320952D01*
X178792200Y-88320952D02*
X178839819Y-88416190D01*
X178839819Y-88416190D02*
X178839819Y-88654285D01*
X178839819Y-88654285D02*
X178792200Y-88749523D01*
X178792200Y-88749523D02*
X178744580Y-88797142D01*
D10*
D11*
X184885566Y-92186666D02*
X185678900Y-92186666D01*
X185678900Y-92186666D02*
X185772233Y-92140000D01*
X185772233Y-92140000D02*
X185818900Y-92093333D01*
X185818900Y-92093333D02*
X185865566Y-92000000D01*
X185865566Y-92000000D02*
X185865566Y-91813333D01*
X185865566Y-91813333D02*
X185818900Y-91720000D01*
X185818900Y-91720000D02*
X185772233Y-91673333D01*
X185772233Y-91673333D02*
X185678900Y-91626666D01*
X185678900Y-91626666D02*
X184885566Y-91626666D01*
X185865566Y-90646666D02*
X185865566Y-91206666D01*
X185865566Y-90926666D02*
X184885566Y-90926666D01*
X184885566Y-90926666D02*
X185025566Y-91019999D01*
X185025566Y-91019999D02*
X185118900Y-91113333D01*
X185118900Y-91113333D02*
X185165566Y-91206666D01*
D10*
D11*
X216174819Y-92201904D02*
X216984342Y-92201904D01*
X216984342Y-92201904D02*
X217079580Y-92154285D01*
X217079580Y-92154285D02*
X217127200Y-92106666D01*
X217127200Y-92106666D02*
X217174819Y-92011428D01*
X217174819Y-92011428D02*
X217174819Y-91820952D01*
X217174819Y-91820952D02*
X217127200Y-91725714D01*
X217127200Y-91725714D02*
X217079580Y-91678095D01*
X217079580Y-91678095D02*
X216984342Y-91630476D01*
X216984342Y-91630476D02*
X216174819Y-91630476D01*
X216270057Y-91201904D02*
X216222438Y-91154285D01*
X216222438Y-91154285D02*
X216174819Y-91059047D01*
X216174819Y-91059047D02*
X216174819Y-90820952D01*
X216174819Y-90820952D02*
X216222438Y-90725714D01*
X216222438Y-90725714D02*
X216270057Y-90678095D01*
X216270057Y-90678095D02*
X216365295Y-90630476D01*
X216365295Y-90630476D02*
X216460533Y-90630476D01*
X216460533Y-90630476D02*
X216603390Y-90678095D01*
X216603390Y-90678095D02*
X217174819Y-91249523D01*
X217174819Y-91249523D02*
X217174819Y-90630476D01*
D10*
D11*
X203239819Y-94701904D02*
X203239819Y-94035238D01*
X203239819Y-94035238D02*
X204239819Y-94463809D01*
X203573152Y-93225714D02*
X204239819Y-93225714D01*
X203192200Y-93463809D02*
X203906485Y-93701904D01*
X203906485Y-93701904D02*
X203906485Y-93082857D01*
X204239819Y-92701904D02*
X203239819Y-92701904D01*
X203716009Y-92701904D02*
X203716009Y-92130476D01*
X204239819Y-92130476D02*
X203239819Y-92130476D01*
X204144580Y-91082857D02*
X204192200Y-91130476D01*
X204192200Y-91130476D02*
X204239819Y-91273333D01*
X204239819Y-91273333D02*
X204239819Y-91368571D01*
X204239819Y-91368571D02*
X204192200Y-91511428D01*
X204192200Y-91511428D02*
X204096961Y-91606666D01*
X204096961Y-91606666D02*
X204001723Y-91654285D01*
X204001723Y-91654285D02*
X203811247Y-91701904D01*
X203811247Y-91701904D02*
X203668390Y-91701904D01*
X203668390Y-91701904D02*
X203477914Y-91654285D01*
X203477914Y-91654285D02*
X203382676Y-91606666D01*
X203382676Y-91606666D02*
X203287438Y-91511428D01*
X203287438Y-91511428D02*
X203239819Y-91368571D01*
X203239819Y-91368571D02*
X203239819Y-91273333D01*
X203239819Y-91273333D02*
X203287438Y-91130476D01*
X203287438Y-91130476D02*
X203335057Y-91082857D01*
X203239819Y-90178095D02*
X203239819Y-90654285D01*
X203239819Y-90654285D02*
X203716009Y-90701904D01*
X203716009Y-90701904D02*
X203668390Y-90654285D01*
X203668390Y-90654285D02*
X203620771Y-90559047D01*
X203620771Y-90559047D02*
X203620771Y-90320952D01*
X203620771Y-90320952D02*
X203668390Y-90225714D01*
X203668390Y-90225714D02*
X203716009Y-90178095D01*
X203716009Y-90178095D02*
X203811247Y-90130476D01*
X203811247Y-90130476D02*
X204049342Y-90130476D01*
X204049342Y-90130476D02*
X204144580Y-90178095D01*
X204144580Y-90178095D02*
X204192200Y-90225714D01*
X204192200Y-90225714D02*
X204239819Y-90320952D01*
X204239819Y-90320952D02*
X204239819Y-90559047D01*
X204239819Y-90559047D02*
X204192200Y-90654285D01*
X204192200Y-90654285D02*
X204144580Y-90701904D01*
X204239819Y-89654285D02*
X204239819Y-89463809D01*
X204239819Y-89463809D02*
X204192200Y-89368571D01*
X204192200Y-89368571D02*
X204144580Y-89320952D01*
X204144580Y-89320952D02*
X204001723Y-89225714D01*
X204001723Y-89225714D02*
X203811247Y-89178095D01*
X203811247Y-89178095D02*
X203430295Y-89178095D01*
X203430295Y-89178095D02*
X203335057Y-89225714D01*
X203335057Y-89225714D02*
X203287438Y-89273333D01*
X203287438Y-89273333D02*
X203239819Y-89368571D01*
X203239819Y-89368571D02*
X203239819Y-89559047D01*
X203239819Y-89559047D02*
X203287438Y-89654285D01*
X203287438Y-89654285D02*
X203335057Y-89701904D01*
X203335057Y-89701904D02*
X203430295Y-89749523D01*
X203430295Y-89749523D02*
X203668390Y-89749523D01*
X203668390Y-89749523D02*
X203763628Y-89701904D01*
X203763628Y-89701904D02*
X203811247Y-89654285D01*
X203811247Y-89654285D02*
X203858866Y-89559047D01*
X203858866Y-89559047D02*
X203858866Y-89368571D01*
X203858866Y-89368571D02*
X203811247Y-89273333D01*
X203811247Y-89273333D02*
X203763628Y-89225714D01*
X203763628Y-89225714D02*
X203668390Y-89178095D01*
X203239819Y-88273333D02*
X203239819Y-88749523D01*
X203239819Y-88749523D02*
X203716009Y-88797142D01*
X203716009Y-88797142D02*
X203668390Y-88749523D01*
X203668390Y-88749523D02*
X203620771Y-88654285D01*
X203620771Y-88654285D02*
X203620771Y-88416190D01*
X203620771Y-88416190D02*
X203668390Y-88320952D01*
X203668390Y-88320952D02*
X203716009Y-88273333D01*
X203716009Y-88273333D02*
X203811247Y-88225714D01*
X203811247Y-88225714D02*
X204049342Y-88225714D01*
X204049342Y-88225714D02*
X204144580Y-88273333D01*
X204144580Y-88273333D02*
X204192200Y-88320952D01*
X204192200Y-88320952D02*
X204239819Y-88416190D01*
X204239819Y-88416190D02*
X204239819Y-88654285D01*
X204239819Y-88654285D02*
X204192200Y-88749523D01*
X204192200Y-88749523D02*
X204144580Y-88797142D01*
D10*
D11*
X210285566Y-92186666D02*
X211078900Y-92186666D01*
X211078900Y-92186666D02*
X211172233Y-92140000D01*
X211172233Y-92140000D02*
X211218900Y-92093333D01*
X211218900Y-92093333D02*
X211265566Y-92000000D01*
X211265566Y-92000000D02*
X211265566Y-91813333D01*
X211265566Y-91813333D02*
X211218900Y-91720000D01*
X211218900Y-91720000D02*
X211172233Y-91673333D01*
X211172233Y-91673333D02*
X211078900Y-91626666D01*
X211078900Y-91626666D02*
X210285566Y-91626666D01*
X210378900Y-91206666D02*
X210332233Y-91159999D01*
X210332233Y-91159999D02*
X210285566Y-91066666D01*
X210285566Y-91066666D02*
X210285566Y-90833333D01*
X210285566Y-90833333D02*
X210332233Y-90739999D01*
X210332233Y-90739999D02*
X210378900Y-90693333D01*
X210378900Y-90693333D02*
X210472233Y-90646666D01*
X210472233Y-90646666D02*
X210565566Y-90646666D01*
X210565566Y-90646666D02*
X210705566Y-90693333D01*
X210705566Y-90693333D02*
X211265566Y-91253333D01*
X211265566Y-91253333D02*
X211265566Y-90646666D01*
D12*
%TO.P,SW17,1,1*%
%TO.N,Net-(U3-RESET)*%
X189810000Y-57860000D03*
X189810000Y-64060000D03*
%TO.P,SW17,2,2*%
%TO.N,GND*%
X186110000Y-57860000D03*
X186110000Y-64060000D03*
%TD*%
D13*
%TO.P,D43,1,K*%
%TO.N,Net-(D43-K)*%
X279640930Y-109164213D03*
D14*
X277733764Y-110178272D03*
%TO.P,D43,2,A*%
%TO.N,Col 11*%
X274820036Y-111727528D03*
D15*
X272912870Y-112741587D03*
%TD*%
D16*
%TO.P,D20,1,K*%
%TO.N,Net-(D20-K)*%
X150850657Y-145342400D03*
D17*
X148980042Y-144262400D03*
%TO.P,D20,2,A*%
%TO.N,Col 5*%
X146122158Y-142612400D03*
D15*
X144251543Y-141532400D03*
%TD*%
D16*
%TO.P,D18,1,K*%
%TO.N,Net-(D18-K)*%
X142198057Y-194329100D03*
D17*
X140327442Y-193249100D03*
%TO.P,D18,2,A*%
%TO.N,Col 5*%
X137469558Y-191599100D03*
D15*
X135598943Y-190519100D03*
%TD*%
D18*
%TO.P,R3,1*%
%TO.N,+3.3V*%
X181240000Y-78025000D03*
%TO.P,R3,2*%
%TO.N,Row 5*%
X181240000Y-76200000D03*
%TD*%
D19*
%TO.P,D3,1,K*%
%TO.N,Net-(D3-K)*%
X86028377Y-89078801D03*
D20*
X83941978Y-88519751D03*
%TO.P,D3,2,A*%
%TO.N,Col 1*%
X80754422Y-87665649D03*
D15*
X78668023Y-87106599D03*
%TD*%
D21*
%TO.P,D39,1,K*%
%TO.N,Net-(D39-K)*%
X287255833Y-76798724D03*
D22*
X285298208Y-77711580D03*
%TO.P,D39,2,A*%
%TO.N,Col 11*%
X282307392Y-79106220D03*
D15*
X280349767Y-80019076D03*
%TD*%
D23*
%TO.P,D50,1,K*%
%TO.N,Net-(D50-K)*%
X272039057Y-173915100D03*
D24*
X270168442Y-174995100D03*
%TO.P,D50,2,A*%
%TO.N,Col 13*%
X267310558Y-176645100D03*
D15*
X265439943Y-177725100D03*
%TD*%
D25*
%TO.P,_4,1*%
%TO.N,N/C*%
X149542158Y-199010000D03*
X150544049Y-198241223D03*
X149377323Y-200262051D03*
X151796100Y-198406058D03*
D26*
X150971100Y-199835000D03*
D25*
X150146100Y-201263942D03*
X152564877Y-199407949D03*
X151398151Y-201428777D03*
X152400042Y-200660000D03*
%TD*%
D27*
%TO.P,D31,1,K*%
%TO.N,Net-(D31-K)*%
X327722923Y-120193414D03*
D28*
X325734633Y-121037394D03*
%TO.P,D31,2,A*%
%TO.N,Col 9*%
X322696967Y-122326806D03*
D15*
X320708677Y-123170786D03*
%TD*%
D23*
%TO.P,D53,1,K*%
%TO.N,Net-(D53-K)*%
X246539057Y-129747800D03*
D24*
X244668442Y-130827800D03*
%TO.P,D53,2,A*%
%TO.N,Col 14*%
X241810558Y-132477800D03*
D15*
X239939943Y-133557800D03*
%TD*%
D18*
%TO.P,R4,1*%
%TO.N,+3.3V*%
X184190000Y-78025000D03*
%TO.P,R4,2*%
%TO.N,Row 4*%
X184190000Y-76200000D03*
%TD*%
D25*
%TO.P,_5,1*%
%TO.N,N/C*%
X327781222Y-65038151D03*
X327946058Y-63786100D03*
X328550000Y-66040042D03*
X328947949Y-63017322D03*
D26*
X329375000Y-64611100D03*
D25*
X329802051Y-66204878D03*
X330200000Y-63182158D03*
X330803942Y-65436100D03*
X330968778Y-64184049D03*
%TD*%
D23*
%TO.P,D54,1,K*%
%TO.N,Net-(D54-K)*%
X254628657Y-182779100D03*
D24*
X252758042Y-183859100D03*
%TO.P,D54,2,A*%
%TO.N,Col 14*%
X249900158Y-185509100D03*
D15*
X248029543Y-186589100D03*
%TD*%
D16*
%TO.P,D25,1,K*%
%TO.N,Net-(D25-K)*%
X169939057Y-148280300D03*
D17*
X168068442Y-147200300D03*
%TO.P,D25,2,A*%
%TO.N,Col 6*%
X165210558Y-145550300D03*
D15*
X163339943Y-144470300D03*
%TD*%
D16*
%TO.P,D26,1,K*%
%TO.N,Net-(D26-K)*%
X178439057Y-133557800D03*
D17*
X176568442Y-132477800D03*
%TO.P,D26,2,A*%
%TO.N,Col 6*%
X173710558Y-130827800D03*
D15*
X171839943Y-129747800D03*
%TD*%
D21*
%TO.P,D36,1,K*%
%TO.N,Net-(D36-K)*%
X308809333Y-123020424D03*
D22*
X306851708Y-123933280D03*
%TO.P,D36,2,A*%
%TO.N,Col 10*%
X303860892Y-125327920D03*
D15*
X301903267Y-126240776D03*
%TD*%
D25*
%TO.P,_7,1*%
%TO.N,N/C*%
X234791058Y-115552100D03*
X234626223Y-114300049D03*
X235792949Y-116320877D03*
X235395000Y-113298158D03*
D26*
X236220000Y-114727100D03*
D25*
X237045000Y-116156042D03*
X236647051Y-113133323D03*
X237813777Y-115154151D03*
X237648942Y-113902100D03*
%TD*%
D29*
%TO.P,D14,1,K*%
%TO.N,Net-(D14-K)*%
X129797435Y-142841004D03*
D30*
X127872861Y-141860384D03*
%TO.P,D14,2,A*%
%TO.N,Col 4*%
X124932539Y-140362216D03*
D15*
X123007965Y-139381596D03*
%TD*%
D31*
%TO.P,D7,1,K*%
%TO.N,Net-(D7-K)*%
X117094829Y-75801497D03*
D32*
X115065093Y-75062733D03*
%TO.P,D7,2,A*%
%TO.N,Col 2*%
X111964107Y-73934067D03*
D15*
X109934371Y-73195303D03*
%TD*%
D21*
%TO.P,D35,1,K*%
%TO.N,Net-(D35-K)*%
X305975033Y-157167624D03*
D22*
X304017408Y-158080480D03*
%TO.P,D35,2,A*%
%TO.N,Col 10*%
X301026592Y-159475120D03*
D15*
X299068967Y-160387976D03*
%TD*%
D18*
%TO.P,R6,1*%
%TO.N,+3.3V*%
X190090000Y-78025000D03*
%TO.P,R6,2*%
%TO.N,Row 2*%
X190090000Y-76200000D03*
%TD*%
D33*
%TO.P,D8,1,K*%
%TO.N,Net-(D8-K)*%
X119310133Y-160387976D03*
D34*
X117352508Y-159475120D03*
%TO.P,D8,2,A*%
%TO.N,Col 3*%
X114361692Y-158080480D03*
D15*
X112404067Y-157167624D03*
%TD*%
D35*
%TO.P,D5,1,K*%
%TO.N,Net-(D5-K)*%
X104420470Y-107494851D03*
D36*
X102417753Y-106685701D03*
%TO.P,D5,2,A*%
%TO.N,Col 2*%
X99358047Y-105449499D03*
D15*
X97355330Y-104640349D03*
%TD*%
D16*
%TO.P,D21,1,K*%
%TO.N,Net-(D21-K)*%
X159350657Y-130620000D03*
D17*
X157480042Y-129540000D03*
%TO.P,D21,2,A*%
%TO.N,Col 5*%
X154622158Y-127890000D03*
D15*
X152751543Y-126810000D03*
%TD*%
D23*
%TO.P,D46,1,K*%
%TO.N,Net-(D46-K)*%
X282627557Y-156254900D03*
D24*
X280756942Y-157334900D03*
%TO.P,D46,2,A*%
%TO.N,Col 12*%
X277899058Y-158984900D03*
D15*
X276028443Y-160064900D03*
%TD*%
D37*
%TO.P,D34,1,K*%
%TO.N,Net-(D34-K)*%
X308444629Y-73195303D03*
D38*
X306414893Y-73934067D03*
%TO.P,D34,2,A*%
%TO.N,Col 10*%
X303313907Y-75062733D03*
D15*
X301284171Y-75801497D03*
%TD*%
D39*
%TO.P,D6,1,K*%
%TO.N,Net-(D6-K)*%
X110895941Y-91703482D03*
D40*
X108879408Y-90929407D03*
%TO.P,D6,2,A*%
%TO.N,Col 2*%
X105798592Y-89746793D03*
D15*
X103782059Y-88972718D03*
%TD*%
D25*
%TO.P,_1,1*%
%TO.N,N/C*%
X83941222Y-64184049D03*
X84710000Y-63182158D03*
X84106058Y-65436100D03*
X85962051Y-63017322D03*
D26*
X85535000Y-64611100D03*
D25*
X85107949Y-66204878D03*
X86963942Y-63786100D03*
X86360000Y-66040042D03*
X87128778Y-65038151D03*
%TD*%
D23*
%TO.P,D47,1,K*%
%TO.N,Net-(D47-K)*%
X274127557Y-141532400D03*
D24*
X272256942Y-142612400D03*
%TO.P,D47,2,A*%
%TO.N,Col 12*%
X269399058Y-144262400D03*
D15*
X267528443Y-145342400D03*
%TD*%
D41*
%TO.P,U3,1,PA02_A0_D0*%
%TO.N,L_Joystick_Vert*%
X202725000Y-58420000D03*
%TO.P,U3,2,PA4_A1_D1*%
%TO.N,L_Joystick_Horz*%
X202725000Y-60960000D03*
%TO.P,U3,3,PA10_A2_D2*%
%TO.N,R_Joystick_Vert*%
X202725000Y-63500000D03*
%TO.P,U3,4,PA11_A3_D3*%
%TO.N,R_Joystick_Horz*%
X202725000Y-66040000D03*
%TO.P,U3,5,PA8_A4_D4_SDA*%
%TO.N,L_Joystick_Bttn*%
X202725000Y-68580000D03*
%TO.P,U3,6,PA9_A5_D5_SCL*%
%TO.N,R_Joystick_Bttn*%
X202725000Y-71120000D03*
%TO.P,U3,7,PB08_A6_D6_TX*%
%TO.N,Parallel*%
X202725000Y-73660000D03*
%TO.P,U3,8,PB09_A7_D7_RX*%
%TO.N,Shift Register_1*%
X218915000Y-73660000D03*
%TO.P,U3,9,PA7_A8_D8_SCK*%
%TO.N,SCK*%
X218915000Y-71120000D03*
%TO.P,U3,10,PA5_A9_D9_MISO*%
%TO.N,MISO*%
X218915000Y-68580000D03*
%TO.P,U3,11,PA6_A10_D10_MOSI*%
%TO.N,MOSI*%
X218915000Y-66040000D03*
%TO.P,U3,12,3V3*%
%TO.N,+3.3V*%
X218915000Y-63500000D03*
%TO.P,U3,13,GND*%
%TO.N,GND*%
X218915000Y-60960000D03*
%TO.P,U3,14,5V*%
%TO.N,unconnected-(U3-5V-Pad14)*%
X218915000Y-58420000D03*
D42*
%TO.P,U3,15,RESET*%
%TO.N,Net-(U3-RESET)*%
X209550000Y-57468000D03*
%TO.P,U3,16,BAT+*%
%TO.N,+3.3V*%
X212090000Y-57468000D03*
%TO.P,U3,17*%
%TO.N,N/C*%
X209550000Y-60008000D03*
%TO.P,U3,18*%
X212090000Y-60008000D03*
%TO.P,U3,19*%
X206375000Y-65723000D03*
%TO.P,U3,20*%
X206375000Y-63818000D03*
%TD*%
D23*
%TO.P,D51,1,K*%
%TO.N,Net-(D51-K)*%
X263539057Y-159192700D03*
D24*
X261668442Y-160272700D03*
%TO.P,D51,2,A*%
%TO.N,Col 13*%
X258810558Y-161922700D03*
D15*
X256939943Y-163002700D03*
%TD*%
D18*
%TO.P,R2,1*%
%TO.N,+3.3V*%
X178290000Y-78025000D03*
%TO.P,R2,2*%
%TO.N,R_Joystick_Bttn*%
X178290000Y-76200000D03*
%TD*%
D43*
%TO.P,U7,1,~{PL}*%
%TO.N,Parallel*%
X208345000Y-112395000D03*
%TO.P,U7,2,CP*%
%TO.N,SCK*%
X208345000Y-113665000D03*
%TO.P,U7,3,D4*%
%TO.N,Row 5*%
X208345000Y-114935000D03*
%TO.P,U7,4,D5*%
%TO.N,unconnected-(U7-D5-Pad4)*%
X208345000Y-116205000D03*
%TO.P,U7,5,D6*%
%TO.N,unconnected-(U7-D6-Pad5)*%
X208345000Y-117475000D03*
%TO.P,U7,6,D7*%
%TO.N,unconnected-(U7-D7-Pad6)*%
X208345000Y-118745000D03*
%TO.P,U7,7,~{Q7}*%
%TO.N,MISO*%
X208345000Y-120015000D03*
%TO.P,U7,8,GND*%
%TO.N,GND*%
X208345000Y-121285000D03*
%TO.P,U7,9,Q7*%
%TO.N,unconnected-(U7-Q7-Pad9)*%
X213295000Y-121285000D03*
%TO.P,U7,10,DS*%
%TO.N,GND*%
X213295000Y-120015000D03*
%TO.P,U7,11,D0*%
%TO.N,Row 1*%
X213295000Y-118745000D03*
%TO.P,U7,12,D1*%
%TO.N,Row 2*%
X213295000Y-117475000D03*
%TO.P,U7,13,D2*%
%TO.N,Row 3*%
X213295000Y-116205000D03*
%TO.P,U7,14,D3*%
%TO.N,Row 4*%
X213295000Y-114935000D03*
%TO.P,U7,15,~{CE}*%
%TO.N,GND*%
X213295000Y-113665000D03*
%TO.P,U7,16,VCC*%
%TO.N,+3.3V*%
X213295000Y-112395000D03*
%TD*%
D13*
%TO.P,D40,1,K*%
%TO.N,Net-(D40-K)*%
X293998230Y-173560913D03*
D14*
X292091064Y-174574972D03*
%TO.P,D40,2,A*%
%TO.N,Col 11*%
X289177336Y-176124228D03*
D15*
X287270170Y-177138287D03*
%TD*%
D21*
%TO.P,D38,1,K*%
%TO.N,Net-(D38-K)*%
X294440333Y-92205924D03*
D22*
X292482708Y-93118780D03*
%TO.P,D38,2,A*%
%TO.N,Col 10*%
X289491892Y-94513420D03*
D15*
X287534267Y-95426276D03*
%TD*%
D44*
%TO.P,U6,B1A,SEL+*%
%TO.N,R_Joystick_Bttn*%
X227965000Y-144780000D03*
%TO.P,U6,B1B*%
%TO.N,N/C*%
X234315000Y-144780000D03*
%TO.P,U6,B2A,SEL-*%
%TO.N,GND*%
X227965000Y-149860000D03*
%TO.P,U6,B2B*%
%TO.N,N/C*%
X234315000Y-149860000D03*
%TO.P,U6,H1,H+*%
%TO.N,R_Joystick_Bttn*%
X228600000Y-167640000D03*
%TO.P,U6,H2,H*%
%TO.N,R_Joystick_Horz*%
X231140000Y-167640000D03*
%TO.P,U6,H3,H-*%
%TO.N,GND*%
X233680000Y-167640000D03*
D45*
%TO.P,U6,S1,SHIELD*%
X223520000Y-150812500D03*
%TO.P,U6,S2,SHIELD*%
X223520000Y-164147500D03*
%TO.P,U6,S3,SHIELD*%
X238760000Y-164147500D03*
%TO.P,U6,S4,SHIELD*%
X238760000Y-150812500D03*
D44*
%TO.P,U6,V1,V+*%
%TO.N,R_Joystick_Bttn*%
X220980000Y-154940000D03*
%TO.P,U6,V2,V*%
%TO.N,R_Joystick_Vert*%
X220980000Y-157480000D03*
%TO.P,U6,V3,V-*%
%TO.N,GND*%
X220980000Y-160020000D03*
%TD*%
D46*
%TO.P,D1,1,K*%
%TO.N,Net-(D1-K)*%
X76164421Y-121756136D03*
D47*
X74098803Y-121124613D03*
%TO.P,D1,2,A*%
%TO.N,Col 1*%
X70942997Y-120159787D03*
D15*
X68877379Y-119528264D03*
%TD*%
D16*
%TO.P,D22,1,K*%
%TO.N,Net-(D22-K)*%
X167850657Y-115897600D03*
D17*
X165980042Y-114817600D03*
%TO.P,D22,2,A*%
%TO.N,Col 6*%
X163122158Y-113167600D03*
D15*
X161251543Y-112087600D03*
%TD*%
D29*
%TO.P,D16,1,K*%
%TO.N,Net-(D16-K)*%
X145496935Y-112682604D03*
D30*
X143572361Y-111701984D03*
%TO.P,D16,2,A*%
%TO.N,Col 4*%
X140632039Y-110203816D03*
D15*
X138707465Y-109223196D03*
%TD*%
D48*
%TO.P,D30,1,K*%
%TO.N,Net-(D30-K)*%
X339710977Y-87106599D03*
D49*
X337624578Y-87665649D03*
%TO.P,D30,2,A*%
%TO.N,Col 9*%
X334437022Y-88519751D03*
D15*
X332350623Y-89078801D03*
%TD*%
D50*
%TO.P,D33,1,K*%
%TO.N,Net-(D33-K)*%
X314596941Y-88972718D03*
D51*
X312580408Y-89746793D03*
%TO.P,D33,2,A*%
%TO.N,Col 9*%
X309499592Y-90929407D03*
D15*
X307483059Y-91703482D03*
%TD*%
D25*
%TO.P,_3,1*%
%TO.N,N/C*%
X179857258Y-113902100D03*
X180859149Y-113133323D03*
X179692423Y-115154151D03*
X182111200Y-113298158D03*
D26*
X181286200Y-114727100D03*
D25*
X180461200Y-116156042D03*
X182879977Y-114300049D03*
X181713251Y-116320877D03*
X182715142Y-115552100D03*
%TD*%
D52*
%TO.P,D2,1,K*%
%TO.N,Net-(D2-K)*%
X81239007Y-105460478D03*
D53*
X79162682Y-104865102D03*
%TO.P,D2,2,A*%
%TO.N,Col 1*%
X75990518Y-103955498D03*
D15*
X73914193Y-103360122D03*
%TD*%
D29*
%TO.P,D15,1,K*%
%TO.N,Net-(D15-K)*%
X137647135Y-127761804D03*
D30*
X135722561Y-126781184D03*
%TO.P,D15,2,A*%
%TO.N,Col 4*%
X132782239Y-125283016D03*
D15*
X130857665Y-124302396D03*
%TD*%
D16*
%TO.P,D23,1,K*%
%TO.N,Net-(D23-K)*%
X152939057Y-177725100D03*
D17*
X151068442Y-176645100D03*
%TO.P,D23,2,A*%
%TO.N,Col 6*%
X148210558Y-174995100D03*
D15*
X146339943Y-173915100D03*
%TD*%
D21*
%TO.P,D37,1,K*%
%TO.N,Net-(D37-K)*%
X301624833Y-107613224D03*
D22*
X299667208Y-108526080D03*
%TO.P,D37,2,A*%
%TO.N,Col 10*%
X296676392Y-109920720D03*
D15*
X294718767Y-110833576D03*
%TD*%
D23*
%TO.P,D52,1,K*%
%TO.N,Net-(D52-K)*%
X255039057Y-144470300D03*
D24*
X253168442Y-145550300D03*
%TO.P,D52,2,A*%
%TO.N,Col 14*%
X250310558Y-147200300D03*
D15*
X248439943Y-148280300D03*
%TD*%
D33*
%TO.P,D10,1,K*%
%TO.N,Net-(D10-K)*%
X123660233Y-110833576D03*
D34*
X121702608Y-109920720D03*
%TO.P,D10,2,A*%
%TO.N,Col 3*%
X118711792Y-108526080D03*
D15*
X116754167Y-107613224D03*
%TD*%
D18*
%TO.P,R1,1*%
%TO.N,+3.3V*%
X175340000Y-78025000D03*
%TO.P,R1,2*%
%TO.N,L_Joystick_Bttn*%
X175340000Y-76200000D03*
%TD*%
D23*
%TO.P,D49,1,K*%
%TO.N,Net-(D49-K)*%
X257127557Y-112087600D03*
D24*
X255256942Y-113167600D03*
%TO.P,D49,2,A*%
%TO.N,Col 13*%
X252399058Y-114817600D03*
D15*
X250528443Y-115897600D03*
%TD*%
D25*
%TO.P,_6,1*%
%TO.N,N/C*%
X303899267Y-133734806D03*
X303888247Y-132471999D03*
X304799999Y-134619953D03*
X304773394Y-131571267D03*
D26*
X305418100Y-133090100D03*
D25*
X306062806Y-134608933D03*
X306036201Y-131560247D03*
X306947953Y-133708201D03*
X306936933Y-132445394D03*
%TD*%
D54*
%TO.P,D28,1,K*%
%TO.N,Net-(D28-K)*%
X349501621Y-119528264D03*
D55*
X347436003Y-120159787D03*
%TO.P,D28,2,A*%
%TO.N,Col 8*%
X344280197Y-121124613D03*
D15*
X342214579Y-121756136D03*
%TD*%
D16*
%TO.P,D27,1,K*%
%TO.N,Net-(D27-K)*%
X170935157Y-186664300D03*
D17*
X169064542Y-185584300D03*
%TO.P,D27,2,A*%
%TO.N,Col 7*%
X166206658Y-183934300D03*
D15*
X164336043Y-182854300D03*
%TD*%
D16*
%TO.P,D19,1,K*%
%TO.N,Net-(D19-K)*%
X142350657Y-160064900D03*
D17*
X140480042Y-158984900D03*
%TO.P,D19,2,A*%
%TO.N,Col 5*%
X137622158Y-157334900D03*
D15*
X135751543Y-156254900D03*
%TD*%
D29*
%TO.P,D17,1,K*%
%TO.N,Net-(D17-K)*%
X153346635Y-97603404D03*
D30*
X151422061Y-96622784D03*
%TO.P,D17,2,A*%
%TO.N,Col 5*%
X148481739Y-95124616D03*
D15*
X146557165Y-94143996D03*
%TD*%
D56*
%TO.P,D29,1,K*%
%TO.N,Net-(D29-K)*%
X344464907Y-103360122D03*
D57*
X342388582Y-103955498D03*
%TO.P,D29,2,A*%
%TO.N,Col 9*%
X339216418Y-104865102D03*
D15*
X337140093Y-105460478D03*
%TD*%
D58*
%TO.P,D32,1,K*%
%TO.N,Net-(D32-K)*%
X321023770Y-104640349D03*
D59*
X319021053Y-105449499D03*
%TO.P,D32,2,A*%
%TO.N,Col 9*%
X315961347Y-106685701D03*
D15*
X313958630Y-107494851D03*
%TD*%
D25*
%TO.P,_8,1*%
%TO.N,N/C*%
X265271058Y-200660000D03*
X265106223Y-199407949D03*
X266272949Y-201428777D03*
X265875000Y-198406058D03*
D26*
X266700000Y-199835000D03*
D25*
X267525000Y-201263942D03*
X267127051Y-198241223D03*
X268293777Y-200262051D03*
X268128942Y-199010000D03*
%TD*%
D33*
%TO.P,D12,1,K*%
%TO.N,Net-(D12-K)*%
X138029333Y-80019076D03*
D34*
X136071708Y-79106220D03*
%TO.P,D12,2,A*%
%TO.N,Col 4*%
X133080892Y-77711580D03*
D15*
X131123267Y-76798724D03*
%TD*%
D44*
%TO.P,U5,B1A,SEL+*%
%TO.N,L_Joystick_Bttn*%
X184785000Y-144780000D03*
%TO.P,U5,B1B*%
%TO.N,N/C*%
X191135000Y-144780000D03*
%TO.P,U5,B2A,SEL-*%
%TO.N,GND*%
X184785000Y-149860000D03*
%TO.P,U5,B2B*%
%TO.N,N/C*%
X191135000Y-149860000D03*
%TO.P,U5,H1,H+*%
%TO.N,L_Joystick_Bttn*%
X185420000Y-167640000D03*
%TO.P,U5,H2,H*%
%TO.N,L_Joystick_Horz*%
X187960000Y-167640000D03*
%TO.P,U5,H3,H-*%
%TO.N,GND*%
X190500000Y-167640000D03*
D45*
%TO.P,U5,S1,SHIELD*%
X180340000Y-150812500D03*
%TO.P,U5,S2,SHIELD*%
X180340000Y-164147500D03*
%TO.P,U5,S3,SHIELD*%
X195580000Y-164147500D03*
%TO.P,U5,S4,SHIELD*%
X195580000Y-150812500D03*
D44*
%TO.P,U5,V1,V+*%
%TO.N,L_Joystick_Bttn*%
X177800000Y-154940000D03*
%TO.P,U5,V2,V*%
%TO.N,L_Joystick_Vert*%
X177800000Y-157480000D03*
%TO.P,U5,V3,V-*%
%TO.N,GND*%
X177800000Y-160020000D03*
%TD*%
D23*
%TO.P,D48,1,K*%
%TO.N,Net-(D48-K)*%
X265627557Y-126810000D03*
D24*
X263756942Y-127890000D03*
%TO.P,D48,2,A*%
%TO.N,Col 13*%
X260899058Y-129540000D03*
D15*
X259028443Y-130620000D03*
%TD*%
D13*
%TO.P,D44,1,K*%
%TO.N,Net-(D44-K)*%
X271791230Y-94085013D03*
D14*
X269884064Y-95099072D03*
%TO.P,D44,2,A*%
%TO.N,Col 12*%
X266970336Y-96648328D03*
D15*
X265063170Y-97662387D03*
%TD*%
D25*
%TO.P,_2,1*%
%TO.N,N/C*%
X111251267Y-132445394D03*
X112151999Y-131560247D03*
X111240247Y-133708201D03*
X113414806Y-131571267D03*
D26*
X112770100Y-133090100D03*
D25*
X112125394Y-134608933D03*
X114299953Y-132471999D03*
X113388201Y-134619953D03*
X114288933Y-133734806D03*
%TD*%
D60*
%TO.P,D4,1,K*%
%TO.N,Net-(D4-K)*%
X97670323Y-123170786D03*
D61*
X95682033Y-122326806D03*
%TO.P,D4,2,A*%
%TO.N,Col 2*%
X92644367Y-121037394D03*
D15*
X90656077Y-120193414D03*
%TD*%
D23*
%TO.P,D45,1,K*%
%TO.N,Net-(D45-K)*%
X282780057Y-190519100D03*
D24*
X280909442Y-191599100D03*
%TO.P,D45,2,A*%
%TO.N,Col 12*%
X278051558Y-193249100D03*
D15*
X276180943Y-194329100D03*
%TD*%
D18*
%TO.P,R5,1*%
%TO.N,+3.3V*%
X187140000Y-78025000D03*
%TO.P,R5,2*%
%TO.N,Row 3*%
X187140000Y-76200000D03*
%TD*%
%TO.P,R7,1*%
%TO.N,+3.3V*%
X193040000Y-78025000D03*
%TO.P,R7,2*%
%TO.N,Row 1*%
X193040000Y-76200000D03*
%TD*%
D13*
%TO.P,D41,1,K*%
%TO.N,Net-(D41-K)*%
X295340330Y-139322613D03*
D14*
X293433164Y-140336672D03*
%TO.P,D41,2,A*%
%TO.N,Col 11*%
X290519436Y-141885928D03*
D15*
X288612270Y-142899987D03*
%TD*%
D33*
%TO.P,D11,1,K*%
%TO.N,Net-(D11-K)*%
X130844833Y-95426276D03*
D34*
X128887208Y-94513420D03*
%TO.P,D11,2,A*%
%TO.N,Col 3*%
X125896392Y-93118780D03*
D15*
X123938767Y-92205924D03*
%TD*%
D13*
%TO.P,D42,1,K*%
%TO.N,Net-(D42-K)*%
X287490630Y-124243413D03*
D14*
X285583464Y-125257472D03*
%TO.P,D42,2,A*%
%TO.N,Col 11*%
X282669736Y-126806728D03*
D15*
X280762570Y-127820787D03*
%TD*%
D33*
%TO.P,D9,1,K*%
%TO.N,Net-(D9-K)*%
X116475733Y-126240776D03*
D34*
X114518108Y-125327920D03*
%TO.P,D9,2,A*%
%TO.N,Col 3*%
X111527292Y-123933280D03*
D15*
X109569667Y-123020424D03*
%TD*%
D29*
%TO.P,D13,1,K*%
%TO.N,Net-(D13-K)*%
X131139635Y-177079304D03*
D30*
X129215061Y-176098684D03*
%TO.P,D13,2,A*%
%TO.N,Col 4*%
X126274739Y-174600516D03*
D15*
X124350165Y-173619896D03*
%TD*%
D16*
%TO.P,D24,1,K*%
%TO.N,Net-(D24-K)*%
X161439057Y-163002700D03*
D17*
X159568442Y-161922700D03*
%TO.P,D24,2,A*%
%TO.N,Col 6*%
X156710558Y-160272700D03*
D15*
X154839943Y-159192700D03*
%TD*%
D62*
%TO.N,GND*%
X206439000Y-111253100D03*
X186404200Y-65762100D03*
X207105900Y-62196600D03*
X217601300Y-112309100D03*
X206189500Y-120716700D03*
%TO.N,Col 1*%
X188094600Y-87361100D03*
%TO.N,Col 2*%
X184150000Y-95471900D03*
%TO.N,Col 3*%
X185349800Y-97675600D03*
X112536500Y-111697600D03*
%TO.N,Col 4*%
X129067900Y-77711600D03*
X185937300Y-105572100D03*
X124244800Y-125095200D03*
%TO.N,Col 5*%
X185936600Y-96176700D03*
%TO.N,Col 6*%
X166034500Y-130956400D03*
%TO.N,Col 8*%
X180770600Y-104265800D03*
%TO.N,Col 9*%
X217765900Y-87740800D03*
%TO.N,Col 10*%
X216327000Y-98022800D03*
%TO.N,Col 11*%
X290304900Y-145967600D03*
X274496000Y-96250200D03*
X216469200Y-94091200D03*
%TO.N,Net-(D43-K)*%
X270061800Y-107573700D03*
%TO.N,Col 12*%
X213378900Y-96832500D03*
X272795800Y-159534400D03*
%TO.N,Net-(D46-K)*%
X276041000Y-156894300D03*
%TO.N,Col 13*%
X213369800Y-108561200D03*
%TO.N,Net-(D49-K)*%
X248064900Y-108632600D03*
%TO.N,Net-(D51-K)*%
X254265500Y-156586400D03*
%TO.N,+3.3V*%
X189243400Y-84662800D03*
X213312100Y-80951100D03*
X207623000Y-80799700D03*
X240732500Y-113117300D03*
%TO.N,L_Joystick_Bttn*%
X199273200Y-69141500D03*
X186006600Y-152687000D03*
%TO.N,R_Joystick_Bttn*%
X214635800Y-71733400D03*
%TO.N,Row 5*%
X280318900Y-84771800D03*
X189243400Y-118478500D03*
X186590300Y-119816900D03*
X192539100Y-72985700D03*
X164595900Y-118310200D03*
%TO.N,Row 4*%
X271707600Y-114004000D03*
X265373500Y-142154800D03*
X297719900Y-107577300D03*
X172267300Y-131347400D03*
X137960000Y-84730300D03*
X269812200Y-141321800D03*
X271707600Y-115719100D03*
X289523700Y-112106300D03*
X164535700Y-132685200D03*
X149030500Y-128381900D03*
X185367300Y-112737700D03*
%TO.N,Row 3*%
X151391000Y-152262700D03*
X185253500Y-172580200D03*
X192098100Y-113773400D03*
X164986600Y-154489800D03*
X305257300Y-123259900D03*
X300194000Y-123378700D03*
X188615000Y-76368700D03*
X251890000Y-171608900D03*
%TO.N,Row 2*%
X110600800Y-96681100D03*
X253081800Y-77720800D03*
X246301000Y-116919000D03*
X301762900Y-129257100D03*
X93485800Y-96779700D03*
X339970400Y-75576300D03*
X128411900Y-112341900D03*
X253081800Y-75601700D03*
%TO.N,Row 1*%
X169723300Y-117569700D03*
X119785900Y-116071300D03*
X180864100Y-74216600D03*
X249234400Y-120716700D03*
%TO.N,Net-(U1-QH')*%
X213648600Y-91104200D03*
X182350300Y-91871000D03*
%TO.N,SCK*%
X208597500Y-87055900D03*
X190448500Y-87397700D03*
X201597700Y-87055900D03*
X204478200Y-114419900D03*
%TO.N,Shift Register_1*%
X210431400Y-87144300D03*
X191495400Y-90147400D03*
%TO.N,MOSI*%
X192397600Y-66806700D03*
%TO.N,Net-(U2-QH')*%
X237501400Y-91867400D03*
X207045200Y-91065400D03*
%TO.N,MISO*%
X205927000Y-119519300D03*
X200751700Y-75710200D03*
%TO.N,Parallel*%
X206101100Y-113253900D03*
%TD*%
D63*
%TO.N,GND*%
X196231200Y-65762100D02*
X199796700Y-62196600D01*
X186110000Y-64060000D02*
X186110000Y-57860000D01*
X217213100Y-60960000D02*
X215976500Y-62196600D01*
X186404200Y-65762100D02*
X186110000Y-65467900D01*
X210699500Y-121285000D02*
X208345000Y-121285000D01*
X218440000Y-60960000D02*
X217213100Y-60960000D01*
X181292500Y-149860000D02*
X180340000Y-150812500D01*
X223520000Y-150812500D02*
X227012500Y-150812500D01*
X184785000Y-149860000D02*
X181292500Y-149860000D01*
X212865200Y-113665000D02*
X210453300Y-111253100D01*
X206189500Y-120716700D02*
X207776700Y-120716700D01*
X227965000Y-149860000D02*
X229221200Y-151116200D01*
X207776700Y-120716700D02*
X208345000Y-121285000D01*
X213295000Y-113665000D02*
X212865200Y-113665000D01*
X213295000Y-120015000D02*
X211969500Y-120015000D01*
X227012500Y-150812500D02*
X227965000Y-149860000D01*
X210453300Y-111253100D02*
X206439000Y-111253100D01*
X186404200Y-65762100D02*
X196231200Y-65762100D01*
X186110000Y-65467900D02*
X186110000Y-64060000D01*
X211969500Y-120015000D02*
X210699500Y-121285000D01*
X217601300Y-112309100D02*
X217332600Y-112577800D01*
X199796700Y-62196600D02*
X207105900Y-62196600D01*
X195580000Y-150812500D02*
X195300200Y-151092300D01*
X238456300Y-151116200D02*
X238760000Y-150812500D01*
X238760000Y-164147500D02*
X223520000Y-164147500D01*
X216245400Y-113665000D02*
X213295000Y-113665000D01*
X195580000Y-164147500D02*
X223520000Y-164147500D01*
X195300200Y-151092300D02*
X186017300Y-151092300D01*
X217601300Y-112309100D02*
X216245400Y-113665000D01*
X215976500Y-62196600D02*
X207105900Y-62196600D01*
X229221200Y-151116200D02*
X238456300Y-151116200D01*
X217332600Y-112577800D02*
X217601300Y-112309100D01*
X186017300Y-151092300D02*
X184785000Y-149860000D01*
%TO.N,Col 1*%
X80754400Y-87665600D02*
X79764100Y-87400300D01*
X78668000Y-87106600D02*
X78961700Y-87400300D01*
X126653300Y-88321100D02*
X129024600Y-85949800D01*
X75990500Y-103955500D02*
X74988200Y-103668100D01*
X151326700Y-85753200D02*
X153709400Y-88135900D01*
X74988200Y-103668200D02*
X74222300Y-103668200D01*
X69929000Y-119849800D02*
X69198900Y-119849800D01*
X80137300Y-87263000D02*
X80808500Y-86591800D01*
X111894100Y-87935900D02*
X113710000Y-86120000D01*
X69198900Y-119849800D02*
X68877400Y-119528300D01*
X79901400Y-87263000D02*
X80137300Y-87263000D01*
X129024600Y-85949800D02*
X133993100Y-85949800D01*
X105412700Y-87866700D02*
X105651700Y-87866700D01*
X79764100Y-87400300D02*
X79901400Y-87263000D01*
X134189700Y-85753200D02*
X151326700Y-85753200D01*
X78961700Y-87400300D02*
X79764100Y-87400300D01*
X114892900Y-86120000D02*
X117094000Y-88321100D01*
X105651700Y-87866700D02*
X105720900Y-87935900D01*
X113710000Y-86120000D02*
X114892900Y-86120000D01*
X74988200Y-103668100D02*
X74988200Y-103668200D01*
X117094000Y-88321100D02*
X126653300Y-88321100D01*
X80808500Y-86591800D02*
X104137800Y-86591800D01*
X153709400Y-88135900D02*
X187319800Y-88135900D01*
X104137800Y-86591800D02*
X105412700Y-87866700D01*
X133993100Y-85949800D02*
X134189700Y-85753200D01*
X70943000Y-120159800D02*
X69929000Y-119849800D01*
X187319800Y-88135900D02*
X188094600Y-87361100D01*
X74222300Y-103668200D02*
X73914200Y-103360100D01*
X105720900Y-87935900D02*
X111894100Y-87935900D01*
%TO.N,Net-(D1-K)*%
X75842900Y-121434600D02*
X76164400Y-121756100D01*
X74098800Y-121124600D02*
X75112800Y-121434600D01*
X75112800Y-121434600D02*
X75842900Y-121434600D01*
%TO.N,Net-(D2-K)*%
X80165000Y-105152400D02*
X80930900Y-105152400D01*
X79162700Y-104865100D02*
X80165000Y-105152500D01*
X80930900Y-105152400D02*
X81239000Y-105460500D01*
X80165000Y-105152500D02*
X80165000Y-105152400D01*
%TO.N,Net-(D3-K)*%
X84102000Y-88679800D02*
X83942000Y-88519800D01*
X84539200Y-88679800D02*
X84102000Y-88679800D01*
X86028400Y-89078800D02*
X84539200Y-88679800D01*
%TO.N,Col 2*%
X91584500Y-120587600D02*
X91050300Y-120587600D01*
X98290400Y-105018100D02*
X98290400Y-105018200D01*
X109934400Y-73195300D02*
X110559300Y-73195300D01*
X110916900Y-73552900D02*
X110916900Y-73553000D01*
X154973700Y-94060300D02*
X149002600Y-94060300D01*
X99358000Y-105449500D02*
X98290400Y-105018200D01*
X111964100Y-73934100D02*
X110916900Y-73553000D01*
X105798600Y-89746800D02*
X104741100Y-89340800D01*
X104150300Y-89340900D02*
X103782100Y-88972700D01*
X104741100Y-89340900D02*
X104150300Y-89340900D01*
X97355300Y-104640300D02*
X97912600Y-104640300D01*
X135865100Y-92970200D02*
X128458700Y-92970200D01*
X149002600Y-94060300D02*
X147751200Y-92808900D01*
X105798600Y-89746800D02*
X106856100Y-90152800D01*
X128458700Y-92970200D02*
X125336700Y-89848200D01*
X136026400Y-92808900D02*
X135865100Y-92970200D01*
X110559300Y-73195300D02*
X110916900Y-73552900D01*
X125336700Y-89848200D02*
X107160600Y-89848200D01*
X91050300Y-120587600D02*
X90656100Y-120193400D01*
X184150000Y-95471900D02*
X156385300Y-95471900D01*
X97912600Y-104640300D02*
X98290400Y-105018100D01*
X107160600Y-89848200D02*
X106856100Y-90152700D01*
X104741100Y-89340800D02*
X104741100Y-89340900D01*
X156385300Y-95471900D02*
X154973700Y-94060300D01*
X147751200Y-92808900D02*
X136026400Y-92808900D01*
X92644400Y-121037400D02*
X91584500Y-120587600D01*
X106856100Y-90152700D02*
X106856100Y-90152800D01*
%TO.N,Net-(D4-K)*%
X97276100Y-122776600D02*
X97670300Y-123170800D01*
X96741900Y-122776600D02*
X97276100Y-122776600D01*
X95682000Y-122326800D02*
X96741900Y-122776600D01*
%TO.N,Net-(D5-K)*%
X102837600Y-106855400D02*
X102587500Y-106855400D01*
X102587500Y-106855400D02*
X102417800Y-106685700D01*
X104420500Y-107494900D02*
X102837600Y-106855400D01*
%TO.N,Net-(D6-K)*%
X109050500Y-91100500D02*
X108879400Y-90929400D01*
X109325000Y-91100500D02*
X109050500Y-91100500D01*
X109325000Y-91100400D02*
X109325000Y-91100500D01*
X110895900Y-91703500D02*
X109325000Y-91100400D01*
%TO.N,Net-(D7-K)*%
X115536300Y-75234300D02*
X115236700Y-75234300D01*
X115236700Y-75234300D02*
X115065100Y-75062700D01*
X117094800Y-75801500D02*
X115536300Y-75234300D01*
%TO.N,Col 3*%
X118711800Y-108526100D02*
X117701800Y-108055200D01*
X114361700Y-158080500D02*
X113351700Y-157609600D01*
X118711800Y-108526100D02*
X118200600Y-109622500D01*
X124886400Y-92647900D02*
X124380800Y-92647900D01*
X125896400Y-93118800D02*
X124886400Y-92647900D01*
X118200600Y-109622500D02*
X118200500Y-109622400D01*
X150930800Y-95557000D02*
X150271000Y-96216800D01*
X134181900Y-96216800D02*
X131402600Y-93437500D01*
X131402600Y-93437500D02*
X127058500Y-93437500D01*
X185550500Y-97675600D02*
X185349800Y-97675600D01*
X153628000Y-95557000D02*
X150930800Y-95557000D01*
X185349800Y-97675600D02*
X185550500Y-97675600D01*
X185349800Y-97675600D02*
X155746600Y-97675600D01*
X117701800Y-108055200D02*
X117196200Y-108055200D01*
X112846100Y-157609600D02*
X112404100Y-157167600D01*
X113351700Y-157609600D02*
X112846100Y-157609600D01*
X125896400Y-93118800D02*
X126906300Y-93589700D01*
X109569700Y-123020400D02*
X110075300Y-123020400D01*
X117615500Y-109622400D02*
X115540300Y-111697600D01*
X150271000Y-96216800D02*
X134181900Y-96216800D01*
X115540300Y-111697600D02*
X112536500Y-111697600D01*
X118200500Y-109622400D02*
X117615500Y-109622400D01*
X110075300Y-123020400D02*
X110517300Y-123462400D01*
X155746600Y-97675600D02*
X153628000Y-95557000D01*
X117196200Y-108055200D02*
X116754200Y-107613200D01*
X124380800Y-92647900D02*
X123938800Y-92205900D01*
X127058500Y-93437500D02*
X126906300Y-93589700D01*
X111527300Y-123933300D02*
X110517300Y-123462400D01*
%TO.N,Net-(D8-K)*%
X119310100Y-160388000D02*
X117807000Y-159687100D01*
X117807000Y-159687100D02*
X117806900Y-159687200D01*
X117806900Y-159687200D02*
X117564600Y-159687200D01*
X117564600Y-159687200D02*
X117352500Y-159475100D01*
%TO.N,Net-(D9-K)*%
X116033700Y-125798800D02*
X116475700Y-126240800D01*
X114518100Y-125327900D02*
X115528100Y-125798800D01*
X115528100Y-125798800D02*
X116033700Y-125798800D01*
%TO.N,Net-(D10-K)*%
X123218200Y-110391600D02*
X123660200Y-110833600D01*
X121702600Y-109920700D02*
X122712600Y-110391600D01*
X122712600Y-110391600D02*
X123218200Y-110391600D01*
%TO.N,Net-(D11-K)*%
X129897200Y-94984300D02*
X130402800Y-94984300D01*
X130402800Y-94984300D02*
X130844800Y-95426300D01*
X128887200Y-94513400D02*
X129897200Y-94984300D01*
%TO.N,Col 4*%
X126274700Y-174600500D02*
X125314100Y-174111100D01*
X140632000Y-110203800D02*
X141592600Y-110693300D01*
X133080900Y-77711600D02*
X132070900Y-77240700D01*
X165251900Y-106508100D02*
X161391700Y-110368300D01*
X138707500Y-109223200D02*
X139180200Y-109223200D01*
X161391700Y-110368300D02*
X141917600Y-110368300D01*
X185001300Y-106508100D02*
X165251900Y-106508100D01*
X131348900Y-124793600D02*
X131821600Y-124793600D01*
X124244800Y-125095200D02*
X130064900Y-125095200D01*
X185937300Y-105572100D02*
X185001300Y-106508100D01*
X124932500Y-140362200D02*
X123971900Y-139872800D01*
X123499200Y-139872800D02*
X123008000Y-139381600D01*
X140632000Y-110203800D02*
X139671400Y-109714400D01*
X130064900Y-125095200D02*
X130857700Y-124302400D01*
X141917600Y-110368300D02*
X141592600Y-110693300D01*
X130210400Y-77711600D02*
X129067900Y-77711600D01*
X131123300Y-76798700D02*
X130210400Y-77711600D01*
X139180200Y-109223200D02*
X139671400Y-109714400D01*
X123971900Y-139872800D02*
X123499200Y-139872800D01*
X130857700Y-124302400D02*
X131348900Y-124793600D01*
X124822900Y-173619900D02*
X125314100Y-174111100D01*
X124350200Y-173619900D02*
X124822900Y-173619900D01*
X132782200Y-125283000D02*
X131821600Y-124793600D01*
X132070900Y-77240700D02*
X131565300Y-77240700D01*
X131565300Y-77240700D02*
X131123300Y-76798700D01*
%TO.N,Net-(D12-K)*%
X137587300Y-79577100D02*
X138029300Y-80019100D01*
X136071700Y-79106200D02*
X137081700Y-79577100D01*
X137081700Y-79577100D02*
X137587300Y-79577100D01*
%TO.N,Net-(D13-K)*%
X129215100Y-176098700D02*
X130175700Y-176588100D01*
X130175700Y-176588100D02*
X130648400Y-176588100D01*
X130648400Y-176588100D02*
X131139600Y-177079300D01*
%TO.N,Net-(D14-K)*%
X129306200Y-142349800D02*
X129797400Y-142841000D01*
X127872900Y-141860400D02*
X128833500Y-142349800D01*
X128833500Y-142349800D02*
X129306200Y-142349800D01*
%TO.N,Net-(D15-K)*%
X136211600Y-127030500D02*
X135971900Y-127030500D01*
X137647100Y-127761800D02*
X136211700Y-127030400D01*
X135971900Y-127030500D02*
X135722600Y-126781200D01*
X136211700Y-127030400D02*
X136211600Y-127030500D01*
%TO.N,Net-(D16-K)*%
X143572400Y-111702000D02*
X144533000Y-112191400D01*
X145005700Y-112191400D02*
X145496900Y-112682600D01*
X144533000Y-112191400D02*
X145005700Y-112191400D01*
%TO.N,Col 5*%
X136014300Y-190519100D02*
X136581600Y-191086400D01*
X154622200Y-127890000D02*
X153734200Y-127377300D01*
X135751500Y-156254900D02*
X136166900Y-156254900D01*
X142219800Y-146930300D02*
X145554600Y-143595500D01*
X137469600Y-191599100D02*
X136581600Y-191086400D01*
X147029900Y-94144000D02*
X147521100Y-94635200D01*
X153318800Y-127377300D02*
X152751500Y-126810000D01*
X155151100Y-95085900D02*
X150480300Y-95085900D01*
X146557200Y-94144000D02*
X147029900Y-94144000D01*
X136166900Y-154601600D02*
X142219800Y-148548700D01*
X146122200Y-142612400D02*
X145234200Y-142099700D01*
X137622200Y-157334900D02*
X136734200Y-156822200D01*
X148481700Y-95124600D02*
X149442300Y-95614100D01*
X144251500Y-141532400D02*
X144666900Y-141532400D01*
X149518600Y-95537800D02*
X149442300Y-95614100D01*
X185914500Y-96198800D02*
X156264000Y-96198800D01*
X150480300Y-95085900D02*
X150028400Y-95537800D01*
X185936600Y-96176700D02*
X185914500Y-96198800D01*
X148481700Y-95124600D02*
X147521100Y-94635200D01*
X153734200Y-127377300D02*
X153318800Y-127377300D01*
X156264000Y-96198800D02*
X155151100Y-95085900D01*
X144666900Y-141532400D02*
X145234200Y-142099700D01*
X136166900Y-156254900D02*
X136734200Y-156822200D01*
X146122200Y-142612400D02*
X145554600Y-143595500D01*
X150028400Y-95537800D02*
X149518600Y-95537800D01*
X135598900Y-190519100D02*
X136014300Y-190519100D01*
X142219800Y-148548700D02*
X142219800Y-146930300D01*
X136166900Y-156254900D02*
X136166900Y-154601600D01*
%TO.N,Net-(D17-K)*%
X151911200Y-96872000D02*
X151911100Y-96872100D01*
X151671400Y-96872100D02*
X151422100Y-96622800D01*
X151911100Y-96872100D02*
X151671400Y-96872100D01*
X153346600Y-97603400D02*
X151911200Y-96872000D01*
%TO.N,Net-(D18-K)*%
X142198100Y-194329100D02*
X140862900Y-193558200D01*
X140862900Y-193558200D02*
X140636500Y-193558200D01*
X140636500Y-193558200D02*
X140327400Y-193249100D01*
%TO.N,Net-(D19-K)*%
X141015500Y-159294000D02*
X140789100Y-159294000D01*
X142350700Y-160064900D02*
X141015500Y-159294000D01*
X140789100Y-159294000D02*
X140480000Y-158984900D01*
%TO.N,Net-(D20-K)*%
X149515500Y-144571500D02*
X149289100Y-144571500D01*
X149289100Y-144571500D02*
X148980000Y-144262400D01*
X150850700Y-145342400D02*
X149515500Y-144571500D01*
%TO.N,Net-(D21-K)*%
X158015500Y-129849100D02*
X157789100Y-129849100D01*
X157789100Y-129849100D02*
X157480000Y-129540000D01*
X159350700Y-130620000D02*
X158015500Y-129849100D01*
%TO.N,Col 6*%
X171839900Y-130031400D02*
X171839900Y-129747800D01*
X163755300Y-144470300D02*
X164322600Y-145037600D01*
X172407300Y-130315100D02*
X172123600Y-130031400D01*
X146339900Y-173915100D02*
X146755300Y-173915100D01*
X161666900Y-112087600D02*
X162234200Y-112654900D01*
X163339900Y-144470300D02*
X163755300Y-144470300D01*
X165210600Y-145550300D02*
X164322600Y-145037600D01*
X173710600Y-130827800D02*
X172822600Y-130315100D01*
X146755300Y-173915100D02*
X147322600Y-174482400D01*
X166959500Y-130031400D02*
X171839900Y-130031400D01*
X155407200Y-159760000D02*
X154839900Y-159192700D01*
X172822600Y-130315100D02*
X172407300Y-130315100D01*
X156710600Y-160272700D02*
X155822600Y-159760000D01*
X161251500Y-112087600D02*
X161666900Y-112087600D01*
X163122200Y-113167600D02*
X162234200Y-112654900D01*
X166034500Y-130956400D02*
X166959500Y-130031400D01*
X155822600Y-159760000D02*
X155407200Y-159760000D01*
X148210600Y-174995100D02*
X147322600Y-174482400D01*
X172123600Y-130031400D02*
X171839900Y-130031400D01*
%TO.N,Net-(D22-K)*%
X166868000Y-115330300D02*
X167283400Y-115330300D01*
X165980000Y-114817600D02*
X166868000Y-115330300D01*
X167283400Y-115330300D02*
X167850700Y-115897600D01*
%TO.N,Net-(D23-K)*%
X151377500Y-176954200D02*
X151068400Y-176645100D01*
X151603900Y-176954200D02*
X151377500Y-176954200D01*
X152939100Y-177725100D02*
X151603900Y-176954200D01*
%TO.N,Net-(D24-K)*%
X160871800Y-162435400D02*
X161439100Y-163002700D01*
X160456400Y-162435400D02*
X160871800Y-162435400D01*
X159568400Y-161922700D02*
X160456400Y-162435400D01*
%TO.N,Net-(D25-K)*%
X168956400Y-147713000D02*
X169371800Y-147713000D01*
X168068400Y-147200300D02*
X168956400Y-147713000D01*
X169371800Y-147713000D02*
X169939100Y-148280300D01*
%TO.N,Net-(D26-K)*%
X177871800Y-132990500D02*
X178439100Y-133557800D01*
X177456400Y-132990500D02*
X177871800Y-132990500D01*
X176568400Y-132477800D02*
X177456400Y-132990500D01*
%TO.N,Col 7*%
X166206700Y-183934300D02*
X165318700Y-183421600D01*
X164903300Y-183421600D02*
X164336000Y-182854300D01*
X165318700Y-183421600D02*
X164903300Y-183421600D01*
%TO.N,Net-(D27-K)*%
X169064500Y-185584300D02*
X169952500Y-186097000D01*
X170367900Y-186097000D02*
X170935200Y-186664300D01*
X169952500Y-186097000D02*
X170367900Y-186097000D01*
%TO.N,Net-(D28-K)*%
X349180100Y-119849800D02*
X349501600Y-119528300D01*
X347436000Y-120159800D02*
X348450000Y-119849800D01*
X348450000Y-119849800D02*
X349180100Y-119849800D01*
%TO.N,Col 8*%
X343266200Y-121434600D02*
X342536100Y-121434600D01*
X305821000Y-125048400D02*
X304943600Y-124171000D01*
X342214600Y-121756100D02*
X340038600Y-123932100D01*
X278087000Y-118355600D02*
X274699100Y-114967700D01*
X254039600Y-113446900D02*
X250684000Y-113446900D01*
X289809900Y-124171000D02*
X283994500Y-118355600D01*
X321617800Y-125048400D02*
X305821000Y-125048400D01*
X274699100Y-114967700D02*
X255560400Y-114967700D01*
X322734100Y-123932100D02*
X321617800Y-125048400D01*
X250684000Y-113446900D02*
X241502900Y-104265800D01*
X255560400Y-114967700D02*
X254039600Y-113446900D01*
X342536100Y-121434600D02*
X342214600Y-121756100D01*
X344280200Y-121124600D02*
X343266200Y-121434600D01*
X340038600Y-123932100D02*
X322734100Y-123932100D01*
X283994500Y-118355600D02*
X278087000Y-118355600D01*
X304943600Y-124171000D02*
X289809900Y-124171000D01*
X241502900Y-104265800D02*
X180770600Y-104265800D01*
%TO.N,Net-(D29-K)*%
X342388600Y-103955500D02*
X343390900Y-103668100D01*
X344156800Y-103668200D02*
X344464900Y-103360100D01*
X343390900Y-103668200D02*
X344156800Y-103668200D01*
X343390900Y-103668100D02*
X343390900Y-103668200D01*
%TO.N,Col 9*%
X338214100Y-105152400D02*
X337448200Y-105152400D01*
X339216400Y-104865100D02*
X338214100Y-105152500D01*
X314893700Y-107117100D02*
X314893700Y-107117000D01*
X337448200Y-105152400D02*
X337140100Y-105460500D01*
X332644300Y-88785100D02*
X332350600Y-89078800D01*
X317298500Y-106524000D02*
X317028900Y-106254400D01*
X291158200Y-86852200D02*
X293504700Y-89198700D01*
X334437000Y-88519800D02*
X333446700Y-88785100D01*
X308442100Y-91335300D02*
X307851300Y-91335300D01*
X320708700Y-123170800D02*
X321242900Y-123170800D01*
X336076600Y-106524000D02*
X317298500Y-106524000D01*
X315961300Y-106685700D02*
X314893700Y-107117000D01*
X338214100Y-105152500D02*
X338214100Y-105152400D01*
X315961300Y-106685700D02*
X317028900Y-106254400D01*
X333446700Y-88785100D02*
X332644300Y-88785100D01*
X322697000Y-122326800D02*
X321637100Y-122776600D01*
X306556000Y-91335400D02*
X308442100Y-91335400D01*
X269318400Y-88191300D02*
X270657500Y-86852200D01*
X270657500Y-86852200D02*
X291158200Y-86852200D01*
X337140100Y-105460500D02*
X336076600Y-106524000D01*
X309499600Y-90929400D02*
X308442100Y-91335400D01*
X321242900Y-123170800D02*
X321637100Y-122776600D01*
X313958600Y-107494900D02*
X314515900Y-107494900D01*
X314515900Y-107494900D02*
X314893700Y-107117100D01*
X218216400Y-88191300D02*
X269318400Y-88191300D01*
X293504700Y-89198700D02*
X304419300Y-89198700D01*
X304419300Y-89198700D02*
X306556000Y-91335400D01*
X217765900Y-87740800D02*
X218216400Y-88191300D01*
X308442100Y-91335400D02*
X308442100Y-91335300D01*
X307851300Y-91335300D02*
X307483100Y-91703500D01*
%TO.N,Net-(D30-K)*%
X337624600Y-87665600D02*
X338614900Y-87400300D01*
X339417300Y-87400300D02*
X339711000Y-87106600D01*
X338614900Y-87400300D02*
X339417300Y-87400300D01*
%TO.N,Net-(D31-K)*%
X327722900Y-120193400D02*
X326151500Y-120860400D01*
X326151400Y-120860300D02*
X325911700Y-120860300D01*
X326151500Y-120860400D02*
X326151400Y-120860300D01*
X325911700Y-120860300D02*
X325734600Y-121037400D01*
%TO.N,Net-(D32-K)*%
X320088700Y-105018200D02*
X320645900Y-105018200D01*
X320645900Y-105018200D02*
X321023800Y-104640300D01*
X319021100Y-105449500D02*
X320088700Y-105018200D01*
%TO.N,Net-(D33-K)*%
X314228700Y-89340900D02*
X314596900Y-88972700D01*
X312580400Y-89746800D02*
X313637900Y-89340800D01*
X313637900Y-89340800D02*
X313637900Y-89340900D01*
X313637900Y-89340900D02*
X314228700Y-89340900D01*
%TO.N,Net-(D34-K)*%
X306414900Y-73934100D02*
X307462100Y-73553000D01*
X308086900Y-73553000D02*
X308444600Y-73195300D01*
X307462100Y-73553000D02*
X308086900Y-73553000D01*
%TO.N,Col 10*%
X266408800Y-98965600D02*
X268150800Y-97223600D01*
X289491900Y-94513400D02*
X288481900Y-94984300D01*
X217269800Y-98965600D02*
X266408800Y-98965600D01*
X285737000Y-97223600D02*
X287534300Y-95426300D01*
X303860900Y-125327900D02*
X302850900Y-125798800D01*
X296676400Y-109920700D02*
X295666400Y-110391600D01*
X299574600Y-160388000D02*
X300016600Y-159946000D01*
X287976300Y-94984300D02*
X287534300Y-95426300D01*
X303313900Y-75062700D02*
X302266700Y-75443800D01*
X216327000Y-98022800D02*
X217269800Y-98965600D01*
X294718800Y-110833600D02*
X295224400Y-110833600D01*
X288481900Y-94984300D02*
X287976300Y-94984300D01*
X301641900Y-75443800D02*
X301284200Y-75801500D01*
X302850900Y-125798800D02*
X302345300Y-125798800D01*
X302266700Y-75443800D02*
X301641900Y-75443800D01*
X299069000Y-160388000D02*
X299574600Y-160388000D01*
X268150800Y-97223600D02*
X285737000Y-97223600D01*
X301026600Y-159475100D02*
X300016600Y-159946000D01*
X302345300Y-125798800D02*
X301903300Y-126240800D01*
X295224400Y-110833600D02*
X295666400Y-110391600D01*
%TO.N,Net-(D35-K)*%
X305027400Y-157609600D02*
X305533000Y-157609600D01*
X305533000Y-157609600D02*
X305975000Y-157167600D01*
X304017400Y-158080500D02*
X305027400Y-157609600D01*
%TO.N,Net-(D36-K)*%
X307306100Y-123721200D02*
X307063800Y-123721200D01*
X307306200Y-123721300D02*
X307306100Y-123721200D01*
X308809300Y-123020400D02*
X307306200Y-123721300D01*
X307063800Y-123721200D02*
X306851700Y-123933300D01*
%TO.N,Net-(D37-K)*%
X301624800Y-107613200D02*
X300121700Y-108314100D01*
X300121700Y-108314100D02*
X300121600Y-108314000D01*
X299879300Y-108314000D02*
X299667200Y-108526100D01*
X300121600Y-108314000D02*
X299879300Y-108314000D01*
%TO.N,Net-(D38-K)*%
X292937100Y-92906700D02*
X292694800Y-92906700D01*
X294440300Y-92205900D02*
X292937200Y-92906800D01*
X292937200Y-92906800D02*
X292937100Y-92906700D01*
X292694800Y-92906700D02*
X292482700Y-93118800D01*
%TO.N,Net-(D39-K)*%
X285298200Y-77711600D02*
X286308200Y-77240700D01*
X286813800Y-77240700D02*
X287255800Y-76798700D01*
X286308200Y-77240700D02*
X286813800Y-77240700D01*
%TO.N,Col 11*%
X282307400Y-79106200D02*
X281297400Y-79577100D01*
X281297400Y-79577100D02*
X280791800Y-79577100D01*
X280791800Y-79577100D02*
X280349800Y-80019100D01*
X281733500Y-127304500D02*
X281278900Y-127304500D01*
X267300500Y-95388400D02*
X268162300Y-96250200D01*
X216469200Y-94091200D02*
X217766400Y-95388400D01*
X288870500Y-142900000D02*
X288612300Y-142900000D01*
X288870500Y-144533200D02*
X290304900Y-145967600D01*
X289386800Y-142383700D02*
X288870500Y-142900000D01*
X287270200Y-177138300D02*
X287724800Y-177138300D01*
X217766400Y-95388400D02*
X267300500Y-95388400D01*
X289177300Y-176124200D02*
X288241100Y-176622000D01*
X287724800Y-177138300D02*
X288241100Y-176622000D01*
X290519400Y-141885900D02*
X289583200Y-142383700D01*
X272912900Y-112741600D02*
X273367500Y-112741600D01*
X273367500Y-112741600D02*
X273883800Y-112225300D01*
X268162300Y-96250200D02*
X274496000Y-96250200D01*
X288870500Y-142900000D02*
X288870500Y-144533200D01*
X274820000Y-111727500D02*
X273883800Y-112225300D01*
X289583200Y-142383700D02*
X289386800Y-142383700D01*
X282669700Y-126806700D02*
X281733500Y-127304500D01*
X281278900Y-127304500D02*
X280762600Y-127820800D01*
%TO.N,Net-(D40-K)*%
X292091100Y-174575000D02*
X293027300Y-174077200D01*
X293027300Y-174077200D02*
X293481900Y-174077200D01*
X293481900Y-174077200D02*
X293998200Y-173560900D01*
%TO.N,Net-(D41-K)*%
X294824000Y-139838900D02*
X295340300Y-139322600D01*
X294369400Y-139838900D02*
X294824000Y-139838900D01*
X293433200Y-140336700D02*
X294369400Y-139838900D01*
%TO.N,Net-(D42-K)*%
X286974300Y-124759700D02*
X287490600Y-124243400D01*
X286519700Y-124759700D02*
X286974300Y-124759700D01*
X285583500Y-125257500D02*
X286519700Y-124759700D01*
%TO.N,Net-(D43-K)*%
X278239300Y-109909600D02*
X278239200Y-109909500D01*
X272078200Y-109590100D02*
X277919800Y-109590100D01*
X270061800Y-107573700D02*
X272078200Y-109590100D01*
X278002600Y-109909500D02*
X277733800Y-110178300D01*
X279640900Y-109164200D02*
X278239300Y-109909600D01*
X277919800Y-109590100D02*
X278239300Y-109909600D01*
X279640900Y-109164200D02*
X278239300Y-109909600D01*
X278239200Y-109909500D02*
X278002600Y-109909500D01*
%TO.N,Net-(D44-K)*%
X270389600Y-94830400D02*
X270389500Y-94830300D01*
X271791200Y-94085000D02*
X270389600Y-94830400D01*
X270389500Y-94830300D02*
X270152900Y-94830300D01*
X270152900Y-94830300D02*
X269884100Y-95099100D01*
%TO.N,Col 12*%
X265579500Y-97146100D02*
X265063200Y-97662400D01*
X269399100Y-144262400D02*
X268511100Y-144775100D01*
X276596300Y-194329100D02*
X277163600Y-193761800D01*
X278051600Y-193249100D02*
X277163600Y-193761800D01*
X213692500Y-97146100D02*
X213378900Y-96832500D01*
X276312100Y-159781200D02*
X276028400Y-159781200D01*
X276028400Y-159781200D02*
X276028400Y-160064900D01*
X276595700Y-159497600D02*
X276312100Y-159781200D01*
X276028400Y-159781200D02*
X273042600Y-159781200D01*
X266970300Y-96648300D02*
X266034100Y-97146100D01*
X277011100Y-159497600D02*
X276595700Y-159497600D01*
X266034100Y-97146100D02*
X265806800Y-97146100D01*
X265806800Y-97146100D02*
X265579500Y-97146100D01*
X268511100Y-144775100D02*
X268095700Y-144775100D01*
X276180900Y-194329100D02*
X276596300Y-194329100D01*
X268095700Y-144775100D02*
X267528400Y-145342400D01*
X277899100Y-158984900D02*
X277011100Y-159497600D01*
X265806800Y-97146100D02*
X213692500Y-97146100D01*
X273042600Y-159781200D02*
X272795800Y-159534400D01*
%TO.N,Net-(D45-K)*%
X281444900Y-191290000D02*
X281218500Y-191290000D01*
X282780100Y-190519100D02*
X281444900Y-191290000D01*
X281218500Y-191290000D02*
X280909400Y-191599100D01*
%TO.N,Net-(D46-K)*%
X282627600Y-156254900D02*
X282060300Y-156822200D01*
X278617300Y-156822200D02*
X278545200Y-156894300D01*
X280756900Y-157334900D02*
X281644900Y-156822200D01*
X282060300Y-156822200D02*
X281644900Y-156822200D01*
X281644900Y-156822200D02*
X278617300Y-156822200D01*
X278545200Y-156894300D02*
X276041000Y-156894300D01*
%TO.N,Net-(D47-K)*%
X273144900Y-142099700D02*
X273560300Y-142099700D01*
X273560300Y-142099700D02*
X274127600Y-141532400D01*
X272256900Y-142612400D02*
X273144900Y-142099700D01*
%TO.N,Net-(D48-K)*%
X264066000Y-127580900D02*
X263756900Y-127890000D01*
X265627600Y-126810000D02*
X264292400Y-127580900D01*
X264292400Y-127580900D02*
X264066000Y-127580900D01*
%TO.N,Col 13*%
X260899100Y-129540000D02*
X260011100Y-130052700D01*
X265439900Y-177725100D02*
X265855300Y-177725100D01*
X257507200Y-162435400D02*
X256939900Y-163002700D01*
X267310600Y-176645100D02*
X266422600Y-177157800D01*
X251203500Y-115637900D02*
X251511100Y-115330300D01*
X260011100Y-130052700D02*
X259595700Y-130052700D01*
X245164600Y-115637900D02*
X238087900Y-108561200D01*
X250528400Y-115897600D02*
X250528400Y-115637900D01*
X252399100Y-114817600D02*
X251511100Y-115330300D01*
X250528400Y-115637900D02*
X245164600Y-115637900D01*
X238087900Y-108561200D02*
X213369800Y-108561200D01*
X250528400Y-115637900D02*
X251203500Y-115637900D01*
X259595700Y-130052700D02*
X259028400Y-130620000D01*
X258810600Y-161922700D02*
X257922600Y-162435400D01*
X265855300Y-177725100D02*
X266422600Y-177157800D01*
X257922600Y-162435400D02*
X257507200Y-162435400D01*
%TO.N,Net-(D49-K)*%
X255256900Y-113167600D02*
X256144900Y-112654900D01*
X255828300Y-112338300D02*
X256144900Y-112654900D01*
X248064900Y-109634400D02*
X250768800Y-112338300D01*
X250768800Y-112338300D02*
X255828300Y-112338300D01*
X248064900Y-108632600D02*
X248064900Y-109634400D01*
X256560300Y-112654900D02*
X257127600Y-112087600D01*
X256144900Y-112654900D02*
X256560300Y-112654900D01*
%TO.N,Net-(D50-K)*%
X272039100Y-173915100D02*
X270703900Y-174686000D01*
X270703900Y-174686000D02*
X270477500Y-174686000D01*
X270477500Y-174686000D02*
X270168400Y-174995100D01*
%TO.N,Net-(D51-K)*%
X257642700Y-159963600D02*
X254265500Y-156586400D01*
X262203900Y-159963600D02*
X262090700Y-159963600D01*
X262090700Y-159963600D02*
X261977500Y-159963600D01*
X263539100Y-159192700D02*
X262203900Y-159963600D01*
X262090700Y-159963600D02*
X257642700Y-159963600D01*
X261977500Y-159963600D02*
X261668400Y-160272700D01*
%TO.N,Net-(D52-K)*%
X254471800Y-145037600D02*
X255039100Y-144470300D01*
X254056400Y-145037600D02*
X254471800Y-145037600D01*
X253168400Y-145550300D02*
X254056400Y-145037600D01*
%TO.N,Col 14*%
X248444900Y-186589100D02*
X249012200Y-186021800D01*
X249007200Y-147713000D02*
X248439900Y-148280300D01*
X241810600Y-132477800D02*
X240922600Y-132990500D01*
X248029500Y-186589100D02*
X248444900Y-186589100D01*
X240355300Y-133557800D02*
X240922600Y-132990500D01*
X249422600Y-147713000D02*
X249007200Y-147713000D01*
X239939900Y-133557800D02*
X240355300Y-133557800D01*
X250310600Y-147200300D02*
X249422600Y-147713000D01*
X249900200Y-185509100D02*
X249012200Y-186021800D01*
%TO.N,Net-(D53-K)*%
X244977500Y-130518700D02*
X244668400Y-130827800D01*
X245203900Y-130518700D02*
X244977500Y-130518700D01*
X246539100Y-129747800D02*
X245203900Y-130518700D01*
%TO.N,Net-(D54-K)*%
X253293500Y-183550000D02*
X253067100Y-183550000D01*
X253067100Y-183550000D02*
X252758000Y-183859100D01*
X254628700Y-182779100D02*
X253293500Y-183550000D01*
%TO.N,+3.3V*%
X184190000Y-78025000D02*
X185033700Y-78868700D01*
X181240000Y-78025000D02*
X178871000Y-78025000D01*
X185033700Y-78868700D02*
X189246300Y-78868700D01*
X193040000Y-78025000D02*
X190090000Y-78025000D01*
X187140000Y-78025000D02*
X190090000Y-78025000D01*
X207774400Y-80951100D02*
X207623000Y-80799700D01*
X214119700Y-111570300D02*
X239185500Y-111570300D01*
X189246300Y-78868700D02*
X190090000Y-78025000D01*
X195814700Y-80799700D02*
X207623000Y-80799700D01*
X194460600Y-79445600D02*
X195814700Y-80799700D01*
X189243400Y-84662800D02*
X194460600Y-79445600D01*
X239185500Y-111570300D02*
X240732500Y-113117300D01*
X178871000Y-78025000D02*
X175340000Y-78025000D01*
X213295000Y-112395000D02*
X214119700Y-111570300D01*
X178871000Y-78025000D02*
X178290000Y-78025000D01*
X184190000Y-78025000D02*
X181240000Y-78025000D01*
X193040000Y-78025000D02*
X194460600Y-79445600D01*
X213312100Y-80951100D02*
X207774400Y-80951100D01*
%TO.N,L_Joystick_Bttn*%
X183753600Y-154940000D02*
X177800000Y-154940000D01*
X203200000Y-68580000D02*
X201023100Y-68580000D01*
X186006600Y-152687000D02*
X183753600Y-154940000D01*
X182960000Y-68580000D02*
X201023100Y-68580000D01*
X200461600Y-69141500D02*
X201023100Y-68580000D01*
X199273200Y-69141500D02*
X200461600Y-69141500D01*
X175340000Y-76200000D02*
X182960000Y-68580000D01*
%TO.N,R_Joystick_Bttn*%
X205040300Y-71733400D02*
X204426900Y-71120000D01*
X182293700Y-71120000D02*
X178290000Y-75123700D01*
X203200000Y-71120000D02*
X182293700Y-71120000D01*
X203200000Y-71120000D02*
X204426900Y-71120000D01*
X214635800Y-71733400D02*
X205040300Y-71733400D01*
X178290000Y-75123700D02*
X178290000Y-76200000D01*
%TO.N,Row 5*%
X180112100Y-73940700D02*
X181067100Y-72985700D01*
X272038100Y-76491000D02*
X280318900Y-84771800D01*
X186590300Y-119816800D02*
X186590300Y-119816900D01*
X196044400Y-76491000D02*
X272038100Y-76491000D01*
X201447600Y-118478500D02*
X204991100Y-114935000D01*
X181240000Y-76200000D02*
X180112100Y-75072100D01*
X180112100Y-75072100D02*
X180112100Y-73940700D01*
X204991100Y-114935000D02*
X208345000Y-114935000D01*
X192539100Y-72985700D02*
X196044400Y-76491000D01*
X181067100Y-72985700D02*
X192539100Y-72985700D01*
X164595900Y-118310200D02*
X166102500Y-119816800D01*
X189243400Y-118478500D02*
X201447600Y-118478500D01*
X166102500Y-119816800D02*
X186590300Y-119816800D01*
%TO.N,Row 4*%
X268979200Y-142154800D02*
X265373500Y-142154800D01*
X150955800Y-128381900D02*
X149030500Y-128381900D01*
X294052700Y-107577300D02*
X297719900Y-107577300D01*
X170929500Y-132685200D02*
X172267300Y-131347400D01*
X209652600Y-111756600D02*
X207016700Y-111756600D01*
X212831000Y-114935000D02*
X209652600Y-111756600D01*
X164535700Y-132685200D02*
X155259100Y-132685200D01*
X234470200Y-117306200D02*
X232099000Y-114935000D01*
X271795300Y-114091700D02*
X280762700Y-114091700D01*
X207016700Y-111756600D02*
X206246700Y-112526600D01*
X145577900Y-77112400D02*
X137960000Y-84730300D01*
X237631200Y-117306200D02*
X234470200Y-117306200D01*
X271707600Y-114004000D02*
X271795300Y-114091700D01*
X248973700Y-116172000D02*
X238765400Y-116172000D01*
X282748100Y-112106300D02*
X289523700Y-112106300D01*
X184190000Y-76200000D02*
X183277600Y-77112400D01*
X271537600Y-115889100D02*
X252705300Y-115889100D01*
X164535700Y-132685200D02*
X170929500Y-132685200D01*
X280762700Y-114091700D02*
X282748100Y-112106300D01*
X289523700Y-112106300D02*
X294052700Y-107577300D01*
X206246700Y-112526600D02*
X185578400Y-112526600D01*
X238765400Y-116172000D02*
X237631200Y-117306200D01*
X269812200Y-141321800D02*
X268979200Y-142154800D01*
X232099000Y-114935000D02*
X213295000Y-114935000D01*
X251378300Y-117216100D02*
X250017800Y-117216100D01*
X252705300Y-115889100D02*
X251378300Y-117216100D01*
X183277600Y-77112400D02*
X145577900Y-77112400D01*
X155259100Y-132685200D02*
X150955800Y-128381900D01*
X185578400Y-112526600D02*
X185367300Y-112737700D01*
X271707600Y-115719100D02*
X271537600Y-115889100D01*
X250017800Y-117216100D02*
X248973700Y-116172000D01*
X213295000Y-114935000D02*
X212831000Y-114935000D01*
%TO.N,Row 3*%
X212559800Y-116205000D02*
X209377300Y-113022500D01*
X209377300Y-113022500D02*
X207319200Y-113022500D01*
X185253500Y-172580200D02*
X186224800Y-171608900D01*
X204779300Y-113693000D02*
X192178500Y-113693000D01*
X300312800Y-123259900D02*
X305257300Y-123259900D01*
X164986600Y-154489800D02*
X161913100Y-154489800D01*
X188446300Y-76200000D02*
X188615000Y-76368700D01*
X206403700Y-113980900D02*
X205067200Y-113980900D01*
X206828000Y-113556600D02*
X206403700Y-113980900D01*
X159686000Y-152262700D02*
X151391000Y-152262700D01*
X187140000Y-76200000D02*
X188446300Y-76200000D01*
X207319200Y-113022500D02*
X206828000Y-113513700D01*
X205067200Y-113980900D02*
X204779300Y-113693000D01*
X186224800Y-171608900D02*
X251890000Y-171608900D01*
X300194000Y-123378700D02*
X300312800Y-123259900D01*
X206828000Y-113513700D02*
X206828000Y-113556600D01*
X161913100Y-154489800D02*
X159686000Y-152262700D01*
X213295000Y-116205000D02*
X212559800Y-116205000D01*
X192178500Y-113693000D02*
X192098100Y-113773400D01*
%TO.N,Row 2*%
X300279100Y-127773300D02*
X301762900Y-129257100D01*
X210884400Y-115570000D02*
X212789400Y-117475000D01*
X282560400Y-77551200D02*
X286826100Y-73285500D01*
X201309800Y-119255400D02*
X204995200Y-115570000D01*
X128411900Y-112341900D02*
X140966800Y-112341900D01*
X251790400Y-117668000D02*
X252987800Y-116470600D01*
X213614500Y-117794500D02*
X245722600Y-117794500D01*
X252987800Y-116470600D02*
X272180600Y-116470600D01*
X212789400Y-117475000D02*
X213295000Y-117475000D01*
X106821100Y-97941200D02*
X108081200Y-96681100D01*
X280460400Y-124750400D02*
X282680300Y-124750400D01*
X285703200Y-127773300D02*
X300279100Y-127773300D01*
X306404900Y-71725500D02*
X336119600Y-71725500D01*
X246301000Y-117216100D02*
X246752900Y-117668000D01*
X173251200Y-117569700D02*
X186010500Y-117569700D01*
X252473500Y-77112500D02*
X191002500Y-77112500D01*
X186010500Y-117569700D02*
X187696200Y-119255400D01*
X187696200Y-119255400D02*
X201309800Y-119255400D01*
X336119600Y-71725500D02*
X339970400Y-75576300D01*
X102795600Y-97941200D02*
X106821100Y-97941200D01*
X108081200Y-96681100D02*
X110600800Y-96681100D01*
X169419400Y-113737900D02*
X173251200Y-117569700D01*
X272180600Y-116470600D02*
X280460400Y-124750400D01*
X142900100Y-114275200D02*
X164122500Y-114275200D01*
X164122500Y-114275200D02*
X164659800Y-113737900D01*
X286826100Y-73285500D02*
X304844900Y-73285500D01*
X191002500Y-77112500D02*
X190090000Y-76200000D01*
X140966800Y-112341900D02*
X142900100Y-114275200D01*
X93485800Y-96779700D02*
X101634100Y-96779700D01*
X253081800Y-77720800D02*
X252473500Y-77112500D01*
X272910300Y-75601700D02*
X274859800Y-77551200D01*
X246301000Y-116919000D02*
X246301000Y-117216100D01*
X164659800Y-113737900D02*
X169419400Y-113737900D01*
X253081800Y-75601700D02*
X272910300Y-75601700D01*
X101634100Y-96779700D02*
X102795600Y-97941200D01*
X246752900Y-117668000D02*
X251790400Y-117668000D01*
X304844900Y-73285500D02*
X306404900Y-71725500D01*
X204995200Y-115570000D02*
X210884400Y-115570000D01*
X213295000Y-117475000D02*
X213614500Y-117794500D01*
X245722600Y-117794500D02*
X246301000Y-117216100D01*
X274859800Y-77551200D02*
X282560400Y-77551200D01*
X282680300Y-124750400D02*
X285703200Y-127773300D01*
%TO.N,Row 1*%
X205039600Y-118117500D02*
X212667500Y-118117500D01*
X160213300Y-114798600D02*
X162984400Y-117569700D01*
X247262700Y-118745000D02*
X249234400Y-120716700D01*
X140359500Y-114065900D02*
X141092200Y-114798600D01*
X170175200Y-118021600D02*
X185823300Y-118021600D01*
X121791300Y-114065900D02*
X140359500Y-114065900D01*
X185823300Y-118021600D02*
X187509000Y-119707300D01*
X119785900Y-116071300D02*
X121791300Y-114065900D01*
X169723300Y-117569700D02*
X170175200Y-118021600D01*
X191056600Y-74216600D02*
X193040000Y-76200000D01*
X180864100Y-74216600D02*
X191056600Y-74216600D01*
X187509000Y-119707300D02*
X203449800Y-119707300D01*
X203449800Y-119707300D02*
X205039600Y-118117500D01*
X162984400Y-117569700D02*
X169723300Y-117569700D01*
X212667500Y-118117500D02*
X213295000Y-118745000D01*
X213295000Y-118745000D02*
X247262700Y-118745000D01*
X141092200Y-114798600D02*
X160213300Y-114798600D01*
%TO.N,Net-(U3-RESET)*%
X189810000Y-64060000D02*
X189810000Y-57860000D01*
X189810000Y-56633100D02*
X208715100Y-56633100D01*
X208715100Y-56633100D02*
X209550000Y-57468000D01*
X189810000Y-57860000D02*
X189810000Y-56633100D01*
%TO.N,Net-(U1-QH')*%
X182350300Y-91871000D02*
X212881800Y-91871000D01*
X212881800Y-91871000D02*
X213648600Y-91104200D01*
%TO.N,SCK*%
X207750900Y-113665000D02*
X208345000Y-113665000D01*
X204478200Y-114419900D02*
X204517000Y-114458700D01*
X206957200Y-114458700D02*
X207750900Y-113665000D01*
X190790300Y-87055900D02*
X190448500Y-87397700D01*
X201597700Y-87055900D02*
X190790300Y-87055900D01*
X201597700Y-87055900D02*
X208597500Y-87055900D01*
X204517000Y-114458700D02*
X206957200Y-114458700D01*
%TO.N,Shift Register_1*%
X207428300Y-90147400D02*
X210431400Y-87144300D01*
X191495400Y-90147400D02*
X207428300Y-90147400D01*
%TO.N,MOSI*%
X215943100Y-67310000D02*
X192900900Y-67310000D01*
X192900900Y-67310000D02*
X192397600Y-66806700D01*
X217213100Y-66040000D02*
X215943100Y-67310000D01*
X218440000Y-66040000D02*
X217213100Y-66040000D01*
%TO.N,Net-(U2-QH')*%
X213007200Y-90349400D02*
X235983400Y-90349400D01*
X237501400Y-91867400D02*
X236435800Y-90801800D01*
X212291200Y-91065400D02*
X213007200Y-90349400D01*
X207045200Y-91065400D02*
X212291200Y-91065400D01*
X235983400Y-90349400D02*
X237501400Y-91867400D01*
X236435800Y-90801800D02*
X237501400Y-91867400D01*
%TO.N,MISO*%
X215050300Y-72346900D02*
X219902100Y-72346900D01*
X218440000Y-68580000D02*
X220616900Y-68580000D01*
X219902100Y-72346900D02*
X220616900Y-71632100D01*
X220616900Y-71632100D02*
X220616900Y-68580000D01*
X211687000Y-75710200D02*
X215050300Y-72346900D01*
X207849300Y-119519300D02*
X208345000Y-120015000D01*
X200751700Y-75710200D02*
X211687000Y-75710200D01*
X205927000Y-119519300D02*
X207849300Y-119519300D01*
%TO.N,Parallel*%
X206231400Y-113253900D02*
X206101100Y-113253900D01*
X208345000Y-112395000D02*
X207090300Y-112395000D01*
X207090300Y-112395000D02*
X206231400Y-113253900D01*
%TD*%
M02*
