%TF.GenerationSoftware,KiCad,Pcbnew,7.0.9*%
%TF.CreationDate,2026-03-29T17:48:37-07:00*%
%TF.ProjectId,ergo_unibody,6572676f-5f75-46e6-9962-6f64792e6b69,v1.0.0*%
%TF.SameCoordinates,Original*%
%TF.FileFunction,Soldermask,Top*%
%TF.FilePolarity,Negative*%
%FSLAX46Y46*%
G04 Gerber Fmt 4.6, Leading zero omitted, Abs format (unit mm)*
G04 Created by KiCad (PCBNEW 7.0.9) date 2026-03-29 17:48:37*
%MOMM*%
%LPD*%
G01*
G04 APERTURE LIST*
G04 Aperture macros list*
%AMRoundRect*
0 Rectangle with rounded corners*
0 $1 Rounding radius*
0 $2 $3 $4 $5 $6 $7 $8 $9 X,Y pos of 4 corners*
0 Add a 4 corners polygon primitive as box body*
4,1,4,$2,$3,$4,$5,$6,$7,$8,$9,$2,$3,0*
0 Add four circle primitives for the rounded corners*
1,1,$1+$1,$2,$3*
1,1,$1+$1,$4,$5*
1,1,$1+$1,$6,$7*
1,1,$1+$1,$8,$9*
0 Add four rect primitives between the rounded corners*
20,1,$1+$1,$2,$3,$4,$5,0*
20,1,$1+$1,$4,$5,$6,$7,0*
20,1,$1+$1,$6,$7,$8,$9,0*
20,1,$1+$1,$8,$9,$2,$3,0*%
G04 Aperture macros list end*
%ADD10RoundRect,0.050000X-0.550000X0.900000X-0.550000X-0.900000X0.550000X-0.900000X0.550000X0.900000X0*%
%ADD11C,1.801800*%
%ADD12C,3.100000*%
%ADD13C,3.529000*%
%ADD14RoundRect,0.050000X0.367580X1.202301X-1.202301X0.367580X-0.367580X-1.202301X1.202301X-0.367580X0*%
%ADD15RoundRect,0.050000X0.115643X0.741031X-0.679009X0.318506X-0.115643X-0.741031X0.679009X-0.318506X0*%
%ADD16C,2.005000*%
%ADD17RoundRect,0.050000X1.214397X0.325397X-0.325397X1.214397X-1.214397X-0.325397X0.325397X-1.214397X0*%
%ADD18RoundRect,0.050000X0.689711X0.294615X-0.089711X0.744615X-0.689711X-0.294615X0.089711X-0.744615X0*%
%ADD19RoundRect,0.300000X0.450000X-0.262500X0.450000X0.262500X-0.450000X0.262500X-0.450000X-0.262500X0*%
%ADD20RoundRect,0.050000X1.088798X0.628618X-0.628618X1.088798X-1.088798X-0.628618X0.628618X-1.088798X0*%
%ADD21RoundRect,0.050000X0.589958X0.463087X-0.279375X0.696024X-0.589958X-0.463087X0.279375X-0.696024X0*%
%ADD22RoundRect,0.050000X0.430000X1.181415X-1.181415X0.430000X-0.430000X-1.181415X1.181415X-0.430000X0*%
%ADD23RoundRect,0.050000X0.154268X0.733963X-0.661409X0.353606X-0.154268X-0.733963X0.661409X-0.353606X0*%
%ADD24RoundRect,0.050000X0.325397X1.214397X-1.214397X0.325397X-0.325397X-1.214397X1.214397X-0.325397X0*%
%ADD25RoundRect,0.050000X0.089711X0.744615X-0.689711X0.294615X-0.089711X-0.744615X0.689711X-0.294615X0*%
%ADD26C,0.800000*%
%ADD27C,4.500000*%
%ADD28RoundRect,0.050000X0.470969X1.165689X-1.165689X0.470969X-0.470969X-1.165689X1.165689X-0.470969X0*%
%ADD29RoundRect,0.050000X0.179789X0.728132X-0.648666X0.376474X-0.179789X-0.728132X0.648666X-0.376474X0*%
%ADD30RoundRect,0.050000X1.195702X0.388507X-0.388507X1.195702X-1.195702X-0.388507X0.388507X-1.195702X0*%
%ADD31RoundRect,0.050000X0.673347X0.330308X-0.128559X0.738900X-0.673347X-0.330308X0.128559X-0.738900X0*%
%ADD32RoundRect,0.050000X1.139443X0.531331X-0.531331X1.139443X-1.139443X-0.531331X0.531331X-1.139443X0*%
%ADD33RoundRect,0.050000X0.628074X0.409907X-0.217650X0.717725X-0.628074X-0.409907X0.217650X-0.717725X0*%
%ADD34RoundRect,0.050000X1.181415X0.430000X-0.430000X1.181415X-1.181415X-0.430000X0.430000X-1.181415X0*%
%ADD35RoundRect,0.050000X0.661409X0.353606X-0.154268X0.733963X-0.661409X-0.353606X0.154268X-0.733963X0*%
%ADD36RoundRect,0.050000X1.157292X0.491241X-0.491241X1.157292X-1.157292X-0.491241X0.491241X-1.157292X0*%
%ADD37RoundRect,0.050000X0.641997X0.387737X-0.192469X0.724883X-0.641997X-0.387737X0.192469X-0.724883X0*%
%ADD38RoundRect,0.050000X0.531331X1.139443X-1.139443X0.531331X-0.531331X-1.139443X1.139443X-0.531331X0*%
%ADD39RoundRect,0.050000X0.217650X0.717725X-0.628074X0.409907X-0.217650X-0.717725X0.628074X-0.409907X0*%
%ADD40RoundRect,0.050000X1.148542X0.511364X-0.511364X1.148542X-1.148542X-0.511364X0.511364X-1.148542X0*%
%ADD41RoundRect,0.050000X0.635132X0.398883X-0.205090X0.721414X-0.635132X-0.398883X0.205090X-0.721414X0*%
%ADD42O,2.850000X1.900000*%
%ADD43C,1.497000*%
%ADD44RoundRect,0.200000X-0.825000X-0.150000X0.825000X-0.150000X0.825000X0.150000X-0.825000X0.150000X0*%
%ADD45C,1.982000*%
%ADD46C,2.490000*%
%ADD47RoundRect,0.050000X1.110073X0.590236X-0.590236X1.110073X-1.110073X-0.590236X0.590236X-1.110073X0*%
%ADD48RoundRect,0.050000X0.605760X0.442216X-0.254914X0.705350X-0.605760X-0.442216X0.254914X-0.705350X0*%
%ADD49RoundRect,0.050000X0.628618X1.088798X-1.088798X0.628618X-0.628618X-1.088798X1.088798X-0.628618X0*%
%ADD50RoundRect,0.050000X0.279375X0.696024X-0.589958X0.463087X-0.279375X-0.696024X0.589958X-0.463087X0*%
%ADD51RoundRect,0.050000X0.511364X1.148542X-1.148542X0.511364X-0.511364X-1.148542X1.148542X-0.511364X0*%
%ADD52RoundRect,0.050000X0.205090X0.721414X-0.635132X0.398883X-0.205090X-0.721414X0.635132X-0.398883X0*%
%ADD53RoundRect,0.050000X1.099603X0.609520X-0.609520X1.099603X-1.099603X-0.609520X0.609520X-1.099603X0*%
%ADD54RoundRect,0.050000X0.597950X0.452720X-0.267185X0.700794X-0.597950X-0.452720X0.267185X-0.700794X0*%
%ADD55RoundRect,0.050000X0.590236X1.110073X-1.110073X0.590236X-0.590236X-1.110073X1.110073X-0.590236X0*%
%ADD56RoundRect,0.050000X0.254914X0.705350X-0.605760X0.442216X-0.254914X-0.705350X0.605760X-0.442216X0*%
%ADD57RoundRect,0.050000X0.609520X1.099603X-1.099603X0.609520X-0.609520X-1.099603X1.099603X-0.609520X0*%
%ADD58RoundRect,0.050000X0.267185X0.700794X-0.597950X0.452720X-0.267185X-0.700794X0.597950X-0.452720X0*%
%ADD59RoundRect,0.050000X0.491241X1.157292X-1.157292X0.491241X-0.491241X-1.157292X1.157292X-0.491241X0*%
%ADD60RoundRect,0.050000X0.192469X0.724883X-0.641997X0.387737X-0.192469X-0.724883X0.641997X-0.387737X0*%
%ADD61RoundRect,0.050000X1.165689X0.470969X-0.470969X1.165689X-1.165689X-0.470969X0.470969X-1.165689X0*%
%ADD62RoundRect,0.050000X0.648666X0.376474X-0.179789X0.728132X-0.648666X-0.376474X0.179789X-0.728132X0*%
G04 APERTURE END LIST*
D10*
%TO.C,SW17*%
X189810000Y-57860000D03*
X189810000Y-64060000D03*
X186110000Y-57860000D03*
X186110000Y-64060000D03*
%TD*%
D11*
%TO.C,SW50*%
X246514860Y-112325800D03*
D12*
X248303000Y-104422949D03*
D13*
X251278000Y-109575800D03*
D12*
X253733127Y-103828205D03*
D11*
X256041140Y-106825800D03*
%TD*%
D14*
%TO.C,D43*%
X279640930Y-109164213D03*
D15*
X277733764Y-110178272D03*
X274820036Y-111727528D03*
D16*
X272912870Y-112741587D03*
%TD*%
D17*
%TO.C,D20*%
X150850657Y-145342400D03*
D18*
X148980042Y-144262400D03*
X146122158Y-142612400D03*
D16*
X144251543Y-141532400D03*
%TD*%
D17*
%TO.C,D18*%
X142198057Y-194329100D03*
D18*
X140327442Y-193249100D03*
X137469558Y-191599100D03*
D16*
X135598943Y-190519100D03*
%TD*%
D11*
%TO.C,SW41*%
X283423088Y-173407894D03*
D12*
X285485944Y-165572262D03*
D13*
X288279300Y-170825800D03*
D12*
X290933520Y-165167389D03*
D11*
X293135512Y-168243706D03*
%TD*%
%TO.C,SW1*%
X68752324Y-114157056D03*
D12*
X75751612Y-110075087D03*
D13*
X74012000Y-115765100D03*
D12*
X79889918Y-113640816D03*
D11*
X79271676Y-117373144D03*
%TD*%
D19*
%TO.C,R3*%
X181240000Y-78025000D03*
X181240000Y-76200000D03*
%TD*%
D11*
%TO.C,SW5*%
X97698889Y-99278564D03*
D12*
X105027309Y-95822156D03*
D13*
X102798400Y-101338900D03*
D12*
X108839094Y-99734994D03*
D11*
X107897911Y-103399236D03*
%TD*%
D20*
%TO.C,D3*%
X86028377Y-89078801D03*
D21*
X83941978Y-88519751D03*
X80754422Y-87665649D03*
D16*
X78668023Y-87106599D03*
%TD*%
D22*
%TO.C,D39*%
X287255833Y-76798724D03*
D23*
X285298208Y-77711580D03*
X282307392Y-79106220D03*
D16*
X280349767Y-80019076D03*
%TD*%
D11*
%TO.C,SW20*%
X136837960Y-150993100D03*
D12*
X144576100Y-148590249D03*
D13*
X141601100Y-153743100D03*
D12*
X147806227Y-152995505D03*
D11*
X146364240Y-156493100D03*
%TD*%
D24*
%TO.C,D50*%
X272039057Y-173915100D03*
D25*
X270168442Y-174995100D03*
X267310558Y-176645100D03*
D16*
X265439943Y-177725100D03*
%TD*%
D26*
%TO.C,_4*%
X149542158Y-199010000D03*
X150544049Y-198241223D03*
X149377323Y-200262051D03*
X151796100Y-198406058D03*
D27*
X150971100Y-199835000D03*
D26*
X150146100Y-201263942D03*
X152564877Y-199407949D03*
X151398151Y-201428777D03*
X152400042Y-200660000D03*
%TD*%
D28*
%TO.C,D31*%
X327722923Y-120193414D03*
D29*
X325734633Y-121037394D03*
X322696967Y-122326806D03*
D16*
X320708677Y-123170786D03*
%TD*%
D11*
%TO.C,SW52*%
X252926360Y-159431000D03*
D12*
X254714500Y-151528149D03*
D13*
X257689500Y-156681000D03*
D12*
X260144627Y-150933405D03*
D11*
X262452640Y-153931000D03*
%TD*%
%TO.C,SW27*%
X172926360Y-124486100D03*
D12*
X180664500Y-122083249D03*
D13*
X177689500Y-127236100D03*
D12*
X183894627Y-126488505D03*
D11*
X182452640Y-129986100D03*
%TD*%
D24*
%TO.C,D53*%
X246539057Y-129747800D03*
D25*
X244668442Y-130827800D03*
X241810558Y-132477800D03*
D16*
X239939943Y-133557800D03*
%TD*%
D11*
%TO.C,SW38*%
X291031707Y-106925600D03*
D12*
X293501821Y-99208669D03*
D13*
X296016400Y-104601200D03*
D12*
X298963120Y-99089454D03*
D11*
X301001093Y-102276800D03*
%TD*%
D19*
%TO.C,R4*%
X184190000Y-78025000D03*
X184190000Y-76200000D03*
%TD*%
D26*
%TO.C,_5*%
X327781222Y-65038151D03*
X327946058Y-63786100D03*
X328550000Y-66040042D03*
X328947949Y-63017322D03*
D27*
X329375000Y-64611100D03*
D26*
X329802051Y-66204878D03*
X330200000Y-63182158D03*
X330803942Y-65436100D03*
X330968778Y-64184049D03*
%TD*%
D11*
%TO.C,SW36*%
X295381907Y-156480000D03*
D12*
X297852021Y-148763069D03*
D13*
X300366600Y-154155600D03*
D12*
X303313320Y-148643854D03*
D11*
X305351293Y-151831200D03*
%TD*%
D24*
%TO.C,D54*%
X254628657Y-182779100D03*
D25*
X252758042Y-183859100D03*
X249900158Y-185509100D03*
D16*
X248029543Y-186589100D03*
%TD*%
D11*
%TO.C,SW26*%
X164426360Y-139208500D03*
D12*
X172164500Y-136805649D03*
D13*
X169189500Y-141958500D03*
D12*
X175394627Y-141210905D03*
D11*
X173952640Y-144708500D03*
%TD*%
D17*
%TO.C,D25*%
X169939057Y-148280300D03*
D18*
X168068442Y-147200300D03*
X165210558Y-145550300D03*
D16*
X163339943Y-144470300D03*
%TD*%
D17*
%TO.C,D26*%
X178439057Y-133557800D03*
D18*
X176568442Y-132477800D03*
X173710558Y-130827800D03*
D16*
X171839943Y-129747800D03*
%TD*%
D22*
%TO.C,D36*%
X308809333Y-123020424D03*
D23*
X306851708Y-123933280D03*
X303860892Y-125327920D03*
D16*
X301903267Y-126240776D03*
%TD*%
D26*
%TO.C,_7*%
X234791058Y-115552100D03*
X234626223Y-114300049D03*
X235792949Y-116320877D03*
X235395000Y-113298158D03*
D27*
X236220000Y-114727100D03*
D26*
X237045000Y-116156042D03*
X236647051Y-113133323D03*
X237813777Y-115154151D03*
X237648942Y-113902100D03*
%TD*%
D11*
%TO.C,SW25*%
X155926360Y-153931000D03*
D12*
X163664500Y-151528149D03*
D13*
X160689500Y-156681000D03*
D12*
X166894627Y-155933405D03*
D11*
X165452640Y-159431000D03*
%TD*%
%TO.C,SW42*%
X284765188Y-139169594D03*
D12*
X286828044Y-131333962D03*
D13*
X289621400Y-136587500D03*
D12*
X292275620Y-130929089D03*
D11*
X294477612Y-134005406D03*
%TD*%
D30*
%TO.C,D14*%
X129797435Y-142841004D03*
D31*
X127872861Y-141860384D03*
X124932539Y-140362216D03*
D16*
X123007965Y-139381596D03*
%TD*%
D32*
%TO.C,D7*%
X117094829Y-75801497D03*
D33*
X115065093Y-75062733D03*
X111964107Y-73934067D03*
D16*
X109934371Y-73195303D03*
%TD*%
D22*
%TO.C,D35*%
X305975033Y-157167624D03*
D23*
X304017408Y-158080480D03*
X301026592Y-159475120D03*
D16*
X299068967Y-160387976D03*
%TD*%
D11*
%TO.C,SW34*%
X304077708Y-87547824D03*
D12*
X307080111Y-80021996D03*
D13*
X309212400Y-85576800D03*
D12*
X312536422Y-80284034D03*
D11*
X314347092Y-83605776D03*
%TD*%
%TO.C,SW55*%
X243839960Y-182880000D03*
D12*
X245628100Y-174977149D03*
D13*
X248603100Y-180130000D03*
D12*
X251058227Y-174382405D03*
D11*
X253366240Y-177380000D03*
%TD*%
D19*
%TO.C,R6*%
X190090000Y-78025000D03*
X190090000Y-76200000D03*
%TD*%
D34*
%TO.C,D8*%
X119310133Y-160387976D03*
D35*
X117352508Y-159475120D03*
X114361692Y-158080480D03*
D16*
X112404067Y-157167624D03*
%TD*%
D11*
%TO.C,SW24*%
X147426360Y-168653400D03*
D12*
X155164500Y-166250549D03*
D13*
X152189500Y-171403400D03*
D12*
X158394627Y-170655805D03*
D11*
X156952640Y-174153400D03*
%TD*%
%TO.C,SW13*%
X125199264Y-168328852D03*
D12*
X132801043Y-165524311D03*
D13*
X130099800Y-170825800D03*
D12*
X136257297Y-169754478D03*
D11*
X135000336Y-173322748D03*
%TD*%
D36*
%TO.C,D5*%
X104420470Y-107494851D03*
D37*
X102417753Y-106685701D03*
X99358047Y-105449499D03*
D16*
X97355330Y-104640349D03*
%TD*%
D11*
%TO.C,SW21*%
X145337960Y-136270700D03*
D12*
X153076100Y-133867849D03*
D13*
X150101100Y-139020700D03*
D12*
X156306227Y-138273105D03*
D11*
X154864240Y-141770700D03*
%TD*%
%TO.C,SW40*%
X276662707Y-76111100D03*
D12*
X279132821Y-68394169D03*
D13*
X281647400Y-73786700D03*
D12*
X284594120Y-68274954D03*
D11*
X286632093Y-71462300D03*
%TD*%
%TO.C,SW30*%
X334109761Y-101023905D03*
D12*
X337756658Y-93788393D03*
D13*
X339396700Y-99507900D03*
D12*
X343169368Y-94524982D03*
D11*
X344683639Y-97991895D03*
%TD*%
%TO.C,SW4*%
X91093123Y-114838479D03*
D12*
X98480750Y-111510496D03*
D13*
X96155900Y-116987500D03*
D12*
X102223666Y-115489262D03*
D11*
X101218677Y-119136521D03*
%TD*%
D17*
%TO.C,D21*%
X159350657Y-130620000D03*
D18*
X157480042Y-129540000D03*
X154622158Y-127890000D03*
D16*
X152751543Y-126810000D03*
%TD*%
D24*
%TO.C,D46*%
X282627557Y-156254900D03*
D25*
X280756942Y-157334900D03*
X277899058Y-158984900D03*
D16*
X276028443Y-160064900D03*
%TD*%
D38*
%TO.C,D34*%
X308444629Y-73195303D03*
D39*
X306414893Y-73934067D03*
X303313907Y-75062733D03*
D16*
X301284171Y-75801497D03*
%TD*%
D40*
%TO.C,D6*%
X110895941Y-91703482D03*
D41*
X108879408Y-90929407D03*
X105798592Y-89746793D03*
D16*
X103782059Y-88972718D03*
%TD*%
D26*
%TO.C,_1*%
X83941222Y-64184049D03*
X84710000Y-63182158D03*
X84106058Y-65436100D03*
X85962051Y-63017322D03*
D27*
X85535000Y-64611100D03*
D26*
X85107949Y-66204878D03*
X86963942Y-63786100D03*
X86360000Y-66040042D03*
X87128778Y-65038151D03*
%TD*%
D11*
%TO.C,SW28*%
X165733760Y-177380000D03*
D12*
X173471900Y-174977149D03*
D13*
X170496900Y-180130000D03*
D12*
X176702027Y-179382405D03*
D11*
X175260040Y-182880000D03*
%TD*%
D24*
%TO.C,D47*%
X274127557Y-141532400D03*
D25*
X272256942Y-142612400D03*
X269399058Y-144262400D03*
D16*
X267528443Y-145342400D03*
%TD*%
D42*
%TO.C,U3*%
X202725000Y-58420000D03*
X202725000Y-60960000D03*
X202725000Y-63500000D03*
X202725000Y-66040000D03*
X202725000Y-68580000D03*
X202725000Y-71120000D03*
X202725000Y-73660000D03*
X218915000Y-73660000D03*
X218915000Y-71120000D03*
X218915000Y-68580000D03*
X218915000Y-66040000D03*
X218915000Y-63500000D03*
X218915000Y-60960000D03*
X218915000Y-58420000D03*
D43*
X209550000Y-57468000D03*
X212090000Y-57468000D03*
X209550000Y-60008000D03*
X212090000Y-60008000D03*
X206375000Y-65723000D03*
X206375000Y-63818000D03*
%TD*%
D11*
%TO.C,SW35*%
X297951791Y-71587011D03*
D12*
X301085080Y-64114729D03*
D13*
X303120100Y-69705900D03*
D12*
X306535988Y-64471952D03*
D11*
X308288409Y-67824789D03*
%TD*%
%TO.C,SW7*%
X110090591Y-67824789D03*
D12*
X117293920Y-64114729D03*
D13*
X115258900Y-69705900D03*
D12*
X121239939Y-67892153D03*
D11*
X120427209Y-71587011D03*
%TD*%
D24*
%TO.C,D51*%
X263539057Y-159192700D03*
D25*
X261668442Y-160272700D03*
X258810558Y-161922700D03*
D16*
X256939943Y-163002700D03*
%TD*%
D19*
%TO.C,R2*%
X178290000Y-78025000D03*
X178290000Y-76200000D03*
%TD*%
D11*
%TO.C,SW47*%
X272014860Y-156493100D03*
D12*
X273803000Y-148590249D03*
D13*
X276778000Y-153743100D03*
D12*
X279233127Y-147995505D03*
D11*
X281541140Y-150993100D03*
%TD*%
D44*
%TO.C,U7*%
X208345000Y-112395000D03*
X208345000Y-113665000D03*
X208345000Y-114935000D03*
X208345000Y-116205000D03*
X208345000Y-117475000D03*
X208345000Y-118745000D03*
X208345000Y-120015000D03*
X208345000Y-121285000D03*
X213295000Y-121285000D03*
X213295000Y-120015000D03*
X213295000Y-118745000D03*
X213295000Y-117475000D03*
X213295000Y-116205000D03*
X213295000Y-114935000D03*
X213295000Y-113665000D03*
X213295000Y-112395000D03*
%TD*%
D11*
%TO.C,SW32*%
X317160323Y-119136521D03*
D12*
X319898250Y-111510496D03*
D13*
X322223100Y-116987500D03*
D12*
X325360383Y-111581951D03*
D11*
X327285877Y-114838479D03*
%TD*%
D14*
%TO.C,D40*%
X293998230Y-173560913D03*
D15*
X292091064Y-174574972D03*
X289177336Y-176124228D03*
D16*
X287270170Y-177138287D03*
%TD*%
D11*
%TO.C,SW46*%
X272167360Y-190757400D03*
D12*
X273955500Y-182854549D03*
D13*
X276930500Y-188007400D03*
D12*
X279385627Y-182259805D03*
D11*
X281693640Y-185257400D03*
%TD*%
%TO.C,SW18*%
X147406264Y-88853052D03*
D12*
X155008043Y-86048511D03*
D13*
X152306800Y-91350000D03*
D12*
X158464297Y-90278678D03*
D11*
X157207336Y-93846948D03*
%TD*%
D22*
%TO.C,D38*%
X294440333Y-92205924D03*
D23*
X292482708Y-93118780D03*
X289491892Y-94513420D03*
D16*
X287534267Y-95426276D03*
%TD*%
D45*
%TO.C,U6*%
X227965000Y-144780000D03*
X234315000Y-144780000D03*
X227965000Y-149860000D03*
X234315000Y-149860000D03*
X228600000Y-167640000D03*
X231140000Y-167640000D03*
X233680000Y-167640000D03*
D46*
X223520000Y-150812500D03*
X223520000Y-164147500D03*
X238760000Y-164147500D03*
X238760000Y-150812500D03*
D45*
X220980000Y-154940000D03*
X220980000Y-157480000D03*
X220980000Y-160020000D03*
%TD*%
D47*
%TO.C,D1*%
X76164421Y-121756136D03*
D48*
X74098803Y-121124613D03*
X70942997Y-120159787D03*
D16*
X68877379Y-119528264D03*
%TD*%
D11*
%TO.C,SW6*%
X104032008Y-83605776D03*
D12*
X111298989Y-80021996D03*
D13*
X109166700Y-85576800D03*
D12*
X115178482Y-83867713D03*
D11*
X114301392Y-87547824D03*
%TD*%
%TO.C,SW11*%
X124562407Y-86869600D03*
D12*
X132061679Y-83801469D03*
D13*
X129547100Y-89194000D03*
D12*
X135663457Y-87908437D03*
D11*
X134531793Y-91518400D03*
%TD*%
D17*
%TO.C,D22*%
X167850657Y-115897600D03*
D18*
X165980042Y-114817600D03*
X163122158Y-113167600D03*
D16*
X161251543Y-112087600D03*
%TD*%
D30*
%TO.C,D16*%
X145496935Y-112682604D03*
D31*
X143572361Y-111701984D03*
X140632039Y-110203816D03*
D16*
X138707465Y-109223196D03*
%TD*%
D11*
%TO.C,SW33*%
X310481189Y-103399236D03*
D12*
X313351791Y-95822156D03*
D13*
X315580700Y-101338900D03*
D12*
X318811845Y-95988928D03*
D11*
X320680211Y-99278564D03*
%TD*%
%TO.C,SW31*%
X329398308Y-84590005D03*
D12*
X333170927Y-77419241D03*
D13*
X334710900Y-83166500D03*
D12*
X338569958Y-78250183D03*
D11*
X340023492Y-81742995D03*
%TD*%
D49*
%TO.C,D30*%
X339710977Y-87106599D03*
D50*
X337624578Y-87665649D03*
X334437022Y-88519751D03*
D16*
X332350623Y-89078801D03*
%TD*%
D51*
%TO.C,D33*%
X314596941Y-88972718D03*
D52*
X312580408Y-89746793D03*
X309499592Y-90929407D03*
D16*
X307483059Y-91703482D03*
%TD*%
D11*
%TO.C,SW39*%
X283847207Y-91518400D03*
D12*
X286317321Y-83801469D03*
D13*
X288831900Y-89194000D03*
D12*
X291778620Y-83682254D03*
D11*
X293816593Y-86869600D03*
%TD*%
D26*
%TO.C,_3*%
X179857258Y-113902100D03*
X180859149Y-113133323D03*
X179692423Y-115154151D03*
X182111200Y-113298158D03*
D27*
X181286200Y-114727100D03*
D26*
X180461200Y-116156042D03*
X182879977Y-114300049D03*
X181713251Y-116320877D03*
X182715142Y-115552100D03*
%TD*%
D53*
%TO.C,D2*%
X81239007Y-105460478D03*
D54*
X79162682Y-104865102D03*
X75990518Y-103955498D03*
D16*
X73914193Y-103360122D03*
%TD*%
D30*
%TO.C,D15*%
X137647135Y-127761804D03*
D31*
X135722561Y-126781184D03*
X132782239Y-125283016D03*
D16*
X130857665Y-124302396D03*
%TD*%
D17*
%TO.C,D23*%
X152939057Y-177725100D03*
D18*
X151068442Y-176645100D03*
X148210558Y-174995100D03*
D16*
X146339943Y-173915100D03*
%TD*%
D22*
%TO.C,D37*%
X301624833Y-107613224D03*
D23*
X299667208Y-108526080D03*
X296676392Y-109920720D03*
D16*
X294718767Y-110833576D03*
%TD*%
D11*
%TO.C,SW37*%
X298216207Y-122332800D03*
D12*
X300686321Y-114615869D03*
D13*
X303200900Y-120008400D03*
D12*
X306147620Y-114496654D03*
D11*
X308185593Y-117684000D03*
%TD*%
D24*
%TO.C,D52*%
X255039057Y-144470300D03*
D25*
X253168442Y-145550300D03*
X250310558Y-147200300D03*
D16*
X248439943Y-148280300D03*
%TD*%
D11*
%TO.C,SW48*%
X263514860Y-141770700D03*
D12*
X265303000Y-133867849D03*
D13*
X268278000Y-139020700D03*
D12*
X270733127Y-133273105D03*
D11*
X273041140Y-136270700D03*
%TD*%
%TO.C,SW45*%
X261215988Y-93932094D03*
D12*
X263278844Y-86096462D03*
D13*
X266072200Y-91350000D03*
D12*
X268726420Y-85691589D03*
D11*
X270928412Y-88767906D03*
%TD*%
D34*
%TO.C,D10*%
X123660233Y-110833576D03*
D35*
X121702608Y-109920720D03*
X118711792Y-108526080D03*
D16*
X116754167Y-107613224D03*
%TD*%
D11*
%TO.C,SW14*%
X123857064Y-134090552D03*
D12*
X131458843Y-131286011D03*
D13*
X128757600Y-136587500D03*
D12*
X134915097Y-135516178D03*
D11*
X133658136Y-139084448D03*
%TD*%
D19*
%TO.C,R1*%
X175340000Y-78025000D03*
X175340000Y-76200000D03*
%TD*%
D24*
%TO.C,D49*%
X257127557Y-112087600D03*
D25*
X255256942Y-113167600D03*
X252399058Y-114817600D03*
D16*
X250528443Y-115897600D03*
%TD*%
D11*
%TO.C,SW9*%
X110193407Y-117684000D03*
D12*
X117692679Y-114615869D03*
D13*
X115178100Y-120008400D03*
D12*
X121294457Y-118722837D03*
D11*
X120162793Y-122332800D03*
%TD*%
%TO.C,SW29*%
X339107324Y-117373144D03*
D12*
X342627388Y-110075087D03*
D13*
X344367000Y-115765100D03*
D12*
X348052130Y-110717099D03*
D11*
X349626676Y-114157056D03*
%TD*%
D26*
%TO.C,_6*%
X303899267Y-133734806D03*
X303888247Y-132471999D03*
X304799999Y-134619953D03*
X304773394Y-131571267D03*
D27*
X305418100Y-133090100D03*
D26*
X306062806Y-134608933D03*
X306036201Y-131560247D03*
X306947953Y-133708201D03*
X306936933Y-132445394D03*
%TD*%
D55*
%TO.C,D28*%
X349501621Y-119528264D03*
D56*
X347436003Y-120159787D03*
X344280197Y-121124613D03*
D16*
X342214579Y-121756136D03*
%TD*%
D11*
%TO.C,SW19*%
X136685360Y-185257400D03*
D12*
X144423500Y-182854549D03*
D13*
X141448500Y-188007400D03*
D12*
X147653627Y-187259805D03*
D11*
X146211640Y-190757400D03*
%TD*%
%TO.C,SW23*%
X162337960Y-106825800D03*
D12*
X170076100Y-104422949D03*
D13*
X167101100Y-109575800D03*
D12*
X173306227Y-108828205D03*
D11*
X171864240Y-112325800D03*
%TD*%
D17*
%TO.C,D27*%
X170935157Y-186664300D03*
D18*
X169064542Y-185584300D03*
X166206658Y-183934300D03*
D16*
X164336043Y-182854300D03*
%TD*%
D17*
%TO.C,D19*%
X142350657Y-160064900D03*
D18*
X140480042Y-158984900D03*
X137622158Y-157334900D03*
D16*
X135751543Y-156254900D03*
%TD*%
D11*
%TO.C,SW2*%
X73695361Y-97991895D03*
D12*
X80622342Y-93788393D03*
D13*
X78982300Y-99507900D03*
D12*
X84822249Y-97281355D03*
D11*
X84269239Y-101023905D03*
%TD*%
D30*
%TO.C,D17*%
X153346635Y-97603404D03*
D31*
X151422061Y-96622784D03*
X148481739Y-95124616D03*
D16*
X146557165Y-94143996D03*
%TD*%
D11*
%TO.C,SW54*%
X235926360Y-129986100D03*
D12*
X237714500Y-122083249D03*
D13*
X240689500Y-127236100D03*
D12*
X243144627Y-121488505D03*
D11*
X245452640Y-124486100D03*
%TD*%
D57*
%TO.C,D29*%
X344464907Y-103360122D03*
D58*
X342388582Y-103955498D03*
X339216418Y-104865102D03*
D16*
X337140093Y-105460478D03*
%TD*%
D59*
%TO.C,D32*%
X321023770Y-104640349D03*
D60*
X319021053Y-105449499D03*
X315961347Y-106685701D03*
D16*
X313958630Y-107494851D03*
%TD*%
D26*
%TO.C,_8*%
X265271058Y-200660000D03*
X265106223Y-199407949D03*
X266272949Y-201428777D03*
X265875000Y-198406058D03*
D27*
X266700000Y-199835000D03*
D26*
X267525000Y-201263942D03*
X267127051Y-198241223D03*
X268293777Y-200262051D03*
X268128942Y-199010000D03*
%TD*%
D34*
%TO.C,D12*%
X138029333Y-80019076D03*
D35*
X136071708Y-79106220D03*
X133080892Y-77711580D03*
D16*
X131123267Y-76798724D03*
%TD*%
D11*
%TO.C,SW8*%
X113027707Y-151831200D03*
D12*
X120526979Y-148763069D03*
D13*
X118012400Y-154155600D03*
D12*
X124128757Y-152870037D03*
D11*
X122997093Y-156480000D03*
%TD*%
%TO.C,SW22*%
X153837960Y-121548300D03*
D12*
X161576100Y-119145449D03*
D13*
X158601100Y-124298300D03*
D12*
X164806227Y-123550705D03*
D11*
X163364240Y-127048300D03*
%TD*%
%TO.C,SW12*%
X131746907Y-71462300D03*
D12*
X139246179Y-68394169D03*
D13*
X136731600Y-73786700D03*
D12*
X142847957Y-72501137D03*
D11*
X141716293Y-76111100D03*
%TD*%
D45*
%TO.C,U5*%
X184785000Y-144780000D03*
X191135000Y-144780000D03*
X184785000Y-149860000D03*
X191135000Y-149860000D03*
X185420000Y-167640000D03*
X187960000Y-167640000D03*
X190500000Y-167640000D03*
D46*
X180340000Y-150812500D03*
X180340000Y-164147500D03*
X195580000Y-164147500D03*
X195580000Y-150812500D03*
D45*
X177800000Y-154940000D03*
X177800000Y-157480000D03*
X177800000Y-160020000D03*
%TD*%
D24*
%TO.C,D48*%
X265627557Y-126810000D03*
D25*
X263756942Y-127890000D03*
X260899058Y-129540000D03*
D16*
X259028443Y-130620000D03*
%TD*%
D11*
%TO.C,SW43*%
X276915488Y-124090394D03*
D12*
X278978344Y-116254762D03*
D13*
X281771700Y-121508300D03*
D12*
X284425920Y-115849889D03*
D11*
X286627912Y-118926206D03*
%TD*%
D14*
%TO.C,D44*%
X271791230Y-94085013D03*
D15*
X269884064Y-95099072D03*
X266970336Y-96648328D03*
D16*
X265063170Y-97662387D03*
%TD*%
D26*
%TO.C,_2*%
X111251267Y-132445394D03*
X112151999Y-131560247D03*
X111240247Y-133708201D03*
X113414806Y-131571267D03*
D27*
X112770100Y-133090100D03*
D26*
X112125394Y-134608933D03*
X114299953Y-132471999D03*
X113388201Y-134619953D03*
X114288933Y-133734806D03*
%TD*%
D61*
%TO.C,D4*%
X97670323Y-123170786D03*
D62*
X95682033Y-122326806D03*
X92644367Y-121037394D03*
D16*
X90656077Y-120193414D03*
%TD*%
D24*
%TO.C,D45*%
X282780057Y-190519100D03*
D25*
X280909442Y-191599100D03*
X278051558Y-193249100D03*
D16*
X276180943Y-194329100D03*
%TD*%
D19*
%TO.C,R5*%
X187140000Y-78025000D03*
X187140000Y-76200000D03*
%TD*%
%TO.C,R7*%
X193040000Y-78025000D03*
X193040000Y-76200000D03*
%TD*%
D14*
%TO.C,D41*%
X295340330Y-139322613D03*
D15*
X293433164Y-140336672D03*
X290519436Y-141885928D03*
D16*
X288612270Y-142899987D03*
%TD*%
D11*
%TO.C,SW49*%
X255014860Y-127048300D03*
D12*
X256803000Y-119145449D03*
D13*
X259778000Y-124298300D03*
D12*
X262233127Y-118550705D03*
D11*
X264541140Y-121548300D03*
%TD*%
%TO.C,SW16*%
X139556564Y-103932152D03*
D12*
X147158343Y-101127611D03*
D13*
X144457100Y-106429100D03*
D12*
X150614597Y-105357778D03*
D11*
X149357636Y-108926048D03*
%TD*%
%TO.C,SW3*%
X78355608Y-81742995D03*
D12*
X85208173Y-77419241D03*
D13*
X83668200Y-83166500D03*
D12*
X89468401Y-80838373D03*
D11*
X88980792Y-84590005D03*
%TD*%
%TO.C,SW15*%
X131706764Y-119011352D03*
D12*
X139308543Y-116206811D03*
D13*
X136607300Y-121508300D03*
D12*
X142764797Y-120436978D03*
D11*
X141507836Y-124005248D03*
%TD*%
D34*
%TO.C,D11*%
X130844833Y-95426276D03*
D35*
X128887208Y-94513420D03*
X125896392Y-93118780D03*
D16*
X123938767Y-92205924D03*
%TD*%
D11*
%TO.C,SW10*%
X117377907Y-102276800D03*
D12*
X124877179Y-99208669D03*
D13*
X122362600Y-104601200D03*
D12*
X128478957Y-103315637D03*
D11*
X127347293Y-106925600D03*
%TD*%
%TO.C,SW53*%
X244426360Y-144708500D03*
D12*
X246214500Y-136805649D03*
D13*
X249189500Y-141958500D03*
D12*
X251644627Y-136210905D03*
D11*
X253952640Y-139208500D03*
%TD*%
%TO.C,SW44*%
X269065788Y-109011194D03*
D12*
X271128644Y-101175562D03*
D13*
X273922000Y-106429100D03*
D12*
X276576220Y-100770689D03*
D11*
X278778212Y-103847006D03*
%TD*%
D14*
%TO.C,D42*%
X287490630Y-124243413D03*
D15*
X285583464Y-125257472D03*
X282669736Y-126806728D03*
D16*
X280762570Y-127820787D03*
%TD*%
D11*
%TO.C,SW51*%
X261426360Y-174153400D03*
D12*
X263214500Y-166250549D03*
D13*
X266189500Y-171403400D03*
D12*
X268644627Y-165655805D03*
D11*
X270952640Y-168653400D03*
%TD*%
D34*
%TO.C,D9*%
X116475733Y-126240776D03*
D35*
X114518108Y-125327920D03*
X111527292Y-123933280D03*
D16*
X109569667Y-123020424D03*
%TD*%
D30*
%TO.C,D13*%
X131139635Y-177079304D03*
D31*
X129215061Y-176098684D03*
X126274739Y-174600516D03*
D16*
X124350165Y-173619896D03*
%TD*%
D17*
%TO.C,D24*%
X161439057Y-163002700D03*
D18*
X159568442Y-161922700D03*
X156710558Y-160272700D03*
D16*
X154839943Y-159192700D03*
%TD*%
M02*
