%TF.GenerationSoftware,KiCad,Pcbnew,7.0.9*%
%TF.CreationDate,2026-03-29T17:48:37-07:00*%
%TF.ProjectId,ergo_unibody,6572676f-5f75-46e6-9962-6f64792e6b69,v1.0.0*%
%TF.SameCoordinates,Original*%
%TF.FileFunction,Legend,Top*%
%TF.FilePolarity,Positive*%
%FSLAX46Y46*%
G04 Gerber Fmt 4.6, Leading zero omitted, Abs format (unit mm)*
G04 Created by KiCad (PCBNEW 7.0.9) date 2026-03-29 17:48:37*
%MOMM*%
%LPD*%
G01*
G04 APERTURE LIST*
%ADD10C,0.150000*%
%ADD11C,0.300000*%
%ADD12C,0.100000*%
%ADD13C,0.120000*%
%ADD14C,0.127000*%
%ADD15C,0.200000*%
G04 APERTURE END LIST*
D10*
X185899636Y-175842676D02*
X188185350Y-175842676D01*
X187042493Y-179842676D02*
X187042493Y-175842676D01*
X189518683Y-179842676D02*
X189518683Y-175842676D01*
X189518683Y-177747438D02*
X191804398Y-177747438D01*
X191804398Y-179842676D02*
X191804398Y-175842676D01*
X193709159Y-179842676D02*
X193709159Y-175842676D01*
X195423445Y-179652200D02*
X195994874Y-179842676D01*
X195994874Y-179842676D02*
X196947255Y-179842676D01*
X196947255Y-179842676D02*
X197328207Y-179652200D01*
X197328207Y-179652200D02*
X197518683Y-179461723D01*
X197518683Y-179461723D02*
X197709160Y-179080771D01*
X197709160Y-179080771D02*
X197709160Y-178699819D01*
X197709160Y-178699819D02*
X197518683Y-178318866D01*
X197518683Y-178318866D02*
X197328207Y-178128390D01*
X197328207Y-178128390D02*
X196947255Y-177937914D01*
X196947255Y-177937914D02*
X196185350Y-177747438D01*
X196185350Y-177747438D02*
X195804398Y-177556961D01*
X195804398Y-177556961D02*
X195613921Y-177366485D01*
X195613921Y-177366485D02*
X195423445Y-176985533D01*
X195423445Y-176985533D02*
X195423445Y-176604580D01*
X195423445Y-176604580D02*
X195613921Y-176223628D01*
X195613921Y-176223628D02*
X195804398Y-176033152D01*
X195804398Y-176033152D02*
X196185350Y-175842676D01*
X196185350Y-175842676D02*
X197137731Y-175842676D01*
X197137731Y-175842676D02*
X197709160Y-176033152D01*
X202471064Y-179842676D02*
X202471064Y-175842676D01*
X204185350Y-179652200D02*
X204756779Y-179842676D01*
X204756779Y-179842676D02*
X205709160Y-179842676D01*
X205709160Y-179842676D02*
X206090112Y-179652200D01*
X206090112Y-179652200D02*
X206280588Y-179461723D01*
X206280588Y-179461723D02*
X206471065Y-179080771D01*
X206471065Y-179080771D02*
X206471065Y-178699819D01*
X206471065Y-178699819D02*
X206280588Y-178318866D01*
X206280588Y-178318866D02*
X206090112Y-178128390D01*
X206090112Y-178128390D02*
X205709160Y-177937914D01*
X205709160Y-177937914D02*
X204947255Y-177747438D01*
X204947255Y-177747438D02*
X204566303Y-177556961D01*
X204566303Y-177556961D02*
X204375826Y-177366485D01*
X204375826Y-177366485D02*
X204185350Y-176985533D01*
X204185350Y-176985533D02*
X204185350Y-176604580D01*
X204185350Y-176604580D02*
X204375826Y-176223628D01*
X204375826Y-176223628D02*
X204566303Y-176033152D01*
X204566303Y-176033152D02*
X204947255Y-175842676D01*
X204947255Y-175842676D02*
X205899636Y-175842676D01*
X205899636Y-175842676D02*
X206471065Y-176033152D01*
X210661541Y-175842676D02*
X212947255Y-175842676D01*
X211804398Y-179842676D02*
X211804398Y-175842676D01*
X214280588Y-179842676D02*
X214280588Y-175842676D01*
X214280588Y-177747438D02*
X216566303Y-177747438D01*
X216566303Y-179842676D02*
X216566303Y-175842676D01*
X218471064Y-177747438D02*
X219804398Y-177747438D01*
X220375826Y-179842676D02*
X218471064Y-179842676D01*
X218471064Y-179842676D02*
X218471064Y-175842676D01*
X218471064Y-175842676D02*
X220375826Y-175842676D01*
X224756779Y-175842676D02*
X225709160Y-179842676D01*
X225709160Y-179842676D02*
X226471065Y-176985533D01*
X226471065Y-176985533D02*
X227232970Y-179842676D01*
X227232970Y-179842676D02*
X228185351Y-175842676D01*
X229518684Y-178699819D02*
X231423446Y-178699819D01*
X229137732Y-179842676D02*
X230471065Y-175842676D01*
X230471065Y-175842676D02*
X231804399Y-179842676D01*
X233899636Y-177937914D02*
X233899636Y-179842676D01*
X232566303Y-175842676D02*
X233899636Y-177937914D01*
X233899636Y-177937914D02*
X235232970Y-175842676D01*
X180044819Y-77279166D02*
X179568628Y-77612499D01*
X180044819Y-77850594D02*
X179044819Y-77850594D01*
X179044819Y-77850594D02*
X179044819Y-77469642D01*
X179044819Y-77469642D02*
X179092438Y-77374404D01*
X179092438Y-77374404D02*
X179140057Y-77326785D01*
X179140057Y-77326785D02*
X179235295Y-77279166D01*
X179235295Y-77279166D02*
X179378152Y-77279166D01*
X179378152Y-77279166D02*
X179473390Y-77326785D01*
X179473390Y-77326785D02*
X179521009Y-77374404D01*
X179521009Y-77374404D02*
X179568628Y-77469642D01*
X179568628Y-77469642D02*
X179568628Y-77850594D01*
X179044819Y-76945832D02*
X179044819Y-76326785D01*
X179044819Y-76326785D02*
X179425771Y-76660118D01*
X179425771Y-76660118D02*
X179425771Y-76517261D01*
X179425771Y-76517261D02*
X179473390Y-76422023D01*
X179473390Y-76422023D02*
X179521009Y-76374404D01*
X179521009Y-76374404D02*
X179616247Y-76326785D01*
X179616247Y-76326785D02*
X179854342Y-76326785D01*
X179854342Y-76326785D02*
X179949580Y-76374404D01*
X179949580Y-76374404D02*
X179997200Y-76422023D01*
X179997200Y-76422023D02*
X180044819Y-76517261D01*
X180044819Y-76517261D02*
X180044819Y-76802975D01*
X180044819Y-76802975D02*
X179997200Y-76898213D01*
X179997200Y-76898213D02*
X179949580Y-76945832D01*
X182994819Y-77279166D02*
X182518628Y-77612499D01*
X182994819Y-77850594D02*
X181994819Y-77850594D01*
X181994819Y-77850594D02*
X181994819Y-77469642D01*
X181994819Y-77469642D02*
X182042438Y-77374404D01*
X182042438Y-77374404D02*
X182090057Y-77326785D01*
X182090057Y-77326785D02*
X182185295Y-77279166D01*
X182185295Y-77279166D02*
X182328152Y-77279166D01*
X182328152Y-77279166D02*
X182423390Y-77326785D01*
X182423390Y-77326785D02*
X182471009Y-77374404D01*
X182471009Y-77374404D02*
X182518628Y-77469642D01*
X182518628Y-77469642D02*
X182518628Y-77850594D01*
X182328152Y-76422023D02*
X182994819Y-76422023D01*
X181947200Y-76660118D02*
X182661485Y-76898213D01*
X182661485Y-76898213D02*
X182661485Y-76279166D01*
X188894819Y-77279166D02*
X188418628Y-77612499D01*
X188894819Y-77850594D02*
X187894819Y-77850594D01*
X187894819Y-77850594D02*
X187894819Y-77469642D01*
X187894819Y-77469642D02*
X187942438Y-77374404D01*
X187942438Y-77374404D02*
X187990057Y-77326785D01*
X187990057Y-77326785D02*
X188085295Y-77279166D01*
X188085295Y-77279166D02*
X188228152Y-77279166D01*
X188228152Y-77279166D02*
X188323390Y-77326785D01*
X188323390Y-77326785D02*
X188371009Y-77374404D01*
X188371009Y-77374404D02*
X188418628Y-77469642D01*
X188418628Y-77469642D02*
X188418628Y-77850594D01*
X187894819Y-76422023D02*
X187894819Y-76612499D01*
X187894819Y-76612499D02*
X187942438Y-76707737D01*
X187942438Y-76707737D02*
X187990057Y-76755356D01*
X187990057Y-76755356D02*
X188132914Y-76850594D01*
X188132914Y-76850594D02*
X188323390Y-76898213D01*
X188323390Y-76898213D02*
X188704342Y-76898213D01*
X188704342Y-76898213D02*
X188799580Y-76850594D01*
X188799580Y-76850594D02*
X188847200Y-76802975D01*
X188847200Y-76802975D02*
X188894819Y-76707737D01*
X188894819Y-76707737D02*
X188894819Y-76517261D01*
X188894819Y-76517261D02*
X188847200Y-76422023D01*
X188847200Y-76422023D02*
X188799580Y-76374404D01*
X188799580Y-76374404D02*
X188704342Y-76326785D01*
X188704342Y-76326785D02*
X188466247Y-76326785D01*
X188466247Y-76326785D02*
X188371009Y-76374404D01*
X188371009Y-76374404D02*
X188323390Y-76422023D01*
X188323390Y-76422023D02*
X188275771Y-76517261D01*
X188275771Y-76517261D02*
X188275771Y-76707737D01*
X188275771Y-76707737D02*
X188323390Y-76802975D01*
X188323390Y-76802975D02*
X188371009Y-76850594D01*
X188371009Y-76850594D02*
X188466247Y-76898213D01*
X177094819Y-77279166D02*
X176618628Y-77612499D01*
X177094819Y-77850594D02*
X176094819Y-77850594D01*
X176094819Y-77850594D02*
X176094819Y-77469642D01*
X176094819Y-77469642D02*
X176142438Y-77374404D01*
X176142438Y-77374404D02*
X176190057Y-77326785D01*
X176190057Y-77326785D02*
X176285295Y-77279166D01*
X176285295Y-77279166D02*
X176428152Y-77279166D01*
X176428152Y-77279166D02*
X176523390Y-77326785D01*
X176523390Y-77326785D02*
X176571009Y-77374404D01*
X176571009Y-77374404D02*
X176618628Y-77469642D01*
X176618628Y-77469642D02*
X176618628Y-77850594D01*
X176190057Y-76898213D02*
X176142438Y-76850594D01*
X176142438Y-76850594D02*
X176094819Y-76755356D01*
X176094819Y-76755356D02*
X176094819Y-76517261D01*
X176094819Y-76517261D02*
X176142438Y-76422023D01*
X176142438Y-76422023D02*
X176190057Y-76374404D01*
X176190057Y-76374404D02*
X176285295Y-76326785D01*
X176285295Y-76326785D02*
X176380533Y-76326785D01*
X176380533Y-76326785D02*
X176523390Y-76374404D01*
X176523390Y-76374404D02*
X177094819Y-76945832D01*
X177094819Y-76945832D02*
X177094819Y-76326785D01*
X210058095Y-110394819D02*
X210058095Y-111204342D01*
X210058095Y-111204342D02*
X210105714Y-111299580D01*
X210105714Y-111299580D02*
X210153333Y-111347200D01*
X210153333Y-111347200D02*
X210248571Y-111394819D01*
X210248571Y-111394819D02*
X210439047Y-111394819D01*
X210439047Y-111394819D02*
X210534285Y-111347200D01*
X210534285Y-111347200D02*
X210581904Y-111299580D01*
X210581904Y-111299580D02*
X210629523Y-111204342D01*
X210629523Y-111204342D02*
X210629523Y-110394819D01*
X211010476Y-110394819D02*
X211677142Y-110394819D01*
X211677142Y-110394819D02*
X211248571Y-111394819D01*
X230378095Y-156934819D02*
X230378095Y-157744342D01*
X230378095Y-157744342D02*
X230425714Y-157839580D01*
X230425714Y-157839580D02*
X230473333Y-157887200D01*
X230473333Y-157887200D02*
X230568571Y-157934819D01*
X230568571Y-157934819D02*
X230759047Y-157934819D01*
X230759047Y-157934819D02*
X230854285Y-157887200D01*
X230854285Y-157887200D02*
X230901904Y-157839580D01*
X230901904Y-157839580D02*
X230949523Y-157744342D01*
X230949523Y-157744342D02*
X230949523Y-156934819D01*
X231854285Y-156934819D02*
X231663809Y-156934819D01*
X231663809Y-156934819D02*
X231568571Y-156982438D01*
X231568571Y-156982438D02*
X231520952Y-157030057D01*
X231520952Y-157030057D02*
X231425714Y-157172914D01*
X231425714Y-157172914D02*
X231378095Y-157363390D01*
X231378095Y-157363390D02*
X231378095Y-157744342D01*
X231378095Y-157744342D02*
X231425714Y-157839580D01*
X231425714Y-157839580D02*
X231473333Y-157887200D01*
X231473333Y-157887200D02*
X231568571Y-157934819D01*
X231568571Y-157934819D02*
X231759047Y-157934819D01*
X231759047Y-157934819D02*
X231854285Y-157887200D01*
X231854285Y-157887200D02*
X231901904Y-157839580D01*
X231901904Y-157839580D02*
X231949523Y-157744342D01*
X231949523Y-157744342D02*
X231949523Y-157506247D01*
X231949523Y-157506247D02*
X231901904Y-157411009D01*
X231901904Y-157411009D02*
X231854285Y-157363390D01*
X231854285Y-157363390D02*
X231759047Y-157315771D01*
X231759047Y-157315771D02*
X231568571Y-157315771D01*
X231568571Y-157315771D02*
X231473333Y-157363390D01*
X231473333Y-157363390D02*
X231425714Y-157411009D01*
X231425714Y-157411009D02*
X231378095Y-157506247D01*
X174144819Y-77279166D02*
X173668628Y-77612499D01*
X174144819Y-77850594D02*
X173144819Y-77850594D01*
X173144819Y-77850594D02*
X173144819Y-77469642D01*
X173144819Y-77469642D02*
X173192438Y-77374404D01*
X173192438Y-77374404D02*
X173240057Y-77326785D01*
X173240057Y-77326785D02*
X173335295Y-77279166D01*
X173335295Y-77279166D02*
X173478152Y-77279166D01*
X173478152Y-77279166D02*
X173573390Y-77326785D01*
X173573390Y-77326785D02*
X173621009Y-77374404D01*
X173621009Y-77374404D02*
X173668628Y-77469642D01*
X173668628Y-77469642D02*
X173668628Y-77850594D01*
X174144819Y-76326785D02*
X174144819Y-76898213D01*
X174144819Y-76612499D02*
X173144819Y-76612499D01*
X173144819Y-76612499D02*
X173287676Y-76707737D01*
X173287676Y-76707737D02*
X173382914Y-76802975D01*
X173382914Y-76802975D02*
X173430533Y-76898213D01*
D11*
X205601428Y-197369757D02*
X205458571Y-197298328D01*
X205458571Y-197298328D02*
X205244285Y-197298328D01*
X205244285Y-197298328D02*
X205029999Y-197369757D01*
X205029999Y-197369757D02*
X204887142Y-197512614D01*
X204887142Y-197512614D02*
X204815713Y-197655471D01*
X204815713Y-197655471D02*
X204744285Y-197941185D01*
X204744285Y-197941185D02*
X204744285Y-198155471D01*
X204744285Y-198155471D02*
X204815713Y-198441185D01*
X204815713Y-198441185D02*
X204887142Y-198584042D01*
X204887142Y-198584042D02*
X205029999Y-198726900D01*
X205029999Y-198726900D02*
X205244285Y-198798328D01*
X205244285Y-198798328D02*
X205387142Y-198798328D01*
X205387142Y-198798328D02*
X205601428Y-198726900D01*
X205601428Y-198726900D02*
X205672856Y-198655471D01*
X205672856Y-198655471D02*
X205672856Y-198155471D01*
X205672856Y-198155471D02*
X205387142Y-198155471D01*
X207172856Y-198798328D02*
X206672856Y-198084042D01*
X206315713Y-198798328D02*
X206315713Y-197298328D01*
X206315713Y-197298328D02*
X206887142Y-197298328D01*
X206887142Y-197298328D02*
X207029999Y-197369757D01*
X207029999Y-197369757D02*
X207101428Y-197441185D01*
X207101428Y-197441185D02*
X207172856Y-197584042D01*
X207172856Y-197584042D02*
X207172856Y-197798328D01*
X207172856Y-197798328D02*
X207101428Y-197941185D01*
X207101428Y-197941185D02*
X207029999Y-198012614D01*
X207029999Y-198012614D02*
X206887142Y-198084042D01*
X206887142Y-198084042D02*
X206315713Y-198084042D01*
X208101428Y-197298328D02*
X208387142Y-197298328D01*
X208387142Y-197298328D02*
X208529999Y-197369757D01*
X208529999Y-197369757D02*
X208672856Y-197512614D01*
X208672856Y-197512614D02*
X208744285Y-197798328D01*
X208744285Y-197798328D02*
X208744285Y-198298328D01*
X208744285Y-198298328D02*
X208672856Y-198584042D01*
X208672856Y-198584042D02*
X208529999Y-198726900D01*
X208529999Y-198726900D02*
X208387142Y-198798328D01*
X208387142Y-198798328D02*
X208101428Y-198798328D01*
X208101428Y-198798328D02*
X207958571Y-198726900D01*
X207958571Y-198726900D02*
X207815713Y-198584042D01*
X207815713Y-198584042D02*
X207744285Y-198298328D01*
X207744285Y-198298328D02*
X207744285Y-197798328D01*
X207744285Y-197798328D02*
X207815713Y-197512614D01*
X207815713Y-197512614D02*
X207958571Y-197369757D01*
X207958571Y-197369757D02*
X208101428Y-197298328D01*
X210172857Y-197369757D02*
X210030000Y-197298328D01*
X210030000Y-197298328D02*
X209815714Y-197298328D01*
X209815714Y-197298328D02*
X209601428Y-197369757D01*
X209601428Y-197369757D02*
X209458571Y-197512614D01*
X209458571Y-197512614D02*
X209387142Y-197655471D01*
X209387142Y-197655471D02*
X209315714Y-197941185D01*
X209315714Y-197941185D02*
X209315714Y-198155471D01*
X209315714Y-198155471D02*
X209387142Y-198441185D01*
X209387142Y-198441185D02*
X209458571Y-198584042D01*
X209458571Y-198584042D02*
X209601428Y-198726900D01*
X209601428Y-198726900D02*
X209815714Y-198798328D01*
X209815714Y-198798328D02*
X209958571Y-198798328D01*
X209958571Y-198798328D02*
X210172857Y-198726900D01*
X210172857Y-198726900D02*
X210244285Y-198655471D01*
X210244285Y-198655471D02*
X210244285Y-198155471D01*
X210244285Y-198155471D02*
X209958571Y-198155471D01*
X210887142Y-197298328D02*
X210887142Y-198512614D01*
X210887142Y-198512614D02*
X210958571Y-198655471D01*
X210958571Y-198655471D02*
X211030000Y-198726900D01*
X211030000Y-198726900D02*
X211172857Y-198798328D01*
X211172857Y-198798328D02*
X211458571Y-198798328D01*
X211458571Y-198798328D02*
X211601428Y-198726900D01*
X211601428Y-198726900D02*
X211672857Y-198655471D01*
X211672857Y-198655471D02*
X211744285Y-198512614D01*
X211744285Y-198512614D02*
X211744285Y-197298328D01*
D10*
X187198095Y-156934819D02*
X187198095Y-157744342D01*
X187198095Y-157744342D02*
X187245714Y-157839580D01*
X187245714Y-157839580D02*
X187293333Y-157887200D01*
X187293333Y-157887200D02*
X187388571Y-157934819D01*
X187388571Y-157934819D02*
X187579047Y-157934819D01*
X187579047Y-157934819D02*
X187674285Y-157887200D01*
X187674285Y-157887200D02*
X187721904Y-157839580D01*
X187721904Y-157839580D02*
X187769523Y-157744342D01*
X187769523Y-157744342D02*
X187769523Y-156934819D01*
X188721904Y-156934819D02*
X188245714Y-156934819D01*
X188245714Y-156934819D02*
X188198095Y-157411009D01*
X188198095Y-157411009D02*
X188245714Y-157363390D01*
X188245714Y-157363390D02*
X188340952Y-157315771D01*
X188340952Y-157315771D02*
X188579047Y-157315771D01*
X188579047Y-157315771D02*
X188674285Y-157363390D01*
X188674285Y-157363390D02*
X188721904Y-157411009D01*
X188721904Y-157411009D02*
X188769523Y-157506247D01*
X188769523Y-157506247D02*
X188769523Y-157744342D01*
X188769523Y-157744342D02*
X188721904Y-157839580D01*
X188721904Y-157839580D02*
X188674285Y-157887200D01*
X188674285Y-157887200D02*
X188579047Y-157934819D01*
X188579047Y-157934819D02*
X188340952Y-157934819D01*
X188340952Y-157934819D02*
X188245714Y-157887200D01*
X188245714Y-157887200D02*
X188198095Y-157839580D01*
X185944819Y-77279166D02*
X185468628Y-77612499D01*
X185944819Y-77850594D02*
X184944819Y-77850594D01*
X184944819Y-77850594D02*
X184944819Y-77469642D01*
X184944819Y-77469642D02*
X184992438Y-77374404D01*
X184992438Y-77374404D02*
X185040057Y-77326785D01*
X185040057Y-77326785D02*
X185135295Y-77279166D01*
X185135295Y-77279166D02*
X185278152Y-77279166D01*
X185278152Y-77279166D02*
X185373390Y-77326785D01*
X185373390Y-77326785D02*
X185421009Y-77374404D01*
X185421009Y-77374404D02*
X185468628Y-77469642D01*
X185468628Y-77469642D02*
X185468628Y-77850594D01*
X184944819Y-76374404D02*
X184944819Y-76850594D01*
X184944819Y-76850594D02*
X185421009Y-76898213D01*
X185421009Y-76898213D02*
X185373390Y-76850594D01*
X185373390Y-76850594D02*
X185325771Y-76755356D01*
X185325771Y-76755356D02*
X185325771Y-76517261D01*
X185325771Y-76517261D02*
X185373390Y-76422023D01*
X185373390Y-76422023D02*
X185421009Y-76374404D01*
X185421009Y-76374404D02*
X185516247Y-76326785D01*
X185516247Y-76326785D02*
X185754342Y-76326785D01*
X185754342Y-76326785D02*
X185849580Y-76374404D01*
X185849580Y-76374404D02*
X185897200Y-76422023D01*
X185897200Y-76422023D02*
X185944819Y-76517261D01*
X185944819Y-76517261D02*
X185944819Y-76755356D01*
X185944819Y-76755356D02*
X185897200Y-76850594D01*
X185897200Y-76850594D02*
X185849580Y-76898213D01*
X191844819Y-77279166D02*
X191368628Y-77612499D01*
X191844819Y-77850594D02*
X190844819Y-77850594D01*
X190844819Y-77850594D02*
X190844819Y-77469642D01*
X190844819Y-77469642D02*
X190892438Y-77374404D01*
X190892438Y-77374404D02*
X190940057Y-77326785D01*
X190940057Y-77326785D02*
X191035295Y-77279166D01*
X191035295Y-77279166D02*
X191178152Y-77279166D01*
X191178152Y-77279166D02*
X191273390Y-77326785D01*
X191273390Y-77326785D02*
X191321009Y-77374404D01*
X191321009Y-77374404D02*
X191368628Y-77469642D01*
X191368628Y-77469642D02*
X191368628Y-77850594D01*
X190844819Y-76945832D02*
X190844819Y-76279166D01*
X190844819Y-76279166D02*
X191844819Y-76707737D01*
%TO.C,SW17*%
X189210000Y-58210000D02*
X186710000Y-58210000D01*
X189210000Y-58210000D02*
X190710000Y-59710000D01*
X186710000Y-58210000D02*
X185210000Y-59710000D01*
X190710000Y-59710000D02*
X190710000Y-62210000D01*
X185210000Y-59710000D02*
X185210000Y-62210000D01*
X189210000Y-63710000D02*
X190710000Y-62210000D01*
X189210000Y-63710000D02*
X186710000Y-63710000D01*
X186710000Y-63710000D02*
X185210000Y-62210000D01*
D12*
%TO.C,D43*%
X276939111Y-110600796D02*
X276585932Y-110788585D01*
X276585932Y-110788585D02*
X276844141Y-111274206D01*
X276585932Y-110788585D02*
X276327722Y-110302964D01*
X276585932Y-110788585D02*
X276243952Y-111423447D01*
X276243952Y-111423447D02*
X275868374Y-110717089D01*
X276056163Y-111070268D02*
X275614689Y-111305004D01*
X275868374Y-110717089D02*
X276585932Y-110788585D01*
%TO.C,D20*%
X148200619Y-143812400D02*
X147854209Y-143612400D01*
X147854209Y-143612400D02*
X147579209Y-144088714D01*
X147854209Y-143612400D02*
X148129209Y-143136086D01*
X147854209Y-143612400D02*
X147134594Y-143658810D01*
X147134594Y-143658810D02*
X147534594Y-142965990D01*
X147334594Y-143312400D02*
X146901581Y-143062400D01*
X147534594Y-142965990D02*
X147854209Y-143612400D01*
%TO.C,D18*%
X139548019Y-192799100D02*
X139201609Y-192599100D01*
X139201609Y-192599100D02*
X138926609Y-193075414D01*
X139201609Y-192599100D02*
X139476609Y-192122786D01*
X139201609Y-192599100D02*
X138481994Y-192645510D01*
X138481994Y-192645510D02*
X138881994Y-191952690D01*
X138681994Y-192299100D02*
X138248981Y-192049100D01*
X138881994Y-191952690D02*
X139201609Y-192599100D01*
D13*
%TO.C,R3*%
X180505000Y-77339564D02*
X180505000Y-76885436D01*
X181975000Y-77339564D02*
X181975000Y-76885436D01*
D12*
%TO.C,D3*%
X83072644Y-88286814D02*
X82686274Y-88183287D01*
X82686274Y-88183287D02*
X82543924Y-88714546D01*
X82686274Y-88183287D02*
X82828625Y-87652027D01*
X82686274Y-88183287D02*
X82003191Y-88414366D01*
X82003191Y-88414366D02*
X82210246Y-87641625D01*
X82106719Y-88027995D02*
X81623756Y-87898586D01*
X82210246Y-87641625D02*
X82686274Y-88183287D01*
%TO.C,D39*%
X284482531Y-78091936D02*
X284120008Y-78260984D01*
X284120008Y-78260984D02*
X284352448Y-78759453D01*
X284120008Y-78260984D02*
X283887568Y-77762514D01*
X284120008Y-78260984D02*
X283745270Y-78877078D01*
X283745270Y-78877078D02*
X283407176Y-78152031D01*
X283576223Y-78514555D02*
X283123069Y-78725864D01*
X283407176Y-78152031D02*
X284120008Y-78260984D01*
%TO.C,D50*%
X269389019Y-175445100D02*
X269042609Y-175645100D01*
X269042609Y-175645100D02*
X269317609Y-176121414D01*
X269042609Y-175645100D02*
X268767609Y-175168786D01*
X269042609Y-175645100D02*
X268722994Y-176291510D01*
X268722994Y-176291510D02*
X268322994Y-175598690D01*
X268522994Y-175945100D02*
X268089981Y-176195100D01*
X268322994Y-175598690D02*
X269042609Y-175645100D01*
%TO.C,D31*%
X324906179Y-121389052D02*
X324537977Y-121545344D01*
X324537977Y-121545344D02*
X324752879Y-122051622D01*
X324537977Y-121545344D02*
X324323075Y-121039066D01*
X324537977Y-121545344D02*
X324141966Y-122147985D01*
X324141966Y-122147985D02*
X323829381Y-121411581D01*
X323985674Y-121779783D02*
X323525421Y-121975148D01*
X323829381Y-121411581D02*
X324537977Y-121545344D01*
%TO.C,D53*%
X243889019Y-131277800D02*
X243542609Y-131477800D01*
X243542609Y-131477800D02*
X243817609Y-131954114D01*
X243542609Y-131477800D02*
X243267609Y-131001486D01*
X243542609Y-131477800D02*
X243222994Y-132124210D01*
X243222994Y-132124210D02*
X242822994Y-131431390D01*
X243022994Y-131777800D02*
X242589981Y-132027800D01*
X242822994Y-131431390D02*
X243542609Y-131477800D01*
D13*
%TO.C,R4*%
X183455000Y-77339564D02*
X183455000Y-76885436D01*
X184925000Y-77339564D02*
X184925000Y-76885436D01*
D12*
%TO.C,D54*%
X251978619Y-184309100D02*
X251632209Y-184509100D01*
X251632209Y-184509100D02*
X251907209Y-184985414D01*
X251632209Y-184509100D02*
X251357209Y-184032786D01*
X251632209Y-184509100D02*
X251312594Y-185155510D01*
X251312594Y-185155510D02*
X250912594Y-184462690D01*
X251112594Y-184809100D02*
X250679581Y-185059100D01*
X250912594Y-184462690D02*
X251632209Y-184509100D01*
%TO.C,D25*%
X167289019Y-146750300D02*
X166942609Y-146550300D01*
X166942609Y-146550300D02*
X166667609Y-147026614D01*
X166942609Y-146550300D02*
X167217609Y-146073986D01*
X166942609Y-146550300D02*
X166222994Y-146596710D01*
X166222994Y-146596710D02*
X166622994Y-145903890D01*
X166422994Y-146250300D02*
X165989981Y-146000300D01*
X166622994Y-145903890D02*
X166942609Y-146550300D01*
%TO.C,D26*%
X175789019Y-132027800D02*
X175442609Y-131827800D01*
X175442609Y-131827800D02*
X175167609Y-132304114D01*
X175442609Y-131827800D02*
X175717609Y-131351486D01*
X175442609Y-131827800D02*
X174722994Y-131874210D01*
X174722994Y-131874210D02*
X175122994Y-131181390D01*
X174922994Y-131527800D02*
X174489981Y-131277800D01*
X175122994Y-131181390D02*
X175442609Y-131827800D01*
%TO.C,D36*%
X306036031Y-124313636D02*
X305673508Y-124482684D01*
X305673508Y-124482684D02*
X305905948Y-124981153D01*
X305673508Y-124482684D02*
X305441068Y-123984214D01*
X305673508Y-124482684D02*
X305298770Y-125098778D01*
X305298770Y-125098778D02*
X304960676Y-124373731D01*
X305129723Y-124736255D02*
X304676569Y-124947564D01*
X304960676Y-124373731D02*
X305673508Y-124482684D01*
%TO.C,D14*%
X127070955Y-141451793D02*
X126714552Y-141270197D01*
X126714552Y-141270197D02*
X126464858Y-141760250D01*
X126714552Y-141270197D02*
X126964247Y-140780143D01*
X126714552Y-141270197D02*
X125998352Y-141354205D01*
X125998352Y-141354205D02*
X126361545Y-140641400D01*
X126179948Y-140997802D02*
X125734445Y-140770807D01*
X126361545Y-140641400D02*
X126714552Y-141270197D01*
%TO.C,D7*%
X114219369Y-74754915D02*
X113843492Y-74618107D01*
X113843492Y-74618107D02*
X113655381Y-75134938D01*
X113843492Y-74618107D02*
X114031603Y-74101276D01*
X113843492Y-74618107D02*
X113142869Y-74788772D01*
X113142869Y-74788772D02*
X113416485Y-74037018D01*
X113279677Y-74412895D02*
X112809831Y-74241885D01*
X113416485Y-74037018D02*
X113843492Y-74618107D01*
%TO.C,D35*%
X303201731Y-158460836D02*
X302839208Y-158629884D01*
X302839208Y-158629884D02*
X303071648Y-159128353D01*
X302839208Y-158629884D02*
X302606768Y-158131414D01*
X302839208Y-158629884D02*
X302464470Y-159245978D01*
X302464470Y-159245978D02*
X302126376Y-158520931D01*
X302295423Y-158883455D02*
X301842269Y-159094764D01*
X302126376Y-158520931D02*
X302839208Y-158629884D01*
D13*
%TO.C,R6*%
X189355000Y-77339564D02*
X189355000Y-76885436D01*
X190825000Y-77339564D02*
X190825000Y-76885436D01*
D12*
%TO.C,D8*%
X116536831Y-159094764D02*
X116174308Y-158925716D01*
X116174308Y-158925716D02*
X115941868Y-159424186D01*
X116174308Y-158925716D02*
X116406748Y-158427247D01*
X116174308Y-158925716D02*
X115461476Y-159034669D01*
X115461476Y-159034669D02*
X115799570Y-158309622D01*
X115630523Y-158672145D02*
X115177369Y-158460836D01*
X115799570Y-158309622D02*
X116174308Y-158925716D01*
%TO.C,D5*%
X101583288Y-106348555D02*
X101212414Y-106198712D01*
X101212414Y-106198712D02*
X101006381Y-106708663D01*
X101212414Y-106198712D02*
X101418448Y-105688761D01*
X101212414Y-106198712D02*
X100506261Y-106344822D01*
X100506261Y-106344822D02*
X100805947Y-105603075D01*
X100656104Y-105973948D02*
X100192512Y-105786645D01*
X100805947Y-105603075D02*
X101212414Y-106198712D01*
%TO.C,D21*%
X156700619Y-129090000D02*
X156354209Y-128890000D01*
X156354209Y-128890000D02*
X156079209Y-129366314D01*
X156354209Y-128890000D02*
X156629209Y-128413686D01*
X156354209Y-128890000D02*
X155634594Y-128936410D01*
X155634594Y-128936410D02*
X156034594Y-128243590D01*
X155834594Y-128590000D02*
X155401581Y-128340000D01*
X156034594Y-128243590D02*
X156354209Y-128890000D01*
%TO.C,D46*%
X279977519Y-157784900D02*
X279631109Y-157984900D01*
X279631109Y-157984900D02*
X279906109Y-158461214D01*
X279631109Y-157984900D02*
X279356109Y-157508586D01*
X279631109Y-157984900D02*
X279311494Y-158631310D01*
X279311494Y-158631310D02*
X278911494Y-157938490D01*
X279111494Y-158284900D02*
X278678481Y-158534900D01*
X278911494Y-157938490D02*
X279631109Y-157984900D01*
%TO.C,D34*%
X305569169Y-74241885D02*
X305193292Y-74378693D01*
X305193292Y-74378693D02*
X305381403Y-74895524D01*
X305193292Y-74378693D02*
X305005181Y-73861862D01*
X305193292Y-74378693D02*
X304766285Y-74959782D01*
X304766285Y-74959782D02*
X304492669Y-74208028D01*
X304629477Y-74583905D02*
X304159631Y-74754915D01*
X304492669Y-74208028D02*
X305193292Y-74378693D01*
%TO.C,D6*%
X108039185Y-90606876D02*
X107665753Y-90463529D01*
X107665753Y-90463529D02*
X107468651Y-90976998D01*
X107665753Y-90463529D02*
X107862856Y-89950060D01*
X107665753Y-90463529D02*
X106962258Y-90621940D01*
X106962258Y-90621940D02*
X107248952Y-89875076D01*
X107105605Y-90248508D02*
X106638815Y-90069324D01*
X107248952Y-89875076D02*
X107665753Y-90463529D01*
%TO.C,D47*%
X271477519Y-143062400D02*
X271131109Y-143262400D01*
X271131109Y-143262400D02*
X271406109Y-143738714D01*
X271131109Y-143262400D02*
X270856109Y-142786086D01*
X271131109Y-143262400D02*
X270811494Y-143908810D01*
X270811494Y-143908810D02*
X270411494Y-143215990D01*
X270611494Y-143562400D02*
X270178481Y-143812400D01*
X270411494Y-143215990D02*
X271131109Y-143262400D01*
%TO.C,D51*%
X260889019Y-160722700D02*
X260542609Y-160922700D01*
X260542609Y-160922700D02*
X260817609Y-161399014D01*
X260542609Y-160922700D02*
X260267609Y-160446386D01*
X260542609Y-160922700D02*
X260222994Y-161569110D01*
X260222994Y-161569110D02*
X259822994Y-160876290D01*
X260022994Y-161222700D02*
X259589981Y-161472700D01*
X259822994Y-160876290D02*
X260542609Y-160922700D01*
D13*
%TO.C,R2*%
X177555000Y-77339564D02*
X177555000Y-76885436D01*
X179025000Y-77339564D02*
X179025000Y-76885436D01*
%TO.C,U7*%
X210820000Y-111780000D02*
X207370000Y-111780000D01*
X210820000Y-111780000D02*
X212770000Y-111780000D01*
X210820000Y-121900000D02*
X208870000Y-121900000D01*
X210820000Y-121900000D02*
X212770000Y-121900000D01*
D12*
%TO.C,D40*%
X291296411Y-174997496D02*
X290943232Y-175185285D01*
X290943232Y-175185285D02*
X291201441Y-175670906D01*
X290943232Y-175185285D02*
X290685022Y-174699664D01*
X290943232Y-175185285D02*
X290601252Y-175820147D01*
X290601252Y-175820147D02*
X290225674Y-175113789D01*
X290413463Y-175466968D02*
X289971989Y-175701704D01*
X290225674Y-175113789D02*
X290943232Y-175185285D01*
%TO.C,D38*%
X291667031Y-93499136D02*
X291304508Y-93668184D01*
X291304508Y-93668184D02*
X291536948Y-94166653D01*
X291304508Y-93668184D02*
X291072068Y-93169714D01*
X291304508Y-93668184D02*
X290929770Y-94284278D01*
X290929770Y-94284278D02*
X290591676Y-93559231D01*
X290760723Y-93921755D02*
X290307569Y-94133064D01*
X290591676Y-93559231D02*
X291304508Y-93668184D01*
D14*
%TO.C,U6*%
X220040000Y-152580000D02*
X223190000Y-152580000D01*
X220040000Y-162380000D02*
X220040000Y-152580000D01*
X223190000Y-162380000D02*
X220040000Y-162380000D01*
X223190000Y-162650000D02*
X223190000Y-162380000D01*
X225070000Y-149480000D02*
X225690000Y-149480000D01*
X225690000Y-143180000D02*
X236590000Y-143180000D01*
X225690000Y-149480000D02*
X225690000Y-143180000D01*
X226290000Y-165380000D02*
X225070000Y-165380000D01*
X226290000Y-168580000D02*
X226290000Y-165380000D01*
X235990000Y-165380000D02*
X235990000Y-168580000D01*
X236590000Y-143180000D02*
X236590000Y-149480000D01*
X236590000Y-149480000D02*
X237220000Y-149480000D01*
X237220000Y-165380000D02*
X235990000Y-165380000D01*
X239090000Y-153380000D02*
X240640000Y-153380000D01*
X239090000Y-161480000D02*
X239090000Y-162600000D01*
X240640000Y-153380000D02*
X240640000Y-161480000D01*
X240640000Y-161480000D02*
X239090000Y-161480000D01*
D15*
X225190000Y-144130000D02*
G75*
G03*
X225190000Y-144130000I-100000J0D01*
G01*
D12*
%TO.C,D1*%
X73238129Y-120861479D02*
X72855607Y-120744530D01*
X72855607Y-120744530D02*
X72694802Y-121270498D01*
X72855607Y-120744530D02*
X73016411Y-120218562D01*
X72855607Y-120744530D02*
X72164875Y-120951629D01*
X72164875Y-120951629D02*
X72398772Y-120186585D01*
X72281824Y-120569107D02*
X71803671Y-120422921D01*
X72398772Y-120186585D02*
X72855607Y-120744530D01*
%TO.C,D22*%
X165200619Y-114367600D02*
X164854209Y-114167600D01*
X164854209Y-114167600D02*
X164579209Y-114643914D01*
X164854209Y-114167600D02*
X165129209Y-113691286D01*
X164854209Y-114167600D02*
X164134594Y-114214010D01*
X164134594Y-114214010D02*
X164534594Y-113521190D01*
X164334594Y-113867600D02*
X163901581Y-113617600D01*
X164534594Y-113521190D02*
X164854209Y-114167600D01*
%TO.C,D16*%
X142770455Y-111293393D02*
X142414052Y-111111797D01*
X142414052Y-111111797D02*
X142164358Y-111601850D01*
X142414052Y-111111797D02*
X142663747Y-110621743D01*
X142414052Y-111111797D02*
X141697852Y-111195805D01*
X141697852Y-111195805D02*
X142061045Y-110483000D01*
X141879448Y-110839402D02*
X141433945Y-110612407D01*
X142061045Y-110483000D02*
X142414052Y-111111797D01*
%TO.C,D30*%
X336755244Y-87898586D02*
X336368874Y-88002113D01*
X336368874Y-88002113D02*
X336511225Y-88533373D01*
X336368874Y-88002113D02*
X336226524Y-87470854D01*
X336368874Y-88002113D02*
X335892846Y-88543775D01*
X335892846Y-88543775D02*
X335685791Y-87771034D01*
X335789319Y-88157405D02*
X335306356Y-88286814D01*
X335685791Y-87771034D02*
X336368874Y-88002113D01*
%TO.C,D33*%
X311740185Y-90069324D02*
X311366753Y-90212671D01*
X311366753Y-90212671D02*
X311563856Y-90726140D01*
X311366753Y-90212671D02*
X311169651Y-89699202D01*
X311366753Y-90212671D02*
X310949952Y-90801124D01*
X310949952Y-90801124D02*
X310663258Y-90054260D01*
X310806605Y-90427692D02*
X310339815Y-90606876D01*
X310663258Y-90054260D02*
X311366753Y-90212671D01*
%TO.C,D2*%
X78297546Y-104617028D02*
X77913042Y-104506773D01*
X77913042Y-104506773D02*
X77761441Y-105035467D01*
X77913042Y-104506773D02*
X78064642Y-103978079D01*
X77913042Y-104506773D02*
X77226030Y-104725895D01*
X77226030Y-104725895D02*
X77446540Y-103956886D01*
X77336285Y-104341391D02*
X76855654Y-104203572D01*
X77446540Y-103956886D02*
X77913042Y-104506773D01*
%TO.C,D15*%
X134920655Y-126372593D02*
X134564252Y-126190997D01*
X134564252Y-126190997D02*
X134314558Y-126681050D01*
X134564252Y-126190997D02*
X134813947Y-125700943D01*
X134564252Y-126190997D02*
X133848052Y-126275005D01*
X133848052Y-126275005D02*
X134211245Y-125562200D01*
X134029648Y-125918602D02*
X133584145Y-125691607D01*
X134211245Y-125562200D02*
X134564252Y-126190997D01*
%TO.C,D23*%
X150289019Y-176195100D02*
X149942609Y-175995100D01*
X149942609Y-175995100D02*
X149667609Y-176471414D01*
X149942609Y-175995100D02*
X150217609Y-175518786D01*
X149942609Y-175995100D02*
X149222994Y-176041510D01*
X149222994Y-176041510D02*
X149622994Y-175348690D01*
X149422994Y-175695100D02*
X148989981Y-175445100D01*
X149622994Y-175348690D02*
X149942609Y-175995100D01*
%TO.C,D37*%
X298851531Y-108906436D02*
X298489008Y-109075484D01*
X298489008Y-109075484D02*
X298721448Y-109573953D01*
X298489008Y-109075484D02*
X298256568Y-108577014D01*
X298489008Y-109075484D02*
X298114270Y-109691578D01*
X298114270Y-109691578D02*
X297776176Y-108966531D01*
X297945223Y-109329055D02*
X297492069Y-109540364D01*
X297776176Y-108966531D02*
X298489008Y-109075484D01*
%TO.C,D52*%
X252389019Y-146000300D02*
X252042609Y-146200300D01*
X252042609Y-146200300D02*
X252317609Y-146676614D01*
X252042609Y-146200300D02*
X251767609Y-145723986D01*
X252042609Y-146200300D02*
X251722994Y-146846710D01*
X251722994Y-146846710D02*
X251322994Y-146153890D01*
X251522994Y-146500300D02*
X251089981Y-146750300D01*
X251322994Y-146153890D02*
X252042609Y-146200300D01*
%TO.C,D10*%
X120886931Y-109540364D02*
X120524408Y-109371316D01*
X120524408Y-109371316D02*
X120291968Y-109869786D01*
X120524408Y-109371316D02*
X120756848Y-108872847D01*
X120524408Y-109371316D02*
X119811576Y-109480269D01*
X119811576Y-109480269D02*
X120149670Y-108755222D01*
X119980623Y-109117745D02*
X119527469Y-108906436D01*
X120149670Y-108755222D02*
X120524408Y-109371316D01*
D13*
%TO.C,R1*%
X174605000Y-77339564D02*
X174605000Y-76885436D01*
X176075000Y-77339564D02*
X176075000Y-76885436D01*
D12*
%TO.C,D49*%
X254477519Y-113617600D02*
X254131109Y-113817600D01*
X254131109Y-113817600D02*
X254406109Y-114293914D01*
X254131109Y-113817600D02*
X253856109Y-113341286D01*
X254131109Y-113817600D02*
X253811494Y-114464010D01*
X253811494Y-114464010D02*
X253411494Y-113771190D01*
X253611494Y-114117600D02*
X253178481Y-114367600D01*
X253411494Y-113771190D02*
X254131109Y-113817600D01*
%TO.C,GROGU*%
G36*
X204723084Y-197592825D02*
G01*
X204917114Y-197640482D01*
X204978000Y-197700922D01*
X204899501Y-197776999D01*
X204687327Y-197857960D01*
X204376458Y-197933566D01*
X204001875Y-197993575D01*
X203962000Y-197998354D01*
X203125688Y-198164618D01*
X202374226Y-198453337D01*
X201721287Y-198853852D01*
X201180545Y-199355504D01*
X200765674Y-199947633D01*
X200490347Y-200619582D01*
X200461876Y-200726812D01*
X200369424Y-200982802D01*
X200258836Y-201136064D01*
X200155372Y-201173367D01*
X200084293Y-201081480D01*
X200067333Y-200933463D01*
X200112322Y-200615345D01*
X200233492Y-200213193D01*
X200410143Y-199781856D01*
X200621580Y-199376183D01*
X200705755Y-199241649D01*
X201154422Y-198715426D01*
X201738508Y-198276924D01*
X202444367Y-197933530D01*
X203258356Y-197692631D01*
X203718957Y-197610446D01*
X204085601Y-197575047D01*
X204433112Y-197570094D01*
X204723084Y-197592825D01*
G37*
G36*
X215311370Y-196169081D02*
G01*
X216051464Y-196426437D01*
X216716995Y-196832344D01*
X216930063Y-197008453D01*
X217156418Y-197244646D01*
X217367621Y-197525685D01*
X217548739Y-197821260D01*
X217684837Y-198101061D01*
X217760982Y-198334779D01*
X217762240Y-198492105D01*
X217686312Y-198543333D01*
X217602416Y-198479967D01*
X217450953Y-198312584D01*
X217262361Y-198075255D01*
X217232311Y-198035135D01*
X216718682Y-197453239D01*
X216143537Y-197014080D01*
X215496656Y-196714311D01*
X214767820Y-196550583D01*
X213946809Y-196519549D01*
X213023402Y-196617861D01*
X212945793Y-196631041D01*
X212598989Y-196686531D01*
X212319276Y-196722104D01*
X212145292Y-196733326D01*
X212108228Y-196727117D01*
X212107530Y-196630790D01*
X212237965Y-196510354D01*
X212467819Y-196388121D01*
X212714909Y-196300272D01*
X213635974Y-196104802D01*
X214503834Y-196061470D01*
X215311370Y-196169081D01*
G37*
G36*
X204345979Y-199285480D02*
G01*
X204941898Y-199368142D01*
X205531404Y-199498174D01*
X206068084Y-199666304D01*
X206505524Y-199863260D01*
X206671333Y-199968771D01*
X206837172Y-200130872D01*
X207002317Y-200356605D01*
X207148650Y-200608966D01*
X207258055Y-200850949D01*
X207312415Y-201045551D01*
X207293612Y-201155767D01*
X207258469Y-201168000D01*
X207134756Y-201108730D01*
X206995422Y-200977500D01*
X206667135Y-200608659D01*
X206376436Y-200339428D01*
X206080157Y-200146140D01*
X205735128Y-200005126D01*
X205298182Y-199892718D01*
X204865290Y-199809585D01*
X204087413Y-199735513D01*
X203370169Y-199795664D01*
X202730504Y-199986126D01*
X202185365Y-200302988D01*
X201987786Y-200473678D01*
X201793194Y-200701384D01*
X201569962Y-201021257D01*
X201360377Y-201371702D01*
X201322185Y-201443167D01*
X201116388Y-201813270D01*
X200967198Y-202026973D01*
X200875410Y-202083761D01*
X200841822Y-201983117D01*
X200864817Y-201739500D01*
X201050966Y-201082867D01*
X201379425Y-200499447D01*
X201832607Y-200006717D01*
X202392925Y-199622151D01*
X203042793Y-199363224D01*
X203320558Y-199299358D01*
X203790061Y-199259462D01*
X204345979Y-199285480D01*
G37*
G36*
X215237786Y-197699339D02*
G01*
X215786128Y-197862748D01*
X215815333Y-197876032D01*
X216120153Y-198054167D01*
X216432281Y-198297754D01*
X216729551Y-198580599D01*
X216989800Y-198876504D01*
X217190862Y-199159275D01*
X217310573Y-199402714D01*
X217326769Y-199580626D01*
X217298233Y-199628655D01*
X217223459Y-199592047D01*
X217059970Y-199454436D01*
X216833963Y-199239195D01*
X216637946Y-199039581D01*
X216301875Y-198705181D01*
X216029928Y-198478453D01*
X215785025Y-198331306D01*
X215609750Y-198260582D01*
X214982455Y-198128693D01*
X214318545Y-198146599D01*
X213608480Y-198315896D01*
X212842723Y-198638179D01*
X212603557Y-198763382D01*
X212148993Y-199033603D01*
X211819512Y-199294355D01*
X211578537Y-199586558D01*
X211389488Y-199951134D01*
X211276572Y-200247886D01*
X211143740Y-200609427D01*
X211044981Y-200821823D01*
X210969531Y-200899220D01*
X210906628Y-200855762D01*
X210871467Y-200780272D01*
X210849058Y-200570327D01*
X210883997Y-200262593D01*
X210966207Y-199914611D01*
X211077827Y-199601667D01*
X211316028Y-199225769D01*
X211696135Y-198843776D01*
X212192637Y-198474981D01*
X212780022Y-198138681D01*
X213343362Y-197888232D01*
X213967735Y-197712322D01*
X214615432Y-197649277D01*
X215237786Y-197699339D01*
G37*
G36*
X215068304Y-199242633D02*
G01*
X215599787Y-199423504D01*
X216128316Y-199745232D01*
X216540710Y-200087284D01*
X216787603Y-200324429D01*
X216925803Y-200512628D01*
X216962114Y-200699193D01*
X216903339Y-200931439D01*
X216756283Y-201256678D01*
X216719628Y-201331459D01*
X216349661Y-201898938D01*
X215858654Y-202355935D01*
X215257795Y-202697753D01*
X214558271Y-202919691D01*
X213771269Y-203017053D01*
X212907975Y-202985139D01*
X212809666Y-202973639D01*
X212596423Y-202937913D01*
X212287937Y-202875560D01*
X211973029Y-202805142D01*
X211390393Y-202668301D01*
X211439222Y-202145396D01*
X211576514Y-201433340D01*
X211841066Y-200776840D01*
X212216373Y-200205721D01*
X212608967Y-199824533D01*
X214396438Y-199824533D01*
X214422979Y-200030520D01*
X214508700Y-200158299D01*
X214693509Y-200301423D01*
X214874178Y-200288005D01*
X214988669Y-200215500D01*
X215107488Y-200050913D01*
X215153018Y-199901015D01*
X215135255Y-199732507D01*
X214997761Y-199629087D01*
X214943032Y-199607933D01*
X214684926Y-199577173D01*
X214493241Y-199661395D01*
X214396438Y-199824533D01*
X212608967Y-199824533D01*
X212685929Y-199749807D01*
X212816258Y-199657227D01*
X213245052Y-199417180D01*
X213688441Y-199270498D01*
X214205060Y-199200968D01*
X214505502Y-199190113D01*
X215068304Y-199242633D01*
G37*
G36*
X204694369Y-200622712D02*
G01*
X204980406Y-200645731D01*
X205215113Y-200698693D01*
X205457435Y-200793529D01*
X205672787Y-200895944D01*
X206235746Y-201254515D01*
X206707286Y-201719405D01*
X207063562Y-202259960D01*
X207280731Y-202845526D01*
X207311728Y-203002993D01*
X207367995Y-203354869D01*
X206913831Y-203616905D01*
X206273123Y-203926311D01*
X205581465Y-204155559D01*
X204882388Y-204295973D01*
X204219422Y-204338878D01*
X203636099Y-204275597D01*
X203623333Y-204272677D01*
X202946948Y-204031079D01*
X202348579Y-203641325D01*
X201838159Y-203110305D01*
X201725764Y-202956723D01*
X201487396Y-202612758D01*
X201701506Y-202250212D01*
X202168825Y-201602645D01*
X202233165Y-201543918D01*
X204439126Y-201543918D01*
X204547405Y-201716282D01*
X204752105Y-201826257D01*
X204897277Y-201845333D01*
X205084802Y-201804093D01*
X205177792Y-201648769D01*
X205185552Y-201619916D01*
X205181774Y-201376757D01*
X205064270Y-201205582D01*
X204879604Y-201123782D01*
X204674344Y-201148749D01*
X204495053Y-201297874D01*
X204463161Y-201350110D01*
X204439126Y-201543918D01*
X202233165Y-201543918D01*
X202727618Y-201092604D01*
X202996564Y-200914038D01*
X203237071Y-200775285D01*
X203432534Y-200688351D01*
X203635986Y-200641160D01*
X203900463Y-200621638D01*
X204278999Y-200617708D01*
X204298054Y-200617705D01*
X204694369Y-200622712D01*
G37*
G36*
X210570524Y-202840905D02*
G01*
X210786062Y-203001172D01*
X210987742Y-203208797D01*
X211126057Y-203415109D01*
X211158666Y-203531702D01*
X211074266Y-203867977D01*
X210821763Y-204210573D01*
X210510054Y-204480253D01*
X210075444Y-204735467D01*
X209638869Y-204837949D01*
X209166511Y-204791694D01*
X208815496Y-204680380D01*
X208529127Y-204570842D01*
X208290445Y-204481679D01*
X208174166Y-204440151D01*
X208079260Y-204364668D01*
X208034542Y-204193946D01*
X208026000Y-203978763D01*
X208046632Y-203694450D01*
X208130849Y-203476112D01*
X208312124Y-203237291D01*
X208313875Y-203235273D01*
X208485548Y-203059151D01*
X208616083Y-202964293D01*
X208660375Y-202960888D01*
X208670443Y-203066904D01*
X208635453Y-203281287D01*
X208584166Y-203481919D01*
X208489502Y-203828359D01*
X208455758Y-204044549D01*
X208490509Y-204160954D01*
X208601333Y-204208037D01*
X208766833Y-204216316D01*
X209062610Y-204263408D01*
X209347253Y-204377177D01*
X209361546Y-204385650D01*
X209619044Y-204519232D01*
X209791456Y-204535644D01*
X209918944Y-204431672D01*
X209976841Y-204336444D01*
X210188220Y-204081611D01*
X210490630Y-203959056D01*
X210657234Y-203943266D01*
X210774647Y-203940058D01*
X210839372Y-203921407D01*
X210843416Y-203861736D01*
X210778783Y-203735469D01*
X210637481Y-203517029D01*
X210425399Y-203201512D01*
X210280033Y-202967794D01*
X210238730Y-202837961D01*
X210299207Y-202784122D01*
X210390638Y-202776667D01*
X210570524Y-202840905D01*
G37*
G36*
X196316462Y-199738142D02*
G01*
X196596272Y-199947588D01*
X196844525Y-200176129D01*
X197207031Y-200604126D01*
X197485507Y-201115010D01*
X197699012Y-201745509D01*
X197737440Y-201896806D01*
X197822698Y-202264298D01*
X197856601Y-202506364D01*
X197820794Y-202632026D01*
X197696917Y-202650303D01*
X197466615Y-202570217D01*
X197111531Y-202400787D01*
X196913682Y-202301590D01*
X196079084Y-201904399D01*
X195289714Y-201580890D01*
X194515036Y-201324690D01*
X193724513Y-201129425D01*
X192887606Y-200988718D01*
X191973778Y-200896198D01*
X190952493Y-200845487D01*
X189865000Y-200830245D01*
X189269495Y-200825714D01*
X188696490Y-200814266D01*
X188179397Y-200797107D01*
X187751626Y-200775446D01*
X187446587Y-200750490D01*
X187367333Y-200740001D01*
X186912003Y-200652836D01*
X186459314Y-200541374D01*
X186051200Y-200418183D01*
X185729599Y-200295832D01*
X185544863Y-200193782D01*
X185480940Y-200133832D01*
X185491642Y-200098822D01*
X185600912Y-200085616D01*
X185832689Y-200091079D01*
X186182000Y-200110336D01*
X186574243Y-200119469D01*
X187095893Y-200110081D01*
X187708207Y-200083636D01*
X188372441Y-200041598D01*
X188722000Y-200014353D01*
X189520781Y-199959293D01*
X190454506Y-199914588D01*
X191489034Y-199881447D01*
X192590220Y-199861081D01*
X193195603Y-199855846D01*
X193975092Y-199850569D01*
X194600961Y-199843224D01*
X195088917Y-199833081D01*
X195454669Y-199819412D01*
X195713924Y-199801489D01*
X195882390Y-199778583D01*
X195975775Y-199749966D01*
X196005264Y-199725542D01*
X196121215Y-199665069D01*
X196316462Y-199738142D01*
G37*
G36*
X231392232Y-193243958D02*
G01*
X231322641Y-193350413D01*
X231110392Y-193532569D01*
X230904698Y-193685920D01*
X230557749Y-193921068D01*
X230185503Y-194139601D01*
X229764937Y-194351603D01*
X229273028Y-194567162D01*
X228686752Y-194796365D01*
X227983085Y-195049297D01*
X227139006Y-195336045D01*
X227135204Y-195337311D01*
X226139612Y-195679640D01*
X225283466Y-196001243D01*
X224540634Y-196316864D01*
X223884984Y-196641249D01*
X223290385Y-196989141D01*
X222730705Y-197375284D01*
X222179814Y-197814422D01*
X221611579Y-198321300D01*
X221268640Y-198647410D01*
X220957745Y-198945199D01*
X220690162Y-199195385D01*
X220489116Y-199376719D01*
X220377830Y-199467950D01*
X220364566Y-199474667D01*
X220327795Y-199398448D01*
X220285176Y-199201869D01*
X220257027Y-199011858D01*
X220213014Y-198289623D01*
X220263425Y-197627496D01*
X220404371Y-197060852D01*
X220494515Y-196850000D01*
X220668686Y-196535491D01*
X220849009Y-196265191D01*
X221013978Y-196065082D01*
X221142088Y-195961144D01*
X221211833Y-195979358D01*
X221212842Y-195982195D01*
X221314612Y-196080759D01*
X221356237Y-196088000D01*
X221467608Y-196062447D01*
X221712359Y-195991370D01*
X222063346Y-195883140D01*
X222493422Y-195746129D01*
X222975442Y-195588710D01*
X222979015Y-195587529D01*
X223801147Y-195320093D01*
X224549371Y-195086963D01*
X225269595Y-194875163D01*
X226007729Y-194671717D01*
X226809682Y-194463646D01*
X227721364Y-194237976D01*
X227946727Y-194183346D01*
X228517048Y-194040636D01*
X229099839Y-193886245D01*
X229648182Y-193733192D01*
X230115156Y-193594499D01*
X230394122Y-193504184D01*
X230751846Y-193383283D01*
X231050570Y-193286387D01*
X231253902Y-193225054D01*
X231322561Y-193209333D01*
X231392232Y-193243958D01*
G37*
G36*
X210852825Y-195570974D02*
G01*
X210944732Y-195632161D01*
X211052775Y-195792899D01*
X211004180Y-195896644D01*
X210803243Y-195939072D01*
X210643181Y-195935686D01*
X210189420Y-195964627D01*
X209645975Y-196110026D01*
X209147833Y-196307730D01*
X208920797Y-196425169D01*
X208814757Y-196542548D01*
X208788013Y-196706745D01*
X208788000Y-196712251D01*
X208797482Y-196868948D01*
X208823442Y-197159680D01*
X208862148Y-197550360D01*
X208909867Y-198006900D01*
X208962867Y-198495211D01*
X209017417Y-198981206D01*
X209069785Y-199430798D01*
X209116239Y-199809898D01*
X209153046Y-200084419D01*
X209166900Y-200173167D01*
X209150821Y-200352415D01*
X209055256Y-200415446D01*
X208928216Y-200339434D01*
X208899773Y-200300167D01*
X208860024Y-200179886D01*
X208800478Y-199928282D01*
X208728916Y-199581101D01*
X208653117Y-199174091D01*
X208646398Y-199136000D01*
X208519301Y-198414289D01*
X208417600Y-197842592D01*
X208338055Y-197404028D01*
X208277423Y-197081718D01*
X208232464Y-196858782D01*
X208199935Y-196718338D01*
X208176597Y-196643508D01*
X208163387Y-196620498D01*
X208039644Y-196579627D01*
X207791000Y-196550629D01*
X207461513Y-196534109D01*
X207095240Y-196530672D01*
X206736239Y-196540921D01*
X206428566Y-196565461D01*
X206254974Y-196594327D01*
X206000149Y-196644307D01*
X205817566Y-196659471D01*
X205763318Y-196647540D01*
X205779175Y-196558257D01*
X205886893Y-196408769D01*
X205906352Y-196387506D01*
X206221706Y-196172444D01*
X206666510Y-196054591D01*
X207230392Y-196035631D01*
X207739132Y-196089472D01*
X208124000Y-196142443D01*
X208378334Y-196158059D01*
X208536650Y-196136818D01*
X208606516Y-196101978D01*
X208962022Y-195891228D01*
X209374873Y-195719373D01*
X209807724Y-195593917D01*
X210223230Y-195522362D01*
X210584045Y-195512213D01*
X210852825Y-195570974D01*
G37*
G36*
X232203614Y-190849976D02*
G01*
X232477904Y-190956998D01*
X232768641Y-191152641D01*
X232947754Y-191402115D01*
X233043007Y-191751225D01*
X233063276Y-191922667D01*
X233050806Y-192574728D01*
X232912736Y-193279661D01*
X232664574Y-193996727D01*
X232321826Y-194685187D01*
X231899999Y-195304304D01*
X231678837Y-195559743D01*
X231366944Y-195935314D01*
X231172534Y-196268404D01*
X231131836Y-196384333D01*
X231007679Y-196801545D01*
X230833248Y-197318318D01*
X230625505Y-197890398D01*
X230401414Y-198473530D01*
X230177938Y-199023458D01*
X229972042Y-199495928D01*
X229814858Y-199820108D01*
X229203753Y-200822562D01*
X228461318Y-201778061D01*
X227625556Y-202640196D01*
X227210598Y-203000534D01*
X226794863Y-203340469D01*
X227422264Y-203833308D01*
X227925100Y-204238754D01*
X228317769Y-204582171D01*
X228632023Y-204893904D01*
X228899615Y-205204298D01*
X229018780Y-205359000D01*
X229290830Y-205740976D01*
X229447441Y-206003349D01*
X229490158Y-206148944D01*
X229468062Y-206179362D01*
X229378768Y-206181577D01*
X229127502Y-206183396D01*
X228721625Y-206184823D01*
X228168500Y-206185864D01*
X227475486Y-206186525D01*
X226649945Y-206186812D01*
X225699239Y-206186730D01*
X224630728Y-206186286D01*
X223451774Y-206185485D01*
X222169737Y-206184333D01*
X220791980Y-206182836D01*
X219325863Y-206180999D01*
X217778747Y-206178829D01*
X216157994Y-206176331D01*
X214470965Y-206173512D01*
X212725021Y-206170376D01*
X210927523Y-206166930D01*
X209159390Y-206163333D01*
X188914447Y-206121000D01*
X188327244Y-205440357D01*
X187735922Y-204718431D01*
X187209699Y-204003517D01*
X186781286Y-203340392D01*
X186733986Y-203259463D01*
X186540804Y-202981182D01*
X186302151Y-202773348D01*
X186009706Y-202605839D01*
X185419853Y-202248557D01*
X184868418Y-201802244D01*
X184375451Y-201292961D01*
X183961003Y-200746770D01*
X183645124Y-200189733D01*
X183447866Y-199647910D01*
X183388316Y-199198592D01*
X183396818Y-199142202D01*
X184147711Y-199142202D01*
X184187867Y-199429377D01*
X184304754Y-199787424D01*
X184418079Y-200040767D01*
X184811534Y-200661622D01*
X185344766Y-201228397D01*
X185990272Y-201713320D01*
X186194301Y-201834535D01*
X186523528Y-202020780D01*
X186764907Y-202170001D01*
X186950141Y-202314060D01*
X187110929Y-202484819D01*
X187278971Y-202714141D01*
X187485969Y-203033888D01*
X187654415Y-203302105D01*
X187925052Y-203713075D01*
X188222040Y-204130063D01*
X188523575Y-204525850D01*
X188807855Y-204873216D01*
X189053077Y-205144941D01*
X189237439Y-205313805D01*
X189293500Y-205348434D01*
X189347332Y-205329955D01*
X189380522Y-205201201D01*
X189385478Y-205120353D01*
X190116977Y-205120353D01*
X190165042Y-205278190D01*
X190205304Y-205375978D01*
X190344914Y-205654465D01*
X190489865Y-205854664D01*
X190615173Y-205947115D01*
X190677300Y-205932500D01*
X190726132Y-205815323D01*
X190777563Y-205594056D01*
X190797853Y-205472353D01*
X190824213Y-205224808D01*
X190799416Y-205086260D01*
X190708578Y-205000302D01*
X190667109Y-204976810D01*
X190446133Y-204919790D01*
X190276031Y-204968199D01*
X190150620Y-205036358D01*
X190116977Y-205120353D01*
X189385478Y-205120353D01*
X189396518Y-204940275D01*
X189396567Y-204935667D01*
X189804053Y-204935667D01*
X189985991Y-204745167D01*
X190243298Y-204583934D01*
X190540577Y-204553890D01*
X190825443Y-204644893D01*
X191045512Y-204846801D01*
X191105918Y-204961981D01*
X191195731Y-205189667D01*
X191278268Y-204978000D01*
X191391235Y-204716466D01*
X192532000Y-204716466D01*
X192559774Y-204834536D01*
X192629768Y-205042155D01*
X192721987Y-205287825D01*
X192816436Y-205520050D01*
X192893120Y-205687334D01*
X192929409Y-205740000D01*
X192979153Y-205669114D01*
X193073552Y-205484496D01*
X193176436Y-205261116D01*
X193290104Y-204982088D01*
X193328302Y-204815994D01*
X193297524Y-204727594D01*
X193277610Y-204712079D01*
X193128088Y-204664047D01*
X192916739Y-204643397D01*
X192706852Y-204649755D01*
X192561712Y-204682750D01*
X192532000Y-204716466D01*
X191391235Y-204716466D01*
X191422520Y-204644037D01*
X191557623Y-204432251D01*
X191715635Y-204300577D01*
X191840604Y-204240137D01*
X192030271Y-204172342D01*
X192120510Y-204185233D01*
X192165543Y-204288312D01*
X192167979Y-204297525D01*
X192221549Y-204428867D01*
X192315194Y-204458395D01*
X192492552Y-204390912D01*
X192585822Y-204343521D01*
X192912463Y-204229296D01*
X193198012Y-204265205D01*
X193415620Y-204396228D01*
X193608256Y-204511478D01*
X193729907Y-204491143D01*
X193733688Y-204487511D01*
X193870350Y-204425090D01*
X193918150Y-204430103D01*
X194054926Y-204469500D01*
X194283127Y-204530403D01*
X194373500Y-204553750D01*
X194618821Y-204644732D01*
X194729802Y-204750882D01*
X194733333Y-204772970D01*
X194770625Y-204933585D01*
X194862612Y-205149384D01*
X194979461Y-205364380D01*
X195091340Y-205522586D01*
X195158387Y-205570667D01*
X195217473Y-205497307D01*
X195241333Y-205326046D01*
X195257393Y-205254949D01*
X195595364Y-205254949D01*
X195601923Y-205507004D01*
X195715176Y-205766274D01*
X195728166Y-205784702D01*
X195877758Y-205939240D01*
X195984900Y-205931236D01*
X196051362Y-205759715D01*
X196071192Y-205595660D01*
X196053793Y-205319441D01*
X195971130Y-205118922D01*
X195845338Y-205025277D01*
X195698552Y-205069678D01*
X195698029Y-205070111D01*
X195595364Y-205254949D01*
X195257393Y-205254949D01*
X195312446Y-205011237D01*
X195510480Y-204797663D01*
X195812475Y-204708350D01*
X195858568Y-204707067D01*
X196061443Y-204691762D01*
X196167966Y-204653864D01*
X196172666Y-204642787D01*
X196105256Y-204505651D01*
X195920181Y-204297980D01*
X195643177Y-204039295D01*
X195299980Y-203749121D01*
X194916324Y-203446978D01*
X194517944Y-203152390D01*
X194130577Y-202884878D01*
X193779957Y-202663966D01*
X193491819Y-202509175D01*
X193291899Y-202440027D01*
X193266463Y-202438181D01*
X193098245Y-202476668D01*
X192841732Y-202576870D01*
X192582077Y-202702051D01*
X192014276Y-202930762D01*
X191439077Y-203044694D01*
X190864505Y-203147513D01*
X190436555Y-203305504D01*
X190137286Y-203533934D01*
X189948757Y-203848070D01*
X189853027Y-204263179D01*
X189840011Y-204405362D01*
X189804053Y-204935667D01*
X189396567Y-204935667D01*
X189399333Y-204676290D01*
X189420687Y-204162208D01*
X189493452Y-203774633D01*
X189630680Y-203475139D01*
X189845427Y-203225300D01*
X189912214Y-203166551D01*
X190152981Y-202984445D01*
X190393824Y-202859410D01*
X190683844Y-202774376D01*
X191072145Y-202712273D01*
X191290377Y-202687434D01*
X191635709Y-202637258D01*
X191936937Y-202569269D01*
X192135863Y-202496997D01*
X192152809Y-202486933D01*
X192549203Y-202236695D01*
X192866216Y-202074896D01*
X193140043Y-202003994D01*
X193406878Y-202026445D01*
X193702917Y-202144705D01*
X194064356Y-202361232D01*
X194479333Y-202644847D01*
X194829367Y-202876664D01*
X195065091Y-203000210D01*
X195198432Y-203020077D01*
X195241316Y-202940856D01*
X195241333Y-202938188D01*
X195284915Y-202817489D01*
X195386402Y-202663720D01*
X195501909Y-202532594D01*
X195587550Y-202479827D01*
X195598517Y-202484740D01*
X195614893Y-202585736D01*
X195610793Y-202797141D01*
X195599826Y-202938783D01*
X195585204Y-203185310D01*
X195619815Y-203350036D01*
X195732033Y-203500484D01*
X195903890Y-203662390D01*
X196146882Y-203929035D01*
X196374092Y-204258890D01*
X196556185Y-204600306D01*
X196663825Y-204901631D01*
X196680666Y-205030032D01*
X196688354Y-205218379D01*
X196729732Y-205346135D01*
X196832278Y-205425038D01*
X197023465Y-205466825D01*
X197330768Y-205483231D01*
X197748058Y-205486000D01*
X198712666Y-205486000D01*
X198712666Y-204766333D01*
X198721031Y-204441128D01*
X198743354Y-204192405D01*
X198775475Y-204059028D01*
X198789683Y-204046667D01*
X198839189Y-204123684D01*
X198898925Y-204327031D01*
X198957055Y-204615146D01*
X198964490Y-204660500D01*
X199016977Y-204975821D01*
X199063565Y-205231035D01*
X199094822Y-205374705D01*
X199096483Y-205380167D01*
X199134422Y-205398696D01*
X199241229Y-205415072D01*
X199425433Y-205429405D01*
X199695563Y-205441808D01*
X200060147Y-205452393D01*
X200527715Y-205461274D01*
X201106796Y-205468561D01*
X201805919Y-205474368D01*
X202633613Y-205478807D01*
X203598407Y-205481989D01*
X204708829Y-205484028D01*
X205973410Y-205485036D01*
X207070842Y-205485178D01*
X215011000Y-205484356D01*
X215098978Y-205414279D01*
X215900000Y-205414279D01*
X215979550Y-205442623D01*
X216198066Y-205461986D01*
X216525341Y-205470819D01*
X216931170Y-205467575D01*
X216937166Y-205467439D01*
X217974333Y-205443667D01*
X217990140Y-205334572D01*
X218629707Y-205334572D01*
X218638990Y-205656281D01*
X218647461Y-205705027D01*
X218710971Y-205921006D01*
X218795689Y-205976002D01*
X218909578Y-205869083D01*
X219030168Y-205660231D01*
X219142236Y-205361548D01*
X219125532Y-205162675D01*
X218981284Y-205069341D01*
X218902313Y-205062667D01*
X218719083Y-205132662D01*
X218629707Y-205334572D01*
X217990140Y-205334572D01*
X218023402Y-205105000D01*
X218103014Y-204739459D01*
X218179886Y-204552469D01*
X218623592Y-204552469D01*
X218658243Y-204659471D01*
X218830431Y-204704143D01*
X218921778Y-204707067D01*
X219212906Y-204762091D01*
X219387413Y-204934005D01*
X219454586Y-205233075D01*
X219456000Y-205297571D01*
X219482296Y-205501419D01*
X219557323Y-205547901D01*
X219675290Y-205439966D01*
X219830407Y-205180564D01*
X219879333Y-205081971D01*
X220024971Y-204813338D01*
X220048488Y-204787500D01*
X221405192Y-204787500D01*
X221439451Y-204956009D01*
X221522252Y-205181868D01*
X221628207Y-205410254D01*
X221731928Y-205586341D01*
X221807065Y-205655333D01*
X221869635Y-205581368D01*
X221944916Y-205415575D01*
X223944629Y-205415575D01*
X223970167Y-205752801D01*
X224044098Y-205944587D01*
X224157297Y-205984405D01*
X224300636Y-205865726D01*
X224387833Y-205732603D01*
X224492045Y-205478091D01*
X224535994Y-205228918D01*
X224536000Y-205226752D01*
X224500227Y-205033902D01*
X224362931Y-204939361D01*
X224315245Y-204925820D01*
X224116130Y-204920773D01*
X223997869Y-205038812D01*
X223948120Y-205296247D01*
X223944629Y-205415575D01*
X221944916Y-205415575D01*
X221956677Y-205389674D01*
X222029542Y-205182227D01*
X222104874Y-204924699D01*
X222147467Y-204741496D01*
X222150206Y-204680651D01*
X222045776Y-204650205D01*
X221848103Y-204628379D01*
X221633268Y-204622097D01*
X221551500Y-204626165D01*
X221426869Y-204706978D01*
X221405192Y-204787500D01*
X220048488Y-204787500D01*
X220171269Y-204652603D01*
X220372417Y-204547016D01*
X220462244Y-204514540D01*
X220730481Y-204446949D01*
X220963103Y-204427735D01*
X221024507Y-204435778D01*
X221195042Y-204438689D01*
X221272093Y-204392193D01*
X221392008Y-204332374D01*
X221616547Y-204305199D01*
X221884224Y-204310433D01*
X222133553Y-204347836D01*
X222270030Y-204396053D01*
X222427926Y-204445656D01*
X222539666Y-204366125D01*
X222548964Y-204353720D01*
X222719096Y-204234041D01*
X222923634Y-204248575D01*
X223128704Y-204376577D01*
X223300429Y-204597303D01*
X223402280Y-204876237D01*
X223462793Y-205057137D01*
X223536477Y-205147289D01*
X223592430Y-205122253D01*
X223604666Y-205036298D01*
X223658364Y-204898366D01*
X223777298Y-204739965D01*
X224021338Y-204589926D01*
X224318738Y-204557239D01*
X224599639Y-204643107D01*
X224705333Y-204724000D01*
X224828587Y-204838853D01*
X224881144Y-204872167D01*
X224914629Y-204566289D01*
X224871593Y-204200214D01*
X224767679Y-203846868D01*
X224618531Y-203579179D01*
X224599028Y-203557014D01*
X224440695Y-203403447D01*
X224276496Y-203293538D01*
X224065800Y-203211430D01*
X223767976Y-203141267D01*
X223344942Y-203067603D01*
X222752259Y-202940359D01*
X222277467Y-202764508D01*
X222117041Y-202681279D01*
X221800486Y-202523092D01*
X221564317Y-202459962D01*
X221397402Y-202468819D01*
X221212102Y-202542562D01*
X220926399Y-202699483D01*
X220572690Y-202917701D01*
X220183374Y-203175335D01*
X219790848Y-203450505D01*
X219427512Y-203721329D01*
X219125762Y-203965926D01*
X218970431Y-204107938D01*
X218727360Y-204372252D01*
X218623592Y-204552469D01*
X218179886Y-204552469D01*
X218240612Y-204404756D01*
X218452625Y-204082259D01*
X218755484Y-203753341D01*
X219165619Y-203399370D01*
X219699461Y-203001719D01*
X220155718Y-202687286D01*
X220619110Y-202382627D01*
X220979702Y-202173515D01*
X221270525Y-202054389D01*
X221524615Y-202019689D01*
X221775005Y-202063856D01*
X222054728Y-202181328D01*
X222319545Y-202323074D01*
X222698568Y-202512063D01*
X223051885Y-202625449D01*
X223471621Y-202691830D01*
X223525617Y-202697472D01*
X224135340Y-202802889D01*
X224604557Y-202990196D01*
X224944964Y-203272798D01*
X225168254Y-203664101D01*
X225286120Y-204177510D01*
X225311869Y-204745167D01*
X225301982Y-205486000D01*
X226696991Y-205486000D01*
X227161562Y-205483225D01*
X227560581Y-205475546D01*
X227866124Y-205463931D01*
X228050265Y-205449350D01*
X228092000Y-205437619D01*
X228074537Y-205389575D01*
X228009051Y-205312958D01*
X227875898Y-205189961D01*
X227655432Y-205002776D01*
X227328009Y-204733594D01*
X227203000Y-204631756D01*
X226419810Y-204017819D01*
X225597786Y-203415604D01*
X224768174Y-202845776D01*
X223962223Y-202328998D01*
X223211180Y-201885934D01*
X222546293Y-201537247D01*
X222464954Y-201498586D01*
X222081568Y-201326405D01*
X221790560Y-201220011D01*
X221535508Y-201164368D01*
X221259991Y-201144438D01*
X221131028Y-201143098D01*
X220780119Y-201157133D01*
X220494865Y-201212826D01*
X220193938Y-201330555D01*
X219994983Y-201427761D01*
X219503886Y-201732359D01*
X218964621Y-202164915D01*
X218403531Y-202701327D01*
X217846958Y-203317495D01*
X217605120Y-203614209D01*
X217294378Y-203985922D01*
X216944126Y-204370369D01*
X216609735Y-204707979D01*
X216462480Y-204843515D01*
X216211041Y-205072432D01*
X216017611Y-205264081D01*
X215911490Y-205388729D01*
X215900000Y-205414279D01*
X215098978Y-205414279D01*
X215355427Y-205210011D01*
X215875085Y-204785797D01*
X216291662Y-204419049D01*
X216643087Y-204073478D01*
X216967287Y-203712793D01*
X217146517Y-203496333D01*
X217733879Y-202796538D01*
X218267740Y-202219122D01*
X218774263Y-201737038D01*
X219156576Y-201418128D01*
X219426660Y-201186576D01*
X219637204Y-200969595D01*
X219752749Y-200804627D01*
X219761918Y-200778952D01*
X219824630Y-200609027D01*
X219903830Y-200600375D01*
X220002031Y-200710768D01*
X220094673Y-200792166D01*
X220236067Y-200799732D01*
X220434698Y-200753573D01*
X221017750Y-200672553D01*
X221647136Y-200727079D01*
X222279025Y-200909364D01*
X222813346Y-201176042D01*
X223003426Y-201281323D01*
X223124229Y-201325498D01*
X223139747Y-201322474D01*
X223150030Y-201211547D01*
X223112591Y-200977968D01*
X223037166Y-200658370D01*
X222933493Y-200289388D01*
X222811309Y-199907656D01*
X222680349Y-199549808D01*
X222646224Y-199465587D01*
X222524796Y-199149328D01*
X222447295Y-198898791D01*
X222423852Y-198749590D01*
X222435338Y-198724200D01*
X222558250Y-198760448D01*
X222742276Y-198908827D01*
X222958936Y-199137778D01*
X223179749Y-199415743D01*
X223376232Y-199711166D01*
X223456503Y-199855667D01*
X223612671Y-200204668D01*
X223704116Y-200543553D01*
X223752039Y-200955189D01*
X223756859Y-201029577D01*
X223796885Y-201695488D01*
X224759917Y-202320744D01*
X225124535Y-202551197D01*
X225446998Y-202743365D01*
X225696826Y-202879914D01*
X225843534Y-202943513D01*
X225859556Y-202946000D01*
X226028166Y-202889359D01*
X226285942Y-202734531D01*
X226603415Y-202504155D01*
X226951113Y-202220871D01*
X227299567Y-201907318D01*
X227592641Y-201614589D01*
X228135590Y-200975126D01*
X228672176Y-200224853D01*
X229164514Y-199419335D01*
X229427048Y-198924333D01*
X229603096Y-198534629D01*
X229797737Y-198045280D01*
X229993798Y-197505815D01*
X230174104Y-196965766D01*
X230321483Y-196474661D01*
X230418760Y-196082031D01*
X230426796Y-196040989D01*
X230508684Y-195816298D01*
X230687457Y-195539667D01*
X230979057Y-195187448D01*
X231071249Y-195085037D01*
X231625870Y-194377664D01*
X232019733Y-193651202D01*
X232250133Y-192912297D01*
X232314366Y-192167597D01*
X232308742Y-192043625D01*
X232253498Y-191749985D01*
X232136234Y-191613744D01*
X231957892Y-191635107D01*
X231719414Y-191814281D01*
X231637898Y-191897113D01*
X231363141Y-192151678D01*
X231029486Y-192384603D01*
X230620517Y-192602259D01*
X230119819Y-192811017D01*
X229510975Y-193017245D01*
X228777570Y-193227316D01*
X227903188Y-193447598D01*
X227251629Y-193599238D01*
X225717562Y-193966141D01*
X224301136Y-194346495D01*
X222950673Y-194755799D01*
X221614492Y-195209554D01*
X220486132Y-195628402D01*
X219912130Y-195846580D01*
X219467289Y-196008644D01*
X219124032Y-196122567D01*
X218854782Y-196196323D01*
X218631963Y-196237886D01*
X218427997Y-196255229D01*
X218310962Y-196257333D01*
X218025352Y-196267898D01*
X217813764Y-196295448D01*
X217727897Y-196329760D01*
X217752687Y-196429563D01*
X217864964Y-196606016D01*
X217965208Y-196731927D01*
X218240013Y-197079089D01*
X218501548Y-197455747D01*
X218734246Y-197833463D01*
X218922541Y-198183799D01*
X219050866Y-198478318D01*
X219103657Y-198688584D01*
X219083438Y-198774784D01*
X219007576Y-198794252D01*
X219003590Y-198790278D01*
X218934731Y-198694510D01*
X218788988Y-198484022D01*
X218583929Y-198184636D01*
X218337120Y-197822177D01*
X218066131Y-197422466D01*
X217788528Y-197011329D01*
X217521879Y-196614587D01*
X217424424Y-196469000D01*
X217101917Y-195990515D01*
X216852168Y-195635731D01*
X216655879Y-195386222D01*
X216493755Y-195223560D01*
X216346498Y-195129320D01*
X216194814Y-195085076D01*
X216019405Y-195072401D01*
X215961465Y-195072000D01*
X215751411Y-195056787D01*
X215519185Y-195003422D01*
X215231192Y-194900310D01*
X214853833Y-194735858D01*
X214489268Y-194564000D01*
X214081589Y-194376743D01*
X213707502Y-194220601D01*
X213403347Y-194109662D01*
X213205467Y-194058012D01*
X213178730Y-194056000D01*
X212925630Y-194019912D01*
X212740600Y-193950167D01*
X212573571Y-193902962D01*
X212256797Y-193860686D01*
X211809844Y-193825319D01*
X211252274Y-193798843D01*
X211243333Y-193798529D01*
X210644402Y-193771380D01*
X210171249Y-193733604D01*
X209780399Y-193679899D01*
X209428381Y-193604962D01*
X209240540Y-193554205D01*
X208550081Y-193355685D01*
X208285667Y-193543964D01*
X208079750Y-193664990D01*
X207906623Y-193681907D01*
X207770077Y-193644683D01*
X207476257Y-193626100D01*
X207095551Y-193738087D01*
X206642134Y-193975350D01*
X206332666Y-194181649D01*
X206040757Y-194351022D01*
X205639795Y-194513604D01*
X205103512Y-194679621D01*
X204935666Y-194725412D01*
X204415002Y-194877042D01*
X204017326Y-195019928D01*
X203761480Y-195146982D01*
X203708000Y-195187232D01*
X203505305Y-195350220D01*
X203242153Y-195537761D01*
X203133412Y-195609240D01*
X202866274Y-195786659D01*
X202620067Y-195969869D01*
X202354294Y-196191759D01*
X202028460Y-196485217D01*
X201843239Y-196657045D01*
X201533798Y-196913133D01*
X201189093Y-197149453D01*
X200902446Y-197305646D01*
X200625195Y-197443723D01*
X200423967Y-197595757D01*
X200274190Y-197797587D01*
X200151293Y-198085053D01*
X200030702Y-198493995D01*
X199995834Y-198628000D01*
X199870766Y-199102778D01*
X199730644Y-199612408D01*
X199583556Y-200129850D01*
X199437591Y-200628065D01*
X199300840Y-201080011D01*
X199181393Y-201458648D01*
X199087338Y-201736937D01*
X199026765Y-201887836D01*
X199015412Y-201905154D01*
X198968373Y-201888844D01*
X198954356Y-201738698D01*
X198969065Y-201486051D01*
X199008206Y-201162240D01*
X199067486Y-200798598D01*
X199142609Y-200426462D01*
X199229283Y-200077166D01*
X199295773Y-199859340D01*
X199402500Y-199527460D01*
X199477988Y-199259658D01*
X199512274Y-199093229D01*
X199509767Y-199058212D01*
X199416139Y-199066590D01*
X199280316Y-199136512D01*
X199214947Y-199163829D01*
X199101217Y-199186911D01*
X198926059Y-199206108D01*
X198676404Y-199221767D01*
X198339186Y-199234238D01*
X197901335Y-199243870D01*
X197349785Y-199251010D01*
X196671467Y-199256008D01*
X195853314Y-199259213D01*
X194882257Y-199260972D01*
X194606333Y-199261234D01*
X193501861Y-199263313D01*
X192546097Y-199267981D01*
X191718428Y-199275756D01*
X190998241Y-199287157D01*
X190364923Y-199302699D01*
X189797861Y-199322900D01*
X189276443Y-199348278D01*
X188780056Y-199379351D01*
X188288086Y-199416635D01*
X188232076Y-199421243D01*
X187659293Y-199464743D01*
X187120641Y-199498272D01*
X186646878Y-199520492D01*
X186268761Y-199530062D01*
X186017047Y-199525642D01*
X185961907Y-199520162D01*
X185687660Y-199449858D01*
X185344023Y-199322019D01*
X185021628Y-199172345D01*
X184727581Y-199029721D01*
X184475062Y-198926127D01*
X184315099Y-198882304D01*
X184307297Y-198882000D01*
X184186712Y-198951281D01*
X184147711Y-199142202D01*
X183396818Y-199142202D01*
X183442422Y-198839744D01*
X183586253Y-198527346D01*
X183793043Y-198307827D01*
X183941710Y-198238587D01*
X184287498Y-198212645D01*
X184706656Y-198270876D01*
X185133261Y-198401167D01*
X185340261Y-198495518D01*
X185636722Y-198629800D01*
X185932255Y-198731965D01*
X186037380Y-198757280D01*
X186206849Y-198767783D01*
X186517485Y-198766293D01*
X186941617Y-198753774D01*
X187451574Y-198731190D01*
X188019686Y-198699506D01*
X188400753Y-198674917D01*
X189598176Y-198597122D01*
X190662357Y-198536647D01*
X191628411Y-198492624D01*
X192531448Y-198464187D01*
X193406584Y-198450471D01*
X194288929Y-198450608D01*
X195213598Y-198463733D01*
X196088000Y-198485275D01*
X196918864Y-198506956D01*
X197596320Y-198518759D01*
X198136096Y-198518936D01*
X198553920Y-198505740D01*
X198865522Y-198477420D01*
X199086630Y-198432229D01*
X199232973Y-198368417D01*
X199320281Y-198284238D01*
X199364282Y-198177941D01*
X199374465Y-198119930D01*
X199492545Y-197564109D01*
X199695603Y-197143644D01*
X199995993Y-196840925D01*
X200406068Y-196638338D01*
X200416026Y-196635003D01*
X200809765Y-196443571D01*
X201264854Y-196108380D01*
X201447028Y-195949952D01*
X201778456Y-195663734D01*
X202130465Y-195379373D01*
X202440960Y-195146529D01*
X202519001Y-195092622D01*
X202825507Y-194877006D01*
X203128014Y-194647942D01*
X203303698Y-194503848D01*
X203541690Y-194327625D01*
X203774685Y-194202531D01*
X203854032Y-194176193D01*
X204460895Y-194032716D01*
X204937612Y-193904133D01*
X205320881Y-193776422D01*
X205647402Y-193635562D01*
X205953874Y-193467530D01*
X206276996Y-193258307D01*
X206302947Y-193240548D01*
X206639019Y-193014456D01*
X206882146Y-192869399D01*
X207076619Y-192787216D01*
X207266730Y-192749744D01*
X207496771Y-192738824D01*
X207527467Y-192738453D01*
X207814596Y-192719496D01*
X208038064Y-192675884D01*
X208128579Y-192632620D01*
X208320198Y-192549291D01*
X208626624Y-192542994D01*
X209013083Y-192611388D01*
X209346245Y-192714547D01*
X209572052Y-192787249D01*
X209814480Y-192840832D01*
X210108041Y-192879296D01*
X210487252Y-192906635D01*
X210986626Y-192926849D01*
X211243333Y-192934251D01*
X211808055Y-192953185D01*
X212223948Y-192977040D01*
X212511495Y-193007935D01*
X212691176Y-193047988D01*
X212776800Y-193092905D01*
X212932260Y-193172295D01*
X213191208Y-193250448D01*
X213411800Y-193295412D01*
X213718112Y-193371919D01*
X214111791Y-193507987D01*
X214531843Y-193681552D01*
X214714666Y-193766712D01*
X215123861Y-193956686D01*
X215445311Y-194079566D01*
X215737929Y-194152901D01*
X216060629Y-194194245D01*
X216181424Y-194203695D01*
X216516616Y-194230909D01*
X216733690Y-194268746D01*
X216883526Y-194338459D01*
X217017003Y-194461297D01*
X217139198Y-194603721D01*
X217358922Y-194838011D01*
X217585263Y-195036141D01*
X217683274Y-195103981D01*
X217869426Y-195242762D01*
X217927174Y-195351551D01*
X217847844Y-195407551D01*
X217800003Y-195410667D01*
X217709266Y-195447319D01*
X217714267Y-195485518D01*
X217841833Y-195543149D01*
X218094842Y-195544613D01*
X218440947Y-195495191D01*
X218847797Y-195400161D01*
X219283046Y-195264802D01*
X219456000Y-195201263D01*
X220666749Y-194745828D01*
X221783162Y-194350097D01*
X222854033Y-193999035D01*
X223928155Y-193677605D01*
X225054320Y-193370774D01*
X226281323Y-193063506D01*
X226779666Y-192944565D01*
X227382272Y-192798456D01*
X228000102Y-192641779D01*
X228588679Y-192486297D01*
X229103524Y-192343775D01*
X229500160Y-192225975D01*
X229518177Y-192220284D01*
X229951309Y-192077607D01*
X230265779Y-191956047D01*
X230506357Y-191832407D01*
X230717815Y-191683490D01*
X230944921Y-191486098D01*
X230957510Y-191474522D01*
X231347584Y-191139444D01*
X231665815Y-190930291D01*
X231941419Y-190837116D01*
X232203614Y-190849976D01*
G37*
%TO.C,D28*%
X346575329Y-120422921D02*
X346192807Y-120539870D01*
X346192807Y-120539870D02*
X346353611Y-121065838D01*
X346192807Y-120539870D02*
X346032002Y-120013902D01*
X346192807Y-120539870D02*
X345735972Y-121097815D01*
X345735972Y-121097815D02*
X345502075Y-120332771D01*
X345619024Y-120715293D02*
X345140871Y-120861479D01*
X345502075Y-120332771D02*
X346192807Y-120539870D01*
%TO.C,D27*%
X168285119Y-185134300D02*
X167938709Y-184934300D01*
X167938709Y-184934300D02*
X167663709Y-185410614D01*
X167938709Y-184934300D02*
X168213709Y-184457986D01*
X167938709Y-184934300D02*
X167219094Y-184980710D01*
X167219094Y-184980710D02*
X167619094Y-184287890D01*
X167419094Y-184634300D02*
X166986081Y-184384300D01*
X167619094Y-184287890D02*
X167938709Y-184934300D01*
%TO.C,D19*%
X139700619Y-158534900D02*
X139354209Y-158334900D01*
X139354209Y-158334900D02*
X139079209Y-158811214D01*
X139354209Y-158334900D02*
X139629209Y-157858586D01*
X139354209Y-158334900D02*
X138634594Y-158381310D01*
X138634594Y-158381310D02*
X139034594Y-157688490D01*
X138834594Y-158034900D02*
X138401581Y-157784900D01*
X139034594Y-157688490D02*
X139354209Y-158334900D01*
%TO.C,D17*%
X150620155Y-96214193D02*
X150263752Y-96032597D01*
X150263752Y-96032597D02*
X150014058Y-96522650D01*
X150263752Y-96032597D02*
X150513447Y-95542543D01*
X150263752Y-96032597D02*
X149547552Y-96116605D01*
X149547552Y-96116605D02*
X149910745Y-95403800D01*
X149729148Y-95760202D02*
X149283645Y-95533207D01*
X149910745Y-95403800D02*
X150263752Y-96032597D01*
%TO.C,D29*%
X341523446Y-104203572D02*
X341138942Y-104313827D01*
X341138942Y-104313827D02*
X341290542Y-104842521D01*
X341138942Y-104313827D02*
X340987341Y-103785133D01*
X341138942Y-104313827D02*
X340672440Y-104863714D01*
X340672440Y-104863714D02*
X340451930Y-104094705D01*
X340562185Y-104479209D02*
X340081554Y-104617028D01*
X340451930Y-104094705D02*
X341138942Y-104313827D01*
%TO.C,D32*%
X318186588Y-105786645D02*
X317815714Y-105936488D01*
X317815714Y-105936488D02*
X318021748Y-106446439D01*
X317815714Y-105936488D02*
X317609681Y-105426537D01*
X317815714Y-105936488D02*
X317409247Y-106532125D01*
X317409247Y-106532125D02*
X317109561Y-105790378D01*
X317259404Y-106161252D02*
X316795812Y-106348555D01*
X317109561Y-105790378D02*
X317815714Y-105936488D01*
%TO.C,D12*%
X135256031Y-78725864D02*
X134893508Y-78556816D01*
X134893508Y-78556816D02*
X134661068Y-79055286D01*
X134893508Y-78556816D02*
X135125948Y-78058347D01*
X134893508Y-78556816D02*
X134180676Y-78665769D01*
X134180676Y-78665769D02*
X134518770Y-77940722D01*
X134349723Y-78303245D02*
X133896569Y-78091936D01*
X134518770Y-77940722D02*
X134893508Y-78556816D01*
D14*
%TO.C,U5*%
X176860000Y-152580000D02*
X180010000Y-152580000D01*
X176860000Y-162380000D02*
X176860000Y-152580000D01*
X180010000Y-162380000D02*
X176860000Y-162380000D01*
X180010000Y-162650000D02*
X180010000Y-162380000D01*
X181890000Y-149480000D02*
X182510000Y-149480000D01*
X182510000Y-143180000D02*
X193410000Y-143180000D01*
X182510000Y-149480000D02*
X182510000Y-143180000D01*
X183110000Y-165380000D02*
X181890000Y-165380000D01*
X183110000Y-168580000D02*
X183110000Y-165380000D01*
X192810000Y-165380000D02*
X192810000Y-168580000D01*
X193410000Y-143180000D02*
X193410000Y-149480000D01*
X193410000Y-149480000D02*
X194040000Y-149480000D01*
X194040000Y-165380000D02*
X192810000Y-165380000D01*
X195910000Y-153380000D02*
X197460000Y-153380000D01*
X195910000Y-161480000D02*
X195910000Y-162600000D01*
X197460000Y-153380000D02*
X197460000Y-161480000D01*
X197460000Y-161480000D02*
X195910000Y-161480000D01*
D15*
X182010000Y-144130000D02*
G75*
G03*
X182010000Y-144130000I-100000J0D01*
G01*
D12*
%TO.C,D48*%
X262977519Y-128340000D02*
X262631109Y-128540000D01*
X262631109Y-128540000D02*
X262906109Y-129016314D01*
X262631109Y-128540000D02*
X262356109Y-128063686D01*
X262631109Y-128540000D02*
X262311494Y-129186410D01*
X262311494Y-129186410D02*
X261911494Y-128493590D01*
X262111494Y-128840000D02*
X261678481Y-129090000D01*
X261911494Y-128493590D02*
X262631109Y-128540000D01*
%TO.C,D44*%
X269089411Y-95521596D02*
X268736232Y-95709385D01*
X268736232Y-95709385D02*
X268994441Y-96195006D01*
X268736232Y-95709385D02*
X268478022Y-95223764D01*
X268736232Y-95709385D02*
X268394252Y-96344247D01*
X268394252Y-96344247D02*
X268018674Y-95637889D01*
X268206463Y-95991068D02*
X267764989Y-96225804D01*
X268018674Y-95637889D02*
X268736232Y-95709385D01*
%TO.C,D4*%
X94853579Y-121975148D02*
X94485377Y-121818856D01*
X94485377Y-121818856D02*
X94270475Y-122325134D01*
X94485377Y-121818856D02*
X94700279Y-121312578D01*
X94485377Y-121818856D02*
X93776781Y-121952619D01*
X93776781Y-121952619D02*
X94089366Y-121216215D01*
X93933074Y-121584417D02*
X93472821Y-121389052D01*
X94089366Y-121216215D02*
X94485377Y-121818856D01*
%TO.C,D45*%
X280130019Y-192049100D02*
X279783609Y-192249100D01*
X279783609Y-192249100D02*
X280058609Y-192725414D01*
X279783609Y-192249100D02*
X279508609Y-191772786D01*
X279783609Y-192249100D02*
X279463994Y-192895510D01*
X279463994Y-192895510D02*
X279063994Y-192202690D01*
X279263994Y-192549100D02*
X278830981Y-192799100D01*
X279063994Y-192202690D02*
X279783609Y-192249100D01*
D13*
%TO.C,R5*%
X186405000Y-77339564D02*
X186405000Y-76885436D01*
X187875000Y-77339564D02*
X187875000Y-76885436D01*
%TO.C,R7*%
X192305000Y-77339564D02*
X192305000Y-76885436D01*
X193775000Y-77339564D02*
X193775000Y-76885436D01*
D12*
%TO.C,D41*%
X292638511Y-140759196D02*
X292285332Y-140946985D01*
X292285332Y-140946985D02*
X292543541Y-141432606D01*
X292285332Y-140946985D02*
X292027122Y-140461364D01*
X292285332Y-140946985D02*
X291943352Y-141581847D01*
X291943352Y-141581847D02*
X291567774Y-140875489D01*
X291755563Y-141228668D02*
X291314089Y-141463404D01*
X291567774Y-140875489D02*
X292285332Y-140946985D01*
%TO.C,D11*%
X128071531Y-94133064D02*
X127709008Y-93964016D01*
X127709008Y-93964016D02*
X127476568Y-94462486D01*
X127709008Y-93964016D02*
X127941448Y-93465547D01*
X127709008Y-93964016D02*
X126996176Y-94072969D01*
X126996176Y-94072969D02*
X127334270Y-93347922D01*
X127165223Y-93710445D02*
X126712069Y-93499136D01*
X127334270Y-93347922D02*
X127709008Y-93964016D01*
%TO.C,D42*%
X284788811Y-125679996D02*
X284435632Y-125867785D01*
X284435632Y-125867785D02*
X284693841Y-126353406D01*
X284435632Y-125867785D02*
X284177422Y-125382164D01*
X284435632Y-125867785D02*
X284093652Y-126502647D01*
X284093652Y-126502647D02*
X283718074Y-125796289D01*
X283905863Y-126149468D02*
X283464389Y-126384204D01*
X283718074Y-125796289D02*
X284435632Y-125867785D01*
%TO.C,D9*%
X113702431Y-124947564D02*
X113339908Y-124778516D01*
X113339908Y-124778516D02*
X113107468Y-125276986D01*
X113339908Y-124778516D02*
X113572348Y-124280047D01*
X113339908Y-124778516D02*
X112627076Y-124887469D01*
X112627076Y-124887469D02*
X112965170Y-124162422D01*
X112796123Y-124524945D02*
X112342969Y-124313636D01*
X112965170Y-124162422D02*
X113339908Y-124778516D01*
%TO.C,D13*%
X128413155Y-175690093D02*
X128056752Y-175508497D01*
X128056752Y-175508497D02*
X127807058Y-175998550D01*
X128056752Y-175508497D02*
X128306447Y-175018443D01*
X128056752Y-175508497D02*
X127340552Y-175592505D01*
X127340552Y-175592505D02*
X127703745Y-174879700D01*
X127522148Y-175236102D02*
X127076645Y-175009107D01*
X127703745Y-174879700D02*
X128056752Y-175508497D01*
%TO.C,D24*%
X158789019Y-161472700D02*
X158442609Y-161272700D01*
X158442609Y-161272700D02*
X158167609Y-161749014D01*
X158442609Y-161272700D02*
X158717609Y-160796386D01*
X158442609Y-161272700D02*
X157722994Y-161319110D01*
X157722994Y-161319110D02*
X158122994Y-160626290D01*
X157922994Y-160972700D02*
X157489981Y-160722700D01*
X158122994Y-160626290D02*
X158442609Y-161272700D01*
%TD*%
M02*
